<?xml version="1.0" standalone="no"?>
<!DOCTYPE svg PUBLIC "-//W3C//DTD SVG 1.1//EN" "http://www.w3.org/Graphics/SVG/1.1/DTD/svg11.dtd" >
<svg xmlns="http://www.w3.org/2000/svg" xmlns:xlink="http://www.w3.org/1999/xlink" version="1.1">
<metadata>
Created by FontForge 20141024 at Tue Jan 12 14:24:45 2016
 By Jimmy Warting
Modern and elegant sans serif font family.
</metadata>
<defs>
<font id="Code-Pro-Bold-LC" horiz-adv-x="640" >
  <font-face 
    font-family="Code Pro Bold LC"
    font-weight="400"
    font-stretch="normal"
    units-per-em="1000"
    panose-1="2 0 0 0 0 0 0 0 0 0"
    ascent="750"
    descent="-250"
    x-height="270"
    cap-height="704"
    bbox="-156 -253 1691 967"
    underline-thickness="50"
    underline-position="-50"
    stemh="84"
    stemv="99"
    unicode-range="U+0020-FB04"
  />
<missing-glyph horiz-adv-x="596" 
d="M-1 0v700h527v-700h-527zM262 462l80 118h-159c26 -38 45 -65 79 -118zM336 349l65 -95v193c-21 -30 -43 -63 -65 -98zM124 253l64 97c-34 52 -19 27 -64 96v-193zM183 120h158l-79 117c-26 -38 -43 -63 -79 -117z" />
    <glyph glyph-name="f_f_i" unicode="ffi" horiz-adv-x="920" 
d="M648 594l4 118c-164 25 -256 -23 -256 -174h-159c0 62 54 65 113 52l5 118c-172 30 -275 -15 -275 -170h-83v-130h81v-408h157v408h159v-408h157v408h139v-408h160v538h-297c0 58 40 66 95 56zM675 648c0 123 189 123 189 0c0 -118 -189 -118 -189 0z" />
    <glyph glyph-name="f_f_l" unicode="ffl" horiz-adv-x="920" 
d="M690 0v701h160v-701h-160zM642 538v-130h-91v-408h-157v408h-159v-408h-157v408h-81v130h83c0 155 103 200 275 170l-5 -118c-59 13 -113 10 -113 -52h159c0 151 92 199 256 174l-4 -118c-55 10 -95 2 -95 -56h89z" />
    <glyph glyph-name="f_j" unicode="fj" horiz-adv-x="843" 
d="M165 257v-257h-164v701h406v-152h-242v-140h237v-152h-237zM766 700v-404c0 -203 -108 -296 -400 -296v154c181 0 236 47 236 142v253h-167v151h331z" />
    <glyph glyph-name="f_f" unicode="ff" horiz-adv-x="716" 
d="M237 537h159c0 155 103 201 275 171l-5 -118c-59 13 -113 9 -113 -53h112v-132h-114v-405h-157v405h-159v-405h-157v405h-81v132h83c0 155 103 201 275 171l-5 -118c-59 13 -113 9 -113 -53z" />
    <glyph glyph-name="fi" unicode="fi" horiz-adv-x="605" 
d="M534 538h-297c0 57 44 65 97 55l1 126c-163 25 -255 -30 -255 -181h-83v-128h81v-410h157v410h139v-410h160v538zM359 648c0 123 189 123 189 0c0 -118 -189 -118 -189 0z" />
    <glyph glyph-name="fl" unicode="fl" horiz-adv-x="604" 
d="M335 719l-1 -126c-53 10 -97 2 -97 -55h97v-128h-99v-410h-157v410h-81v128h83c0 151 92 206 255 181zM374 701h160v-701h-160v701z" />
    <glyph glyph-name=".notdef" horiz-adv-x="596" 
d="M-1 0v700h527v-700h-527zM262 462l80 118h-159c26 -38 45 -65 79 -118zM336 349l65 -95v193c-21 -30 -43 -63 -65 -98zM124 253l64 97c-34 52 -19 27 -64 96v-193zM183 120h158l-79 117c-26 -38 -43 -63 -79 -117z" />
    <glyph glyph-name="space" unicode=" " horiz-adv-x="251" 
 />
    <glyph glyph-name="numbersign" unicode="#" horiz-adv-x="588" 
d="M531 550v-154h-84l-1 -5l-10 -63h60v-153h-83l-27 -174h-156l26 174h-36l-29 -174h-157l28 174h-68v153h91l8 61v1v6h-66v154h90l25 150h159l-24 -150h35l26 150h156l-23 -150h60zM296 400h-49l-11 -76h49z" />
    <glyph glyph-name="percent" unicode="%" horiz-adv-x="810" 
d="M346 545c0 -95 -79 -171 -176 -171c-95 0 -175 76 -175 171c0 96 80 172 175 172c97 0 176 -76 176 -172zM498 701h189l-459 -709h-189zM170 510c45 0 46 71 0 71s-47 -71 0 -71zM747 168c0 -95 -79 -171 -176 -171c-95 0 -175 76 -175 171c0 96 80 172 175 172
c97 0 176 -76 176 -172zM571 133c45 0 46 71 0 71s-47 -71 0 -71z" />
    <glyph glyph-name="ampersand" unicode="&#x26;" horiz-adv-x="699" 
d="M445 367l142 -91l-60 -77l90 -103v-97h-147l-49 59c-47 -46 -96 -67 -175 -67c-132 0 -238 87 -238 226c0 89 45 140 102 182c-24 35 -41 72 -41 122c0 120 101 190 208 190c99 0 193 -75 193 -183c0 -81 -40 -128 -94 -165l38 -38zM319 181l-99 103
c-22 -17 -44 -43 -45 -70c-1 -14 4 -29 17 -43c30 -34 89 -32 127 10zM310 531c2 48 -85 53 -84 -6c0 -19 13 -36 33 -59c28 19 50 40 51 65z" />
    <glyph glyph-name="quotesingle" unicode="'" horiz-adv-x="224" 
d="M2 702h146v-310h-146v310z" />
    <glyph glyph-name="parenleft" unicode="(" horiz-adv-x="434" 
d="M356 658c-145 -74 -173 -207 -173 -323c0 -114 41 -241 173 -311v-181c-249 101 -337 311 -337 489c0 173 75 395 337 493v-167z" />
    <glyph glyph-name="parenright" unicode=")" horiz-adv-x="444" 
d="M9 658v167c262 -98 337 -320 337 -493c0 -178 -88 -388 -337 -489v181c132 70 173 197 173 311c0 116 -28 249 -173 323z" />
    <glyph glyph-name="asterisk" unicode="*" horiz-adv-x="410" 
d="M356 528l-81 -25l51 -68l-109 -79l-46 71l-49 -70l-108 77l49 69l-79 24l39 124l79 -26v83h136l-1 -84c22 8 65 20 80 26z" />
    <glyph glyph-name="plus" unicode="+" horiz-adv-x="567" 
d="M0 274v153h173v168h160v-168h166v-153h-166v-170h-160v170h-173z" />
    <glyph glyph-name="hyphen" unicode="-" horiz-adv-x="387" 
d="M5 275v154h308v-154h-308z" />
    <glyph glyph-name="slash" unicode="/" horiz-adv-x="463" 
d="M416 739l-271 -795h-165l271 795h165z" />
    <glyph glyph-name="less" unicode="&#x3c;" horiz-adv-x="461" 
d="M-2 278v150l381 203v-179l-198 -98l198 -100v-174z" />
    <glyph glyph-name="equal" unicode="=" horiz-adv-x="492" 
d="M0 352v148h419v-148h-419zM0 173v146h419v-146h-419z" />
    <glyph glyph-name="greater" unicode="&#x3e;" horiz-adv-x="441" 
d="M369 439v-162l-370 -191v177l197 97l-197 97v180z" />
    <glyph glyph-name="bracketleft" unicode="[" horiz-adv-x="304" 
d="M237 757v-145h-71c0 -96 -1 -175 -1 -549h71v-144h-235v838h236z" />
    <glyph glyph-name="backslash" unicode="\" horiz-adv-x="471" 
d="M254 -54l-267 785h171l267 -785h-171z" />
    <glyph glyph-name="bracketright" unicode="]" horiz-adv-x="316" 
d="M5 609v147h235l1 -838h-235v145h71v546h-72z" />
    <glyph glyph-name="asciicircum" unicode="^" horiz-adv-x="571" 
d="M504 354v-22h-169l-89 167l-88 -167h-168v20l192 352h131z" />
    <glyph glyph-name="underscore" unicode="_" horiz-adv-x="588" 
d="M3 -3h516v-151h-516v151z" />
    <glyph glyph-name="braceleft" unicode="{" horiz-adv-x="347" 
d="M276 762v-148h-60v-158c0 -37 -10 -101 -64 -124c55 -24 64 -87 64 -123v-155h60v-148h-82c-89 0 -138 57 -138 140v148c0 32 -11 63 -55 63v150c44 0 55 31 55 64v150c0 84 49 141 138 141h82z" />
    <glyph glyph-name="bar" unicode="|" horiz-adv-x="233" 
d="M1 -131v885h160v-885h-160z" />
    <glyph glyph-name="braceright" unicode="}" horiz-adv-x="345" 
d="M-2 613v147h83c88 0 137 -57 137 -141v-148c0 -33 12 -64 56 -64v-150c-44 0 -56 -31 -56 -63v-140c0 -83 -49 -140 -137 -140h-83v148h60v147c0 36 9 96 56 123c-47 27 -56 87 -56 124v157h-60z" />
    <glyph glyph-name="asciitilde" unicode="~" horiz-adv-x="569" 
d="M417 415l92 -85c-82 -123 -191 -162 -309 -72c-47 40 -88 18 -123 -36l-91 89c78 127 193 166 316 66c43 -37 80 -9 115 38z" />
    <glyph glyph-name="exclamdown" unicode="&#xa1;" horiz-adv-x="250" 
d="M6 -184h167v508h-167v-508zM91 344c-54 0 -93 36 -93 89c0 115 183 116 183 0c0 -53 -40 -89 -90 -89z" />
    <glyph glyph-name="sterling" unicode="&#xa3;" horiz-adv-x="584" 
d="M513 496h-153c0 96 -137 90 -137 8v-82h182v-142h-182v-132h289v-148h-511v124l58 13v143h-59v142h59v84c0 141 112 202 231 202c117 0 223 -62 223 -212z" />
    <glyph glyph-name="section" unicode="&#xa7;" horiz-adv-x="495" 
d="M166 388c-27 -42 84 -44 111 -57c15 51 -89 48 -111 57zM4 328c-3 46 12 93 59 113c-36 19 -53 52 -54 85c-4 114 100 183 209 187c59 2 141 -17 201 -83l-83 -111c-40 32 -78 43 -111 43c-23 -1 -39 -8 -38 -24c0 -17 13 -22 41 -28c97 -19 202 -52 206 -161
c2 -40 -16 -76 -54 -93c33 -23 45 -49 46 -80c5 -125 -117 -181 -213 -185c-79 -3 -164 33 -231 112l94 99c33 -39 97 -58 138 -59c24 0 40 7 39 19c0 17 -19 22 -56 27c-89 11 -189 48 -193 139z" />
    <glyph glyph-name="dieresis" unicode="&#xa8;" horiz-adv-x="471" 
d="M88 806c53 0 88 -34 88 -84c0 -41 -35 -83 -88 -83c-47 0 -85 36 -85 83c0 53 38 84 85 84zM308 806c53 0 88 -34 88 -84c0 -41 -35 -83 -88 -83c-47 0 -85 42 -85 83c0 50 38 84 85 84z" />
    <glyph glyph-name="copyright" unicode="&#xa9;" horiz-adv-x="802" 
d="M-2 349c0 480 742 477 742 0s-742 -480 -742 0zM147 349c0 -305 445 -302 445 0c0 300 -445 296 -445 0zM427 330h128c-19 -221 -373 -216 -373 19c0 238 359 241 373 21h-127c-16 67 -119 56 -119 -21c0 -76 100 -82 118 -19z" />
    <glyph glyph-name="guillemotleft" unicode="&#xab;" horiz-adv-x="648" 
d="M338 146v-23h-178l-172 214l172 214h179v-21l-153 -193zM579 146v-23h-178l-172 214l172 214h179v-21l-153 -193z" />
    <glyph glyph-name="logicalnot" unicode="&#xac;" horiz-adv-x="568" 
d="M1 283v150h491v-309h-158v159h-333z" />
    <glyph glyph-name="registered" unicode="&#xae;" horiz-adv-x="805" 
d="M358 227h-7v-76h-135v383h165c103 0 157 -73 157 -147c0 -45 -20 -88 -61 -115l96 -122h-167zM343 415v-50h49c15 0 25 13 25 25s-10 25 -25 25h-49zM-2 349c0 480 742 477 742 0s-742 -480 -742 0zM147 349c0 -305 445 -302 445 0c0 300 -445 296 -445 0z" />
    <glyph glyph-name="macron" unicode="&#xaf;" horiz-adv-x="398" 
d="M7 569v145h307v-145h-307z" />
    <glyph glyph-name="degree" unicode="&#xb0;" horiz-adv-x="399" 
d="M174 407c-87 0 -158 68 -158 152c0 83 71 152 158 152c89 0 160 -69 160 -152c0 -84 -71 -152 -160 -152zM175 506c32 0 55 23 55 53s-23 53 -55 53s-55 -23 -55 -53s23 -53 55 -53z" />
    <glyph glyph-name="plusminus" unicode="&#xb1;" horiz-adv-x="567" 
d="M-9 138h507v-138h-507v138zM335 153h-162v133h-172v153h172v168h162v-168h165v-153h-165v-133z" />
    <glyph glyph-name="acute" unicode="&#xb4;" horiz-adv-x="311" 
d="M250 705v-11l-115 -123h-129v23l63 111h181z" />
    <glyph glyph-name="paragraph" unicode="&#xb6;" horiz-adv-x="660" 
d="M187 -66v332c-109 28 -173 120 -173 211c0 112 81 224 243 224h301v-767h-162v621h-46v-621h-163z" />
    <glyph glyph-name="periodcentered" unicode="&#xb7;" horiz-adv-x="241" 
d="M88 435c54 0 93 -36 93 -89c0 -44 -39 -89 -93 -89c-50 0 -90 45 -90 89c0 53 40 89 90 89z" />
    <glyph glyph-name="ordmasculine" unicode="&#xba;" horiz-adv-x="438" 
d="M189 350c-106 0 -188 74 -188 181c0 102 82 178 187 178s188 -76 188 -178c0 -107 -83 -181 -187 -181zM189 489c51 0 53 81 0 81c-55 0 -55 -81 0 -81zM6 180v148h362v-148h-362z" />
    <glyph glyph-name="guillemotright" unicode="&#xbb;" 
d="M234 123v23l152 191l-153 193v21h179l172 -214l-172 -214h-178zM-7 123v23l152 191l-153 193v21h179l172 -214l-172 -214h-178z" />
    <glyph glyph-name="questiondown" unicode="&#xbf;" horiz-adv-x="580" 
d="M504 34h-154c0 -96 -177 -99 -177 1c0 30 26 45 46 56c63 32 127 65 127 163v83h-169v-75c0 -94 -176 -66 -176 -236c0 -133 93 -227 261 -227c120 0 242 68 242 235zM351 443c0 -109 -183 -111 -183 0c0 106 183 109 183 0z" />
    <glyph glyph-name="multiply" unicode="&#xd7;" horiz-adv-x="539" 
d="M5 426l112 112l122 -123l119 119l111 -110l-120 -119l118 -118l-111 -111l-118 117l-120 -120l-111 111l121 120z" />
    <glyph glyph-name="germandbls" unicode="&#xdf;" horiz-adv-x="578" 
d="M178 507v-507h-178v507c0 128 114 206 239 206s236 -74 236 -203c0 -39 -24 -101 -71 -123c88 -35 112 -102 111 -166c-1 -170 -148 -254 -310 -216v152c44 -21 133 -7 133 65c0 38 -33 74 -93 74h-42v161h42c37 0 55 26 55 52c0 63 -122 65 -122 -2z" />
    <glyph glyph-name="divide" unicode="&#xf7;" horiz-adv-x="544" 
d="M0 272v153h482v-153h-482zM235 213c54 0 92 -37 92 -90c0 -43 -38 -88 -92 -88c-50 0 -90 45 -90 88c0 53 40 90 90 90zM234 646c54 0 92 -36 92 -89c0 -116 -182 -115 -182 0c0 53 40 89 90 89z" />
    <glyph glyph-name="Aogonek" unicode="&#x104;" horiz-adv-x="737" 
d="M485 0l-39 103h-239l-39 -103h-183l280 708h122l289 -703l2 -5c-52 -9 -54 -74 3 -81l-62 -92c-119 -21 -188 96 -111 173h-23zM327 426l-52 -148l-6 -16h116l-4 12z" />
    <glyph glyph-name="Dcroat" unicode="&#x110;" horiz-adv-x="764" 
d="M36 269v156h44v274h265c231 0 347 -175 347 -350s-116 -349 -347 -349h-265v269h-44zM251 165h94c117 0 177 92 177 184s-60 185 -177 185h-94v-109h118v-156h-118v-104z" />
    <glyph glyph-name="Eogonek" unicode="&#x118;" horiz-adv-x="549" 
d="M172 277v-112h290v-165h-3c-41 -15 -39 -71 14 -78l-62 -92c-118 -21 -186 93 -113 170h-298v710h461v-165h-289v-102h283v-166h-283z" />
    <glyph glyph-name="eogonek" unicode="&#x119;" 
d="M572 272c0 -22 -2 -42 -6 -62h-388c20 -53 74 -77 124 -75c32 1 62 13 83 36h171c-21 -61 -61 -106 -110 -135c-66 -51 -27 -117 44 -110l-50 -98c-132 -32 -212 88 -149 166c-139 0 -278 92 -278 278c0 183 138 275 276 277c141 2 283 -90 283 -277zM184 333h216
c-15 54 -59 79 -110 79c-47 0 -90 -26 -106 -79z" />
    <glyph glyph-name="dotlessi" unicode="&#x131;" horiz-adv-x="268" 
d="M36 541h160l1 -541h-160z" />
    <glyph glyph-name="IJ" unicode="&#x132;" horiz-adv-x="889" 
d="M406 700v-156h-116v-391h116v-153h-403v153h116v391h-116v156h403zM464 0v161c154 0 175 46 175 147v235h-169v157h339v-392c0 -214 -70 -308 -345 -308z" />
    <glyph glyph-name="Lslash" unicode="&#x141;" horiz-adv-x="587" 
d="M223 320v-155h294v-165h-465v223l-52 -29v169l52 30v307h171v-209l90 52v-172z" />
    <glyph glyph-name="lslash" unicode="&#x142;" horiz-adv-x="277" 
d="M35 700h160v-234l38 22v-172l-38 -21v-295h-160v206l-38 -21v169l38 21v325z" />
    <glyph glyph-name="napostrophe" unicode="&#x149;" horiz-adv-x="742" 
d="M4 699h152c16 -54 11 -129 -28 -175h-133c20 58 31 117 9 175zM165 541v-541h167v294c0 124 180 157 180 3v-297h160v298c1 135 -41 249 -195 251c-58 0 -115 -14 -153 -62v54h-159z" />
    <glyph glyph-name="Eng" unicode="&#x14a;" horiz-adv-x="623" 
d="M170 0h-170v700h132l242 -350v350h169v-706c0 -125 -70 -195 -242 -183v136c74 -10 85 25 85 57v29l-216 308v-341z" />
    <glyph glyph-name="eng" unicode="&#x14b;" horiz-adv-x="607" 
d="M30 0v541h159v-54c38 48 95 62 153 62c154 -2 196 -116 195 -251v-306c0 -125 -73 -202 -245 -183v136c72 -10 84 24 85 55v297c0 154 -180 121 -180 -3v-294h-167z" />
    <glyph glyph-name="longs" unicode="&#x17f;" horiz-adv-x="516" 
d="M171 542v-542h-171v700h442v-158h-271z" />
    <glyph glyph-name="florin" unicode="&#x192;" horiz-adv-x="543" 
d="M476 702l-22 -138c-58 17 -110 -2 -117 -51h86l-21 -134h-89l-73 -382c-30 -170 -184 -208 -309 -157l28 131c69 -20 101 -17 117 56l68 352h-78l21 134h82c24 165 149 227 307 189z" />
    <glyph glyph-name="Scommaaccent" unicode="&#x218;" horiz-adv-x="606" 
d="M200 -39h160c16 -54 12 -110 -27 -156h-141c20 58 30 98 8 156zM526 479h-172c0 47 -38 72 -91 72s-90 -23 -90 -61c0 -52 83 -53 106 -55c99 -13 224 -39 254 -165c3 -16 5 -34 5 -49c0 -146 -142 -230 -275 -230c-114 0 -269 70 -269 248h173c0 -69 58 -82 97 -82
c56 0 101 16 101 56c0 50 -80 52 -106 55c-113 11 -247 36 -260 197v-1c-8 154 118 246 267 246c125 0 260 -70 260 -231z" />
    <glyph glyph-name="scommaaccent" unicode="&#x219;" horiz-adv-x="515" 
d="M160 -39h150c16 -54 12 -110 -27 -156h-131c20 58 30 98 8 156zM20 367c0 131 100 187 219 187c115 0 214 -59 215 -185h-149c-1 42 -42 45 -74 45c-23 0 -55 -8 -55 -37c0 -28 42 -29 64 -30c112 -3 225 -51 225 -179c0 -136 -109 -182 -227 -182
c-128 0 -224 58 -226 196h156c1 -36 38 -51 73 -51c41 -1 68 14 68 33c0 39 -59 34 -84 36c-101 9 -205 48 -205 167z" />
    <glyph glyph-name="uni021A" unicode="&#x21a;" horiz-adv-x="624" 
d="M189 -39h160c16 -54 12 -110 -27 -156h-141c20 58 30 98 8 156zM357 0h-171v540h-189v160h548v-160h-188v-540z" />
    <glyph glyph-name="uni021B" unicode="&#x21b;" horiz-adv-x="415" 
d="M149 -33h158c16 -54 12 -121 -27 -167h-139c20 58 30 109 8 167zM360 -1c-172 -30 -280 17 -280 188v213h-71v135h71v103l157 14v-117h113v-135h-113v-213c0 -68 69 -69 118 -58z" />
    <glyph glyph-name="caron" unicode="&#x2c7;" horiz-adv-x="494" 
d="M268 610h-118l-138 126v14h156l44 -40l42 40h158v-11z" />
    <glyph glyph-name="breve" unicode="&#x2d8;" horiz-adv-x="371" 
d="M184 743h128c0 -192 -322 -199 -322 0h123c1 -43 72 -40 71 0z" />
    <glyph glyph-name="dotaccent" unicode="&#x2d9;" horiz-adv-x="315" 
d="M41 727c0 58 46 87 92 87c45 0 91 -27 91 -87c0 -58 -46 -87 -92 -87c-44 0 -91 28 -91 87z" />
    <glyph glyph-name="ring" unicode="&#x2da;" horiz-adv-x="304" 
d="M123 630c-63 0 -119 41 -119 107c0 67 56 108 119 108c62 0 120 -41 120 -108c0 -66 -58 -107 -120 -107zM123 762c-16 0 -29 -10 -29 -25s13 -23 29 -23c18 0 30 8 30 23s-12 25 -30 25z" />
    <glyph glyph-name="ogonek" unicode="&#x2db;" horiz-adv-x="539" 
d="M373 -53l2 -3l-94 -100s-145 -15 -161 89h1c-14 93 91 141 91 141l112 -26c-58 -36 -29 -111 49 -101z" />
    <glyph glyph-name="tilde" unicode="&#x2dc;" horiz-adv-x="433" 
d="M288 864l87 -76c-41 -70 -93 -101 -146 -95c-65 9 -94 80 -145 8l-90 71c64 108 150 120 228 62c27 -19 46 7 66 30z" />
    <glyph glyph-name="hungarumlaut" unicode="&#x2dd;" horiz-adv-x="446" 
d="M189 710l93 143h170l-118 -143h-145zM3 710l86 143h159l-102 -143h-143z" />
    <glyph glyph-name="uni1E9E" unicode="&#x1e9e;" horiz-adv-x="578" 
d="M178 507v-507h-178v507c0 128 114 206 239 206s236 -74 236 -203c0 -39 -24 -101 -71 -123c88 -35 112 -102 111 -166c-1 -170 -148 -254 -310 -216v152c44 -21 133 -7 133 65c0 38 -33 74 -93 74h-42v161h42c37 0 55 26 55 52c0 63 -122 65 -122 -2z" />
    <glyph glyph-name="endash" unicode="&#x2013;" horiz-adv-x="584" 
d="M-1 282v157h517v-157h-517z" />
    <glyph glyph-name="emdash" unicode="&#x2014;" horiz-adv-x="735" 
d="M0 278v152h665v-152h-665z" />
    <glyph glyph-name="quoteleft" unicode="&#x2018;" horiz-adv-x="304" 
d="M-3 476v48l101 182h150l-91 -230h-160z" />
    <glyph glyph-name="quoteright" unicode="&#x2019;" horiz-adv-x="311" 
d="M240 701v-48l-101 -182h-150l91 230h160z" />
    <glyph glyph-name="quotedblleft" unicode="&#x201c;" horiz-adv-x="508" 
d="M196 471l1 48l100 182h150l-91 -230h-160zM-6 471v48l101 182h150l-91 -230h-160z" />
    <glyph glyph-name="quotedblright" unicode="&#x201d;" horiz-adv-x="503" 
d="M240 701l-1 -48l-100 -182h-150l91 230h160zM442 701v-48l-101 -182h-150l91 230h160z" />
    <glyph glyph-name="dagger" unicode="&#x2020;" horiz-adv-x="517" 
d="M142 -41v430h-146v147h146v165h157v-165h147v-147h-147v-430h-157z" />
    <glyph glyph-name="daggerdbl" unicode="&#x2021;" horiz-adv-x="519" 
d="M0 142v142h146v109h-146v145h146v165h156v-165h147v-145h-147v-109h147v-142h-147v-183h-156v183h-146z" />
    <glyph glyph-name="bullet" unicode="&#x2022;" horiz-adv-x="343" 
d="M137 215c-76 0 -136 59 -136 134c0 74 60 133 136 133c75 0 135 -59 135 -133c0 -75 -60 -134 -135 -134z" />
    <glyph glyph-name="guilsinglleft" unicode="&#x2039;" horiz-adv-x="401" 
d="M338 146v-23h-178l-172 214l172 214h179v-21l-153 -193z" />
    <glyph glyph-name="guilsinglright" unicode="&#x203a;" horiz-adv-x="397" 
d="M-7 131v13l159 200l-156 196v19h181l154 -194v-40l-154 -194h-184z" />
    <glyph glyph-name="fraction" unicode="&#x2044;" horiz-adv-x="240" 
d="M14 -40h-170l345 725h171z" />
    <glyph glyph-name="Euro" unicode="&#x20ac;" horiz-adv-x="835" 
d="M444 360h-444l24 123h44c53 136 185 228 338 228c180 0 335 -122 357 -302h-173c-40 157 -241 182 -332 74h210zM13 336h439l-21 -114h-178c89 -116 299 -90 338 72h173c-26 -183 -176 -304 -358 -304c-156 0 -289 93 -340 232h-77z" />
    <glyph glyph-name="trademark" unicode="&#x2122;" horiz-adv-x="896" 
d="M329 563h-92v-262h-153v262h-92v139h337v-139zM507 701l88 -153l88 153h155v-400h-154v108l-36 -69h-106l-36 69v-108h-154v400h155z" />
    <glyph glyph-name="minus" unicode="&#x2212;" horiz-adv-x="529" 
d="M-3 262v157h464v-157h-464z" />
    <glyph glyph-name="infinity" unicode="&#x221e;" horiz-adv-x="438" 
d="M180 158c-99 0 -180 80 -180 177c0 100 81 177 180 177c101 0 181 -77 181 -177c0 -97 -80 -177 -181 -177z" />
    <glyph glyph-name="approxequal" unicode="&#x2248;" horiz-adv-x="573" 
d="M434 326l83 -87c-82 -123 -198 -166 -316 -76c-47 40 -88 18 -123 -36l-91 89c73 119 150 176 261 100c69 -49 151 -37 186 10zM418 532l92 -85c-77 -116 -150 -177 -257 -108c-66 54 -144 46 -182 6l-84 83c78 127 193 166 316 66c43 -37 80 -9 115 38z" />
    <glyph glyph-name="notequal" unicode="&#x2260;" horiz-adv-x="532" 
d="M34 103l27 39h-63v145h165l14 19h-179v148h282l72 101l99 -74l-19 -27h32v-148h-134l-14 -19h148v-145h-250l-79 -112z" />
    <glyph glyph-name="lessequal" unicode="&#x2264;" horiz-adv-x="498" 
d="M0 156h432v-155h-432v155zM426 699v-171l-199 -94l199 -97v-165l-430 211v98z" />
    <glyph glyph-name="greaterequal" unicode="&#x2265;" horiz-adv-x="499" 
d="M-2 156h432v-155h-432v155zM4 528v171l430 -218v-98l-430 -211v165l199 97z" />
    <glyph glyph-name="thinspace" unicode="&#x2009;" horiz-adv-x="14" 
 />
    <glyph glyph-name="uni00A0" unicode="&#xa0;" horiz-adv-x="257" 
 />
    <glyph glyph-name="uni00AD" unicode="&#xad;" horiz-adv-x="396" 
d="M-3 250v163h338v-163h-338z" />
    <glyph glyph-name="brokenbar" unicode="&#xa6;" horiz-adv-x="234" 
d="M4 -114v403h163v-403h-163zM167 739v-416h-163v416h163z" />
    <glyph glyph-name="afii10052" unicode="&#x403;" horiz-adv-x="541" 
d="M394 878v-11l-115 -123h-129v23l63 111h181zM180 537v-537h-171v700h460v-163h-289z" />
    <glyph glyph-name="afii10061" unicode="&#x40c;" horiz-adv-x="651" 
d="M436 873v-11l-115 -123h-129v23l63 111h181zM568 700v-10l-248 -338l271 -343v-9h-212l-208 271v-271h-171v700h171v-272l194 272h203z" />
    <glyph glyph-name="afii10060" unicode="&#x40b;" horiz-adv-x="742" 
d="M663 0h-171v249c0 70 -85 94 -136 67v-316h-171v540h-189v160h548v-160h-188v-65c152 35 307 -58 307 -227v-248z" />
    <glyph glyph-name="afii10145" unicode="&#x40f;" horiz-adv-x="606" 
d="M180 -103v103h-180v700h172v-537h182v537h172v-700h-177v-103h-169z" />
    <glyph glyph-name="afii10062" unicode="&#x40e;" horiz-adv-x="654" 
d="M287 -1h-185l104 238c-67 140 -158 326 -225 463h190l72 -147l56 -145l49 144l64 148h190zM150 867h287v-132h-287v132z" />
    <glyph glyph-name="afii10057" unicode="&#x408;" horiz-adv-x="488" 
d="M408 700v-392c0 -223 -112 -308 -410 -308v160c185 0 240 40 240 148v235h-169v157h339z" />
    <glyph glyph-name="afii10050" unicode="&#x490;" horiz-adv-x="540" 
d="M303 700v82h160v-245h-289v-537h-171v700h300z" />
    <glyph glyph-name="afii10023" unicode="&#x401;" horiz-adv-x="538" 
d="M134 898c52 0 87 -34 87 -84c0 -41 -35 -83 -87 -83c-47 0 -85 42 -85 83c0 50 38 84 85 84zM351 898c52 0 87 -34 87 -84c0 -41 -35 -83 -87 -83c-47 0 -85 42 -85 83c0 50 38 84 85 84zM172 165v102h283v166h-283v102h289v165h-461v-700h462v165h-290z" />
    <glyph glyph-name="afii10056" unicode="&#x407;" horiz-adv-x="483" 
d="M93 904c52 0 88 -35 88 -85c0 -42 -36 -83 -88 -83c-47 0 -86 41 -86 83c0 50 39 85 86 85zM315 904c53 0 88 -35 88 -85c0 -42 -35 -83 -88 -83c-47 0 -85 41 -85 83c0 50 38 85 85 85zM406 544v156h-403v-156h116v-391h-116v-153h403v153h-116v391h116z" />
    <glyph glyph-name="afii10055" unicode="&#x406;" horiz-adv-x="483" 
d="M406 700v-156h-116v-391h116v-153h-403v153h116v391h-116v156h403z" />
    <glyph glyph-name="afii10103" unicode="&#x456;" horiz-adv-x="483" 
d="M406 700v-156h-116v-391h116v-153h-403v153h116v391h-116v156h403z" />
    <glyph glyph-name="afii10098" unicode="&#x491;" horiz-adv-x="540" 
d="M303 700v82h160v-245h-289v-537h-171v700h300z" />
    <glyph glyph-name="afii10071" unicode="&#x451;" horiz-adv-x="538" 
d="M134 898c52 0 87 -34 87 -84c0 -41 -35 -83 -87 -83c-47 0 -85 42 -85 83c0 50 38 84 85 84zM351 898c52 0 87 -34 87 -84c0 -41 -35 -83 -87 -83c-47 0 -85 42 -85 83c0 50 38 84 85 84zM172 165v102h283v166h-283v102h289v165h-461v-700h462v165h-290z" />
    <glyph glyph-name="afii61352" unicode="&#x2116;" horiz-adv-x="1377" 
d="M0 0h170v341l239 -341h134v700h-169v-350l-242 350h-132v-700zM579 349c0 206 162 362 362 362s363 -156 363 -362c0 -203 -163 -359 -363 -359s-362 153 -362 359zM749 349c0 -264 383 -262 383 0c0 264 -383 265 -383 0z" />
    <glyph glyph-name="afii10101" unicode="&#x454;" horiz-adv-x="790" 
d="M457 425v-146h-278c56 -176 323 -170 367 15h173c-26 -183 -176 -304 -358 -304c-200 0 -362 153 -362 359s162 362 362 362c180 0 335 -122 357 -302h-173c-46 180 -304 185 -363 16h275z" />
    <glyph glyph-name="afii10105" unicode="&#x458;" horiz-adv-x="488" 
d="M408 700v-392c0 -223 -112 -308 -410 -308v160c185 0 240 40 240 148v235h-169v157h339z" />
    <glyph glyph-name="afii10054" unicode="&#x405;" horiz-adv-x="606" 
d="M526 479h-172c0 47 -38 72 -91 72s-90 -23 -90 -61c0 -52 83 -53 106 -55c99 -13 224 -39 254 -165c3 -16 5 -34 5 -49c0 -146 -142 -230 -275 -230c-114 0 -269 70 -269 248h173c0 -69 58 -82 97 -82c56 0 101 16 101 56c0 50 -80 52 -106 55c-113 11 -247 36 -260 197
v-1c-8 154 118 246 267 246c125 0 260 -70 260 -231z" />
    <glyph glyph-name="afii10102" unicode="&#x455;" horiz-adv-x="606" 
d="M526 479h-172c0 47 -38 72 -91 72s-90 -23 -90 -61c0 -52 83 -53 106 -55c99 -13 224 -39 254 -165c3 -16 5 -34 5 -49c0 -146 -142 -230 -275 -230c-114 0 -269 70 -269 248h173c0 -69 58 -82 97 -82c56 0 101 16 101 56c0 50 -80 52 -106 55c-113 11 -247 36 -260 197
v-1c-8 154 118 246 267 246c125 0 260 -70 260 -231z" />
    <glyph glyph-name="afii10104" unicode="&#x457;" horiz-adv-x="483" 
d="M93 904c52 0 88 -35 88 -85c0 -42 -36 -83 -88 -83c-47 0 -86 41 -86 83c0 50 39 85 86 85zM315 904c53 0 88 -35 88 -85c0 -42 -35 -83 -88 -83c-47 0 -85 41 -85 83c0 50 38 85 85 85zM406 544v156h-403v-156h116v-391h-116v-153h403v153h-116v391h116z" />
    <glyph glyph-name="bgA" unicode="&#x410;" horiz-adv-x="734" 
d="M485 0l-39 103h-239l-39 -103h-183l280 708h122l291 -708h-193zM327 426l-52 -148l-6 -16h116l-4 12z" />
    <glyph glyph-name="afii10019" unicode="&#x412;" horiz-adv-x="620" 
d="M169 545v-98h129c59 0 57 98 2 98h-131zM0 700h324c170 0 252 -221 118 -316c74 -38 104 -99 104 -158c0 -113 -77 -226 -224 -226h-322v700zM169 289v-127h153c72 0 72 127 0 127h-153z" />
    <glyph glyph-name="afii10022" unicode="&#x415;" horiz-adv-x="538" 
d="M172 267v-102h290v-165h-462v700h461v-165h-289v-102h283v-166h-283z" />
    <glyph glyph-name="afii10026" unicode="&#x418;" horiz-adv-x="623" 
d="M545 0h-170v355l-259 -355h-114v700h169v-354l255 354h119v-700z" />
    <glyph glyph-name="afii10027" unicode="&#x419;" horiz-adv-x="623" 
d="M162 873h288v-140h-288v140zM545 0h-170v355l-259 -355h-114v700h169v-354l255 354h119v-700z" />
    <glyph glyph-name="afii10028" unicode="&#x41a;" horiz-adv-x="670" 
d="M587 700v-10l-248 -338l271 -343v-9h-212l-208 271v-271h-171v700h171v-272l194 272h203z" />
    <glyph glyph-name="afii10030" unicode="&#x41c;" horiz-adv-x="718" 
d="M171 348v-348h-171v700h136l184 -271l184 271h134v-700h-170v346l-101 -149h-95z" />
    <glyph glyph-name="afii10031" unicode="&#x41d;" horiz-adv-x="606" 
d="M171 700v-264h184v264h171v-700h-171v271h-184v-271h-171v700h171z" />
    <glyph glyph-name="afii10032" unicode="&#x41e;" horiz-adv-x="792" 
d="M-5 349c0 206 162 362 362 362s363 -156 363 -362c0 -203 -163 -359 -363 -359s-362 153 -362 359zM165 349c0 -264 383 -262 383 0c0 264 -383 265 -383 0z" />
    <glyph glyph-name="afii10034" unicode="&#x420;" horiz-adv-x="584" 
d="M0 700h268c328 0 327 -492 0 -492h-97v-208h-171v700zM171 369h97c106 0 106 165 0 165h-97v-165z" />
    <glyph glyph-name="afii10035" unicode="&#x421;" horiz-adv-x="785" 
d="M164 349c0 -245 328 -262 377 -55h173c-26 -183 -176 -304 -358 -304c-200 0 -362 153 -362 359s162 362 362 362c180 0 335 -122 357 -302h-173c-52 204 -376 184 -376 -60z" />
    <glyph glyph-name="afii10036" unicode="&#x422;" horiz-adv-x="624" 
d="M357 0h-171v540h-189v160h548v-160h-188v-540z" />
    <glyph glyph-name="afii10039" unicode="&#x425;" horiz-adv-x="697" 
d="M627 700v-16l-224 -329l225 -341v-14h-184l-138 213l-136 -213h-184v14l224 341l-221 325v20h180l137 -199l139 199h182z" />
    <glyph glyph-name="afii10018" unicode="&#x411;" horiz-adv-x="625" 
d="M507 700v-163h-325v-87h153c137 0 221 -104 221 -224c0 -113 -75 -226 -221 -226h-322v700h494zM182 290v-128h153c76 0 74 128 0 128h-153z" />
    <glyph glyph-name="afii10020" unicode="&#x413;" horiz-adv-x="541" 
d="M180 537v-537h-171v700h460v-163h-289z" />
    <glyph glyph-name="afii10021" unicode="&#x414;" horiz-adv-x="697" 
d="M574 160h51v-260h-161v100h-302v-100h-168v241l69 16c23 32 31 93 36 161l26 382h449v-540zM239 160h163v378h-121c-14 -260 -15 -325 -42 -378z" />
    <glyph glyph-name="afii10024" unicode="&#x416;" horiz-adv-x="981" 
d="M7 690v10h199l161 -272v272h171v-272l161 272h199v-10l-217 -338l237 -343v-9h-205l-175 271v-271h-171v271l-175 -271h-205v9l237 343z" />
    <glyph glyph-name="afii10025" unicode="&#x417;" horiz-adv-x="594" 
d="M-2 234h158c0 -116 196 -98 196 -14c0 29 -22 67 -76 67h-106v144h106c33 0 55 31 55 58c0 85 -176 89 -176 -10h-151c0 313 497 308 497 15c0 -45 -16 -101 -70 -129c72 -36 92 -95 91 -155c-1 -108 -94 -221 -274 -221c-174 0 -250 116 -250 245z" />
    <glyph glyph-name="afii10029" unicode="&#x41b;" horiz-adv-x="734" 
d="M485 0l-104 274l-54 152l-52 -148l-107 -278h-183l280 708h122l291 -708h-193z" />
    <glyph glyph-name="afii10033" unicode="&#x41f;" horiz-adv-x="606" 
d="M0 700h526v-700h-171v535h-184v-535h-171v700z" />
    <glyph glyph-name="afii10037" unicode="&#x423;" horiz-adv-x="667" 
d="M291 -1h-185l104 238l-225 463h190l71 -146l57 -136l49 134l64 148h190z" />
    <glyph glyph-name="afii10038" unicode="&#x424;" horiz-adv-x="776" 
d="M268 640v63h171v-62c176 -23 266 -154 266 -288c0 -135 -92 -266 -266 -291v-62h-171v62c-177 24 -267 154 -267 289s91 264 267 289zM437 488v-272c65 19 97 69 97 134c0 68 -24 122 -97 138zM172 352c0 -66 29 -119 98 -136v273c-68 -20 -98 -72 -98 -137z" />
    <glyph glyph-name="afii10040" unicode="&#x426;" horiz-adv-x="653" 
d="M530 155h51v-282h-161v127h-409v700h172v-545h174v545h173v-545z" />
    <glyph glyph-name="afii10041" unicode="&#x427;" horiz-adv-x="592" 
d="M509 700v-700h-174v216c-16 -3 -30 -3 -46 -3c-143 0 -279 70 -279 247v240h175v-240c0 -81 70 -106 150 -91v331h174z" />
    <glyph glyph-name="afii10042" unicode="&#x428;" horiz-adv-x="891" 
d="M17 700h176v-543h127v543h175v-543h126v543h176v-700h-780v700z" />
    <glyph glyph-name="afii10043" unicode="&#x429;" horiz-adv-x="932" 
d="M19 700h175v-544h125v544h176v-544h127v544h176v-544h54v-283h-164v127h-669v700z" />
    <glyph glyph-name="afii10044" unicode="&#x42a;" horiz-adv-x="673" 
d="M2 537v163h256v-219h97c162 0 243 -111 243 -235c0 -123 -81 -246 -243 -246h-268v537h-85zM355 329h-97v-167h97c49 0 74 44 74 85c0 40 -25 82 -74 82z" />
    <glyph glyph-name="afii10045" unicode="&#x42b;" horiz-adv-x="806" 
d="M269 0h-269v700h172v-208h97c162 0 243 -122 243 -246c0 -123 -81 -246 -243 -246zM269 328h-97v-164h97c49 0 73 42 73 83c0 40 -24 81 -73 81zM554 0v700h172v-700h-172z" />
    <glyph glyph-name="afii10046" unicode="&#x42c;" horiz-adv-x="585" 
d="M275 0h-269v700h171v-208h98c161 0 243 -122 243 -246c0 -123 -82 -246 -243 -246zM275 328h-98v-164h98c49 0 73 42 73 83c0 40 -24 81 -73 81z" />
    <glyph glyph-name="afii10047" unicode="&#x42d;" horiz-adv-x="787" 
d="M257 279v146h275c-59 169 -317 164 -363 -16h-173c22 180 177 302 357 302c200 0 362 -156 362 -362s-162 -359 -362 -359c-182 0 -332 121 -358 304h173c44 -185 311 -191 367 -15h-278z" />
    <glyph glyph-name="afii10048" unicode="&#x42e;" horiz-adv-x="1012" 
d="M581 708c207 0 359 -169 359 -358c0 -199 -163 -358 -359 -358c-173 0 -308 122 -346 279h-65v-271h-170v700h170v-264h66c44 160 181 272 345 272zM768 350c0 105 -86 192 -187 192c-105 0 -187 -93 -187 -192c0 -105 81 -194 187 -192c107 2 187 92 187 192z" />
    <glyph glyph-name="bgQ" unicode="&#x42f;" horiz-adv-x="600" 
d="M359 237h-28l-146 -237h-182v32l150 222c-215 103 -174 446 104 446h272v-700h-170v237zM359 392v144h-98c-104 0 -103 -144 0 -144h98z" />
    <glyph glyph-name="afii10051" unicode="&#x402;" horiz-adv-x="731" 
d="M347 0h-171v540h-189v160h548v-160h-188v-57c142 35 307 -47 307 -221v-42c1 -159 -76 -221 -279 -221v144c70 0 108 23 108 77v43c0 75 -88 92 -136 67v-330z" />
    <glyph glyph-name="afii10058" unicode="&#x409;" horiz-adv-x="931" 
d="M612 0h-249v401l-185 -401h-189l328 700h218v-239h77c160 0 239 -115 239 -230s-80 -231 -239 -231zM612 296h-77v-132h77c44 0 67 33 67 66s-23 66 -67 66z" />
    <glyph glyph-name="afii10059" unicode="&#x40a;" horiz-adv-x="902" 
d="M585 0h-249v296h-148v-296h-170v700h170v-239h148v239h172v-239h77c159 0 239 -115 239 -230s-80 -231 -239 -231zM585 296h-77v-132h77c44 0 67 33 67 66s-23 66 -67 66z" />
    <glyph glyph-name="dieresistonos" unicode="&#x385;" horiz-adv-x="670" 
d="M28 750c0 52 43 80 84 80s83 -26 83 -80c0 -53 -42 -79 -84 -79s-83 25 -83 79zM417 750c0 52 43 80 84 80s83 -26 83 -80c0 -53 -43 -79 -84 -79c-42 0 -83 25 -83 79zM421 816v11h-163l-54 -136v-23h129z" />
    <glyph glyph-name="tonos" unicode="&#x384;" horiz-adv-x="361" 
d="M290 798v-11l-119 -141h-129v23l67 129h181z" />
    <glyph glyph-name="Alpha" unicode="&#x391;" horiz-adv-x="734" 
d="M485 0l-39 103h-239l-39 -103h-183l280 708h122l291 -708h-193zM327 426l-52 -148l-6 -16h116l-4 12z" />
    <glyph glyph-name="Beta" unicode="&#x392;" horiz-adv-x="620" 
d="M169 545v-98h129c59 0 57 98 2 98h-131zM0 700h324c170 0 252 -221 118 -316c74 -38 104 -103 104 -162c0 -113 -77 -222 -224 -222h-322v700zM169 289v-127h153c72 0 72 127 0 127h-153z" />
    <glyph glyph-name="Gamma" unicode="&#x393;" horiz-adv-x="547" 
d="M180 537v-537h-171v700h460v-163h-289z" />
    <glyph glyph-name="Zeta" unicode="&#x396;" horiz-adv-x="635" 
d="M546 700v-125l-295 -417h299v-158h-525v120l302 423h-302v157h521z" />
    <glyph glyph-name="Eta" unicode="&#x397;" horiz-adv-x="606" 
d="M171 700v-264h184v264h171v-700h-171v271h-184v-271h-171v700h171z" />
    <glyph glyph-name="Theta" unicode="&#x398;" horiz-adv-x="792" 
d="M-5 349c0 206 162 362 362 362s363 -156 363 -362c0 -203 -163 -359 -363 -359s-362 153 -362 359zM165 349c0 -264 383 -262 383 0c0 264 -383 265 -383 0zM218 278v139h280v-139h-280z" />
    <glyph glyph-name="Iota" unicode="&#x399;" horiz-adv-x="483" 
d="M406 700v-156h-116v-391h116v-153h-403v153h116v391h-116v156h403z" />
    <glyph glyph-name="Kappa" unicode="&#x39a;" horiz-adv-x="651" 
d="M568 700v-10l-248 -338l271 -343v-9h-212l-208 271v-271h-171v700h171v-272l194 272h203z" />
    <glyph glyph-name="Lambda" unicode="&#x39b;" horiz-adv-x="734" 
d="M485 0l-104 274l-54 152l-52 -148l-107 -278h-183l280 708h122l291 -708h-193z" />
    <glyph glyph-name="Mu" unicode="&#x39c;" horiz-adv-x="718" 
d="M171 348v-348h-171v700h136l184 -271l184 271h134v-700h-170v346l-101 -149h-95z" />
    <glyph glyph-name="Nu" unicode="&#x39d;" horiz-adv-x="623" 
d="M170 0h-170v700h132l242 -350v350h169v-700h-134l-239 341v-341z" />
    <glyph glyph-name="Omicron" unicode="&#x39f;" horiz-adv-x="792" 
d="M-5 349c0 206 162 362 362 362s363 -156 363 -362c0 -203 -163 -359 -363 -359s-362 153 -362 359zM165 349c0 -264 383 -262 383 0c0 264 -383 265 -383 0z" />
    <glyph glyph-name="Pi" unicode="&#x3a0;" horiz-adv-x="606" 
d="M0 700h526v-700h-171v535h-184v-535h-171v700z" />
    <glyph glyph-name="Rho" unicode="&#x3a1;" horiz-adv-x="584" 
d="M0 700h268c328 0 327 -492 0 -492h-97v-208h-171v700zM171 369h97c106 0 106 165 0 165h-97v-165z" />
    <glyph glyph-name="Tau" unicode="&#x3a4;" horiz-adv-x="624" 
d="M357 0h-171v540h-189v160h548v-160h-188v-540z" />
    <glyph glyph-name="Upsilon" unicode="&#x3a5;" horiz-adv-x="723" 
d="M658 700v-18l-251 -399v-283h-171v282l-251 402v16h188l70 -112l79 -143l83 152l64 103h189z" />
    <glyph glyph-name="Chi" unicode="&#x3a7;" horiz-adv-x="697" 
d="M627 700v-16l-224 -329l225 -341v-14h-184l-138 213l-136 -213h-184v14l224 341l-221 325v20h180l137 -199l139 199h182z" />
    <glyph glyph-name="Iotadieresis" unicode="&#x3aa;" horiz-adv-x="483" 
d="M17 816c0 52 43 80 84 80s83 -26 83 -80c0 -53 -42 -79 -84 -79s-83 25 -83 79zM243 816c0 52 43 80 84 80s83 -26 83 -80c0 -53 -43 -79 -84 -79c-42 0 -83 25 -83 79zM406 544v156h-403v-156h116v-391h-116v-153h403v153h-116v391h116z" />
    <glyph glyph-name="omicrontonos" unicode="&#x3cc;" horiz-adv-x="792" 
d="M-5 349c0 206 162 362 362 362s363 -156 363 -362c0 -203 -163 -359 -363 -359s-362 153 -362 359zM165 349c0 -264 383 -262 383 0c0 264 -383 265 -383 0zM526 883v-11l-115 -123h-129v23l63 111h181z" />
    <glyph glyph-name="upsilontonos" unicode="&#x3cd;" horiz-adv-x="723" 
d="M493 883v-11l-115 -123h-129v23l63 111h181zM658 700v-18l-251 -399v-283h-171v282l-251 402v16h188l70 -112l79 -143l83 152l64 103h189z" />
    <glyph glyph-name="omegatonos" unicode="&#x3ce;" horiz-adv-x="826" 
d="M550 883v-11l-115 -123h-129v23l63 111h181zM373 550c-110 0 -187 -85 -187 -195c0 -105 56 -180 165 -224l-33 -131h-322v154h112c-60 48 -94 129 -94 201c0 210 149 355 359 355c213 0 359 -152 359 -355c0 -70 -27 -156 -91 -202h110v-153h-319l-25 132
c106 49 154 116 154 223c0 109 -77 195 -188 195z" />
    <glyph glyph-name="Delta" unicode="&#x394;" horiz-adv-x="734" 
d="M678 0h-693l280 708h122zM275 278l-48 -123h199l-45 119l-54 152z" />
    <glyph glyph-name="Xi" unicode="&#x39e;" horiz-adv-x="550" 
d="M472 536h-470v164h470v-164zM2 163h470v-163h-470v163zM455 269h-441v162h441v-162z" />
    <glyph glyph-name="Sigma" unicode="&#x3a3;" horiz-adv-x="627" 
d="M363 390v-50l-141 -186h312v-154h-483l-63 87l192 277l-185 235l51 101h485v-156h-295z" />
    <glyph glyph-name="Phi" unicode="&#x3a6;" horiz-adv-x="776" 
d="M268 640v63h171v-62c176 -23 266 -154 266 -288c0 -135 -92 -266 -266 -291v-62h-171v62c-177 24 -267 154 -267 289s91 264 267 289zM437 488v-272c65 19 97 69 97 134c0 68 -24 122 -97 138zM172 352c0 -66 29 -119 98 -136v273c-68 -20 -98 -72 -98 -137z" />
    <glyph glyph-name="Psi" unicode="&#x3a8;" horiz-adv-x="763" 
d="M259 294v406h171v-409c67 0 83 65 83 130v279h173v-279c0 -141 -74 -292 -256 -292v-129h-171v129c-183 0 -255 152 -255 291v280h171v-279c0 -61 21 -127 84 -127z" />
    <glyph glyph-name="Omega" unicode="&#x3a9;" horiz-adv-x="826" 
d="M373 550c-110 0 -187 -85 -187 -195c0 -105 56 -180 165 -224l-33 -131h-322v154h112c-60 48 -94 129 -94 201c0 210 149 355 359 355c213 0 359 -152 359 -355c0 -70 -27 -156 -91 -202h110v-153h-319l-25 132c106 49 154 116 154 223c0 109 -77 195 -188 195z" />
    <glyph glyph-name="upsilondieresis" unicode="&#x3cb;" horiz-adv-x="723" 
d="M212 897c52 0 87 -34 87 -84c0 -41 -35 -83 -87 -83c-47 0 -85 42 -85 83c0 50 38 84 85 84zM429 897c52 0 87 -34 87 -84c0 -41 -35 -83 -87 -83c-47 0 -85 42 -85 83c0 50 38 84 85 84zM658 682v18h-189l-64 -103l-83 -152l-79 143l-70 112h-188v-16l251 -402v-282h171
v283z" />
    <glyph glyph-name="iotadieresis" unicode="&#x3ca;" horiz-adv-x="483" 
d="M99 900c52 0 87 -34 87 -84c0 -41 -35 -83 -87 -83c-47 0 -85 42 -85 83c0 50 38 84 85 84zM324 900c52 0 87 -34 87 -84c0 -41 -35 -83 -87 -83c-47 0 -85 42 -85 83c0 50 38 84 85 84zM406 544v156h-403v-156h116v-391h-116v-153h403v153h-116v391h116z" />
    <glyph glyph-name="upsilondieresistonos" unicode="&#x3b0;" horiz-adv-x="723" 
d="M62 816c0 52 43 80 84 80s83 -26 83 -80c0 -53 -42 -79 -84 -79s-83 25 -83 79zM451 816c0 52 43 80 84 80s83 -26 83 -80c0 -53 -43 -79 -84 -79c-42 0 -83 25 -83 79zM455 882v11h-163l-54 -136v-23h129zM658 682v18h-189l-64 -103l-83 -152l-79 143l-70 112h-188v-16
l251 -402v-282h171v283z" />
    <glyph glyph-name="Alphatonos" unicode="&#x386;" horiz-adv-x="743" 
d="M217 689v11h-163l-54 -146v-23h129zM494 0l-39 103h-239l-39 -103h-183l280 708h122l291 -708h-193zM336 426l-52 -148l-6 -16h116l-4 12z" />
    <glyph glyph-name="Epsilontonos" unicode="&#x388;" horiz-adv-x="767" 
d="M208 700v-11l-88 -158h-129v23l54 146h163zM401 267v-102h290v-165h-462v700h461v-165h-289v-102h283v-166h-283z" />
    <glyph glyph-name="Etatonos" unicode="&#x389;" horiz-adv-x="828" 
d="M207 700v-11l-88 -158h-129v23l54 146h163zM393 700v-264h184v264h171v-700h-171v271h-184v-271h-171v700h171z" />
    <glyph glyph-name="Iotatonos" unicode="&#x38a;" horiz-adv-x="709" 
d="M212 700v-11l-88 -158h-129v23l54 146h163zM632 700v-156h-116v-391h116v-153h-403v153h116v391h-116v156h403z" />
    <glyph glyph-name="Omicrontonos" unicode="&#x38c;" horiz-adv-x="914" 
d="M212 689v11h-163l-54 -146v-23h129zM117 349c0 206 162 362 362 362s363 -156 363 -362c0 -203 -163 -359 -363 -359s-362 153 -362 359zM287 349c0 -264 383 -262 383 0c0 264 -383 265 -383 0z" />
    <glyph glyph-name="Upsilontonos" unicode="&#x38e;" horiz-adv-x="959" 
d="M207 700v-11l-88 -158h-129v23l54 146h163zM894 700v-18l-251 -399v-283h-171v282l-251 402v16h188l70 -112l79 -143l83 152l64 103h189z" />
    <glyph glyph-name="Omegatonos" unicode="&#x38f;" horiz-adv-x="936" 
d="M210 700v-11l-88 -158h-129v23l54 146h163zM483 550c-110 0 -187 -85 -187 -195c0 -105 56 -180 165 -224l-33 -131h-322v154h112c-60 48 -94 129 -94 201c0 210 149 355 359 355c213 0 359 -152 359 -355c0 -70 -27 -156 -91 -202h110v-153h-319l-25 132
c106 49 154 116 154 223c0 109 -77 195 -188 195z" />
    <glyph glyph-name="iotadieresistonos" unicode="&#x390;" horiz-adv-x="483" 
d="M-42 816c0 52 43 80 84 80s83 -26 83 -80c0 -53 -42 -79 -84 -79s-83 25 -83 79zM336 816c0 52 43 80 84 80s83 -26 83 -80c0 -53 -43 -79 -84 -79c-42 0 -83 25 -83 79zM340 882v11h-152l-54 -136v-23h118zM406 544v156h-403v-156h116v-391h-116v-153h403v153h-116v391
h116z" />
    <glyph glyph-name="grave" unicode="`" horiz-adv-x="333" 
d="M2 694v11h181l63 -111v-23h-129z" />
    <glyph glyph-name="question" unicode="?" horiz-adv-x="571" 
d="M152 479h-154c0 167 122 235 242 235c168 0 261 -94 261 -227c0 -170 -176 -142 -176 -236v-75h-169v83c0 98 64 131 127 163c20 11 46 26 46 56c0 100 -177 97 -177 1zM151 70c0 109 183 111 183 0c0 -106 -183 -109 -183 0z" />
    <glyph glyph-name="dollar" unicode="$" horiz-adv-x="606" 
d="M206 705v64h121v-65c104 -19 199 -90 199 -225h-172c0 24 -10 42 -27 54v-106c88 -16 180 -51 206 -157c3 -16 5 -34 5 -49c0 -123 -100 -202 -211 -223v-61h-121v60c-103 19 -212 92 -212 242h173c0 -38 17 -58 39 -70v105c-99 16 -196 54 -207 191v-1
c-7 132 86 219 207 241zM368 213c0 27 -20 42 -44 50v-104c27 10 44 28 44 54zM170 490c0 -25 16 -39 37 -47v101c-23 -11 -37 -30 -37 -54z" />
    <glyph glyph-name="exclam" unicode="!" horiz-adv-x="278" 
d="M35 700h167v-508h-167v508zM117 172c54 0 93 -36 93 -89c0 -44 -39 -89 -93 -89c-50 0 -90 45 -90 89c0 53 40 89 90 89z" />
    <glyph glyph-name="quotedbl" unicode="&#x22;" horiz-adv-x="444" 
d="M31 704h142v-285h-142v285zM217 704h142v-285h-142v285z" />
    <glyph glyph-name="comma" unicode="," horiz-adv-x="285" 
d="M215 118v-48l-101 -182h-150l91 230h160z" />
    <glyph glyph-name="period" unicode="." horiz-adv-x="241" 
d="M86 175c54 0 93 -36 93 -89c0 -44 -39 -89 -93 -89c-50 0 -90 45 -90 89c0 53 40 89 90 89z" />
    <glyph glyph-name="zero" unicode="0" horiz-adv-x="636" 
d="M282 541c-73 0 -109 -75 -109 -196c0 -108 36 -194 109 -194c75 0 111 86 111 194c0 121 -36 196 -111 196zM282 -14c-188 0 -282 168 -282 359c0 197 94 363 282 363s284 -166 284 -363c0 -191 -96 -359 -284 -359z" />
    <glyph glyph-name="one" unicode="1" horiz-adv-x="394" 
d="M315 0h-163v404l-58 -56l-115 114l223 243h113v-705z" />
    <glyph glyph-name="two" unicode="2" horiz-adv-x="595" 
d="M172 442h-167c0 152 98 269 255 269c189 0 262 -118 262 -240c0 -72 -38 -145 -106 -201l-140 -110h243v-160h-513v123l294 268c30 27 50 56 50 83c0 38 -31 73 -90 73c-47 0 -88 -42 -88 -105z" />
    <glyph glyph-name="three" unicode="3" horiz-adv-x="573" 
d="M-4 232h155c0 -115 192 -97 192 -13c0 28 -21 66 -74 66h-104v145h104c32 0 54 29 54 56c0 41 -40 62 -82 63c-45 1 -91 -22 -91 -73h-148c0 158 125 234 249 233c120 -1 238 -75 238 -218c0 -45 -15 -101 -68 -128c70 -36 90 -95 89 -154c-1 -108 -92 -220 -269 -220
c-170 0 -245 115 -245 243z" />
    <glyph glyph-name="four" unicode="4" horiz-adv-x="591" 
d="M-2 255l349 449h128v-404h50v-158h-50v-142h-168v142h-309v113zM209 301h101v127z" />
    <glyph glyph-name="five" unicode="5" horiz-adv-x="567" 
d="M-4 207l152 25c15 -106 189 -96 187 9c0 65 -61 92 -116 92c-34 0 -75 -15 -123 -43l-90 40v379h460v-154h-300v-92c32 9 63 14 94 14c130 -1 240 -86 240 -235c0 -122 -86 -251 -258 -251c-118 0 -241 61 -246 216z" />
    <glyph glyph-name="six" unicode="6" horiz-adv-x="590" 
d="M162 240c0 -116 191 -119 191 0c0 117 -191 118 -191 0zM54 405l209 295h204l-169 -238c146 1 223 -105 223 -222c0 -124 -88 -248 -263 -248s-264 97 -264 248c0 50 17 101 60 165z" />
    <glyph glyph-name="seven" unicode="7" horiz-adv-x="581" 
d="M-4 706h521v-103l-327 -603h-186l297 549h-305v157z" />
    <glyph glyph-name="eight" unicode="8" horiz-adv-x="585" 
d="M164 215c0 -53 49 -79 98 -78c47 1 94 28 94 78c0 49 -45 74 -91 75c-50 1 -101 -24 -101 -75zM336 506c0 42 -39 63 -77 62c-37 -1 -74 -22 -74 -63c0 -43 37 -65 74 -65c38 0 77 21 77 66zM499 502c0 -40 -26 -108 -77 -132c79 -37 104 -101 104 -155
c0 -153 -134 -229 -267 -229c-132 0 -264 76 -264 229c0 53 30 124 102 153c-67 29 -77 105 -77 135c1 145 123 215 243 214c119 -1 236 -73 236 -215z" />
    <glyph glyph-name="nine" unicode="9" horiz-adv-x="586" 
d="M352 465c0 56 -44 86 -90 88c-49 3 -101 -26 -101 -88c0 -61 51 -90 101 -88c46 2 90 31 90 88zM460 300l-209 -300h-204l169 243c-146 -1 -223 105 -223 222c0 124 88 248 263 248s264 -97 264 -248c0 -50 -17 -101 -60 -165z" />
    <glyph glyph-name="colon" unicode=":" horiz-adv-x="240" 
d="M83 168c53 0 90 -34 90 -86c0 -42 -37 -85 -90 -85c-48 0 -86 43 -86 85c0 52 38 86 86 86zM83 502c53 0 90 -35 90 -86c0 -43 -37 -85 -90 -85c-48 0 -86 42 -86 85c0 51 38 86 86 86z" />
    <glyph glyph-name="semicolon" unicode=";" horiz-adv-x="277" 
d="M106 502c53 0 90 -35 90 -86c0 -43 -37 -85 -90 -85c-48 0 -86 42 -86 85c0 51 38 86 86 86zM205 70v48h-160l-83 -230h142z" />
    <glyph glyph-name="quotedblbase" unicode="&#x201e;" horiz-adv-x="501" 
d="M215 118v-48l-101 -182h-150l91 230h160zM427 118v-48l-101 -182h-150l91 230h160z" />
    <glyph glyph-name="ellipsis" unicode="&#x2026;" horiz-adv-x="676" 
d="M92 175c54 0 92 -36 92 -89c0 -44 -38 -89 -92 -89c-50 0 -90 45 -90 89c0 53 40 89 90 89zM297 175c54 0 93 -36 93 -89c0 -44 -39 -89 -93 -89c-50 0 -90 45 -90 89c0 53 40 89 90 89zM505 175c54 0 93 -36 93 -89c0 -44 -39 -89 -93 -89c-50 0 -90 45 -90 89
c0 53 40 89 90 89z" />
    <glyph glyph-name="circumflex" unicode="&#x2c6;" horiz-adv-x="477" 
d="M155 751h118l138 -126v-14h-156l-44 40l-42 -40h-158v11z" />
    <glyph glyph-name="OE" unicode="&#x152;" horiz-adv-x="924" 
d="M552 267v-102h292v-165h-403c-25 -5 -52 -8 -78 -8c-216 -1 -359 135 -359 358c0 214 155 359 359 358c30 0 57 -2 83 -9h397v-165h-291v-101h285v-166h-285zM176 350c0 -150 97 -218 218 -200v402c-134 22 -218 -83 -218 -202z" />
    <glyph glyph-name="cent" unicode="&#xa2;" horiz-adv-x="785" 
d="M282 -75v72c-165 32 -288 172 -288 352s123 322 288 355v66h155v-68c143 -30 257 -141 276 -293h-173c-16 61 -55 101 -103 122v-363c49 21 89 63 104 126h173c-22 -155 -133 -266 -277 -295v-74h-155zM164 349c0 -98 52 -160 118 -185v370c-66 -26 -118 -87 -118 -185z
" />
    <glyph glyph-name="yen" unicode="&#xa5;" horiz-adv-x="722" 
d="M111 93v128h125v21h-125v132h67l-193 310v16h188l70 -112l79 -150l83 159l64 103h189v-18l-194 -308h66v-132h-123v-21h123v-128h-123v-93h-171v93h-125z" />
    <glyph glyph-name="AE" unicode="&#xc6;" horiz-adv-x="954" 
d="M-3 24l371 685h510v-161h-289v-127h283v-156h-283v-105h291v-160h-463v119h-176l-65 -119h-179v24zM327 279h90v200z" />
    <glyph glyph-name="Thorn" unicode="&#xde;" horiz-adv-x="581" 
d="M3 0v700h171v-105h98c161 0 243 -124 243 -247s-82 -245 -243 -245h-98v-103h-171zM174 262h98c105 0 106 171 0 171h-98v-171z" />
    <glyph glyph-name="zeroinferior" unicode="&#x2080;" horiz-adv-x="636" 
d="M282 541c-73 0 -109 -75 -109 -196c0 -108 36 -194 109 -194c75 0 111 86 111 194c0 121 -36 196 -111 196zM282 -14c-188 0 -282 168 -282 359c0 197 94 363 282 363s284 -166 284 -363c0 -191 -96 -359 -284 -359z" />
    <glyph glyph-name="oneinferior" unicode="&#x2081;" horiz-adv-x="394" 
d="M315 0h-163v404l-58 -56l-115 114l223 243h113v-705z" />
    <glyph glyph-name="twoinferior" unicode="&#x2082;" horiz-adv-x="595" 
d="M172 442h-167c0 152 98 269 255 269c189 0 262 -118 262 -240c0 -72 -38 -145 -106 -201l-140 -110h243v-160h-513v123l294 268c30 27 50 56 50 83c0 38 -31 73 -90 73c-47 0 -88 -42 -88 -105z" />
    <glyph glyph-name="threeinferior" unicode="&#x2083;" horiz-adv-x="573" 
d="M-4 232h155c0 -115 192 -97 192 -13c0 28 -21 66 -74 66h-104v145h104c32 0 54 29 54 56c0 84 -173 88 -173 -10h-148c0 311 487 306 487 15c0 -45 -15 -101 -68 -128c70 -36 90 -95 89 -154c-1 -108 -92 -220 -269 -220c-170 0 -245 115 -245 243z" />
    <glyph glyph-name="fourinferior" unicode="&#x2084;" horiz-adv-x="591" 
d="M-2 255l349 449h128v-404h50v-158h-50v-142h-168v142h-309v113zM209 301h101v127z" />
    <glyph glyph-name="fiveinferior" unicode="&#x2085;" horiz-adv-x="567" 
d="M-4 207l152 25c15 -106 189 -96 187 9c0 65 -61 92 -116 92c-34 0 -75 -15 -123 -43l-90 40v371h460v-154h-300v-84c167 49 334 -37 334 -221c0 -122 -86 -251 -258 -251c-118 0 -241 61 -246 216z" />
    <glyph glyph-name="sixinferior" unicode="&#x2086;" horiz-adv-x="590" 
d="M162 240c0 -116 191 -119 191 0c0 117 -191 118 -191 0zM54 405l209 295h204l-169 -238c146 1 223 -105 223 -222c0 -124 -88 -248 -263 -248s-264 97 -264 248c0 50 17 101 60 165z" />
    <glyph glyph-name="seveninferior" unicode="&#x2087;" horiz-adv-x="581" 
d="M-4 700h521v-103l-327 -597h-186l297 543h-305v157z" />
    <glyph glyph-name="eightinferior" unicode="&#x2088;" horiz-adv-x="585" 
d="M164 215c0 -105 192 -102 192 0s-192 98 -192 0zM336 506c0 82 -151 83 -151 -1c0 -87 151 -88 151 1zM499 502c0 -40 -26 -108 -77 -132c79 -37 104 -101 104 -155c0 -304 -531 -307 -531 0c0 53 30 124 102 153c-67 29 -77 105 -77 135c2 287 479 285 479 -1z" />
    <glyph glyph-name="nineinferior" unicode="&#x2089;" horiz-adv-x="586" 
d="M352 465c0 116 -191 119 -191 0c0 -117 191 -118 191 0zM460 300l-209 -300h-204l169 243c-146 -1 -223 105 -223 222c0 124 88 248 263 248s264 -97 264 -248c0 -50 -17 -101 -60 -165z" />
    <glyph glyph-name="foursuperior" unicode="&#x2074;" horiz-adv-x="591" 
d="M-2 255l349 449h128v-404h50v-158h-50v-142h-168v142h-309v113zM209 301h101v127z" />
    <glyph glyph-name="fivesuperior" unicode="&#x2075;" horiz-adv-x="567" 
d="M-4 207l152 25c15 -106 189 -96 187 9c0 65 -61 92 -116 92c-34 0 -75 -15 -123 -43l-90 40v371h460v-154h-300v-84c167 49 334 -37 334 -221c0 -122 -86 -251 -258 -251c-118 0 -241 61 -246 216z" />
    <glyph glyph-name="sixsuperior" unicode="&#x2076;" horiz-adv-x="590" 
d="M162 240c0 -116 191 -119 191 0c0 117 -191 118 -191 0zM54 405l209 295h204l-169 -238c146 1 223 -105 223 -222c0 -124 -88 -248 -263 -248s-264 97 -264 248c0 50 17 101 60 165z" />
    <glyph glyph-name="sevensuperior" unicode="&#x2077;" horiz-adv-x="581" 
d="M-4 700h521v-103l-327 -597h-186l297 543h-305v157z" />
    <glyph glyph-name="eightsuperior" unicode="&#x2078;" horiz-adv-x="585" 
d="M164 215c0 -105 192 -102 192 0s-192 98 -192 0zM336 506c0 82 -151 83 -151 -1c0 -87 151 -88 151 1zM499 502c0 -40 -26 -108 -77 -132c79 -37 104 -101 104 -155c0 -304 -531 -307 -531 0c0 53 30 124 102 153c-67 29 -77 105 -77 135c2 287 479 285 479 -1z" />
    <glyph glyph-name="ninesuperior" unicode="&#x2079;" horiz-adv-x="586" 
d="M352 465c0 116 -191 119 -191 0c0 -117 191 -118 191 0zM460 300l-209 -300h-204l169 243c-146 -1 -223 105 -223 222c0 124 88 248 263 248s264 -97 264 -248c0 -50 -17 -101 -60 -165z" />
    <glyph glyph-name="zerosuperior" unicode="&#x2070;" horiz-adv-x="636" 
d="M282 541c-73 0 -109 -75 -109 -196c0 -108 36 -194 109 -194c75 0 111 86 111 194c0 121 -36 196 -111 196zM282 -14c-188 0 -282 168 -282 359c0 197 94 363 282 363s284 -166 284 -363c0 -191 -96 -359 -284 -359z" />
    <glyph glyph-name="alpha" unicode="&#x3b1;" horiz-adv-x="734" 
d="M485 0l-39 103h-239l-39 -103h-183l280 708h122l291 -708h-193zM327 426l-52 -148l-6 -16h116l-4 12z" />
    <glyph glyph-name="beta" unicode="&#x3b2;" horiz-adv-x="620" 
d="M169 545v-98h129c59 0 57 98 2 98h-131zM0 700h324c170 0 252 -221 118 -316c74 -38 104 -103 104 -162c0 -113 -77 -222 -224 -222h-322v700zM169 289v-127h153c72 0 72 127 0 127h-153z" />
    <glyph glyph-name="gamma" unicode="&#x3b3;" horiz-adv-x="547" 
d="M180 537v-537h-171v700h460v-163h-289z" />
    <glyph glyph-name="delta" unicode="&#x3b4;" horiz-adv-x="734" 
d="M678 0h-693l280 708h122zM275 278l-48 -123h199l-45 119l-54 152z" />
    <glyph glyph-name="epsilon" unicode="&#x3b5;" horiz-adv-x="538" 
d="M172 267v-102h290v-165h-462v700h461v-165h-289v-102h283v-166h-283z" />
    <glyph glyph-name="zeta" unicode="&#x3b6;" horiz-adv-x="635" 
d="M546 700v-125l-295 -417h299v-158h-525v120l302 423h-302v157h521z" />
    <glyph glyph-name="eta" unicode="&#x3b7;" horiz-adv-x="606" 
d="M171 700v-264h184v264h171v-700h-171v271h-184v-271h-171v700h171z" />
    <glyph glyph-name="theta" unicode="&#x3b8;" horiz-adv-x="792" 
d="M-5 349c0 206 162 362 362 362s363 -156 363 -362c0 -203 -163 -359 -363 -359s-362 153 -362 359zM165 349c0 -264 383 -262 383 0c0 264 -383 265 -383 0zM218 278v139h280v-139h-280z" />
    <glyph glyph-name="iota" unicode="&#x3b9;" horiz-adv-x="483" 
d="M406 700v-156h-116v-391h116v-153h-403v153h116v391h-116v156h403z" />
    <glyph glyph-name="kappa" unicode="&#x3ba;" horiz-adv-x="651" 
d="M568 700v-10l-248 -338l271 -343v-9h-212l-208 271v-271h-171v700h171v-272l194 272h203z" />
    <glyph glyph-name="lambda" unicode="&#x3bb;" horiz-adv-x="734" 
d="M485 0l-104 274l-54 152l-52 -148l-107 -278h-183l280 708h122l291 -708h-193z" />
    <glyph glyph-name="mu" unicode="&#x3bc;" horiz-adv-x="718" 
d="M171 348v-348h-171v700h136l184 -271l184 271h134v-700h-170v346l-101 -149h-95z" />
    <glyph glyph-name="nu" unicode="&#x3bd;" horiz-adv-x="623" 
d="M170 0h-170v700h132l242 -350v350h169v-700h-134l-239 341v-341z" />
    <glyph glyph-name="xi" unicode="&#x3be;" horiz-adv-x="550" 
d="M472 536h-470v164h470v-164zM2 163h470v-163h-470v163zM455 269h-441v162h441v-162z" />
    <glyph glyph-name="omicron" unicode="&#x3bf;" horiz-adv-x="792" 
d="M-5 349c0 206 162 362 362 362s363 -156 363 -362c0 -203 -163 -359 -363 -359s-362 153 -362 359zM165 349c0 -264 383 -262 383 0c0 264 -383 265 -383 0z" />
    <glyph glyph-name="pi" unicode="&#x3c0;" horiz-adv-x="606" 
d="M0 700h526v-700h-171v535h-184v-535h-171v700z" />
    <glyph glyph-name="rho" unicode="&#x3c1;" horiz-adv-x="584" 
d="M0 700h268c328 0 327 -492 0 -492h-97v-208h-171v700zM171 369h97c106 0 106 165 0 165h-97v-165z" />
    <glyph glyph-name="sigma1" unicode="&#x3c2;" horiz-adv-x="785" 
d="M164 349c0 -245 328 -262 377 -55h173c-26 -183 -176 -304 -358 -304c-200 0 -362 153 -362 359s162 362 362 362c180 0 335 -122 357 -302h-173c-52 204 -376 184 -376 -60z" />
    <glyph glyph-name="sigma" unicode="&#x3c3;" horiz-adv-x="627" 
d="M363 390v-50l-141 -186h312v-154h-483l-63 87l192 277l-185 235l51 101h485v-156h-295z" />
    <glyph glyph-name="tau" unicode="&#x3c4;" horiz-adv-x="624" 
d="M357 0h-171v540h-189v160h548v-160h-188v-540z" />
    <glyph glyph-name="upsilon" unicode="&#x3c5;" horiz-adv-x="723" 
d="M658 700v-18l-251 -399v-283h-171v282l-251 402v16h188l70 -112l79 -143l83 152l64 103h189z" />
    <glyph glyph-name="phi" unicode="&#x3c6;" horiz-adv-x="776" 
d="M268 640v63h171v-62c176 -23 266 -154 266 -288c0 -135 -92 -266 -266 -291v-62h-171v62c-177 24 -267 154 -267 289s91 264 267 289zM437 488v-272c65 19 97 69 97 134c0 68 -24 122 -97 138zM172 352c0 -66 29 -119 98 -136v273c-68 -20 -98 -72 -98 -137z" />
    <glyph glyph-name="chi" unicode="&#x3c7;" horiz-adv-x="697" 
d="M627 700v-16l-224 -329l225 -341v-14h-184l-138 213l-136 -213h-184v14l224 341l-221 325v20h180l137 -199l139 199h182z" />
    <glyph glyph-name="psi" unicode="&#x3c8;" horiz-adv-x="763" 
d="M259 294v406h171v-409c67 0 83 65 83 130v279h173v-279c0 -141 -74 -292 -256 -292v-129h-171v129c-183 0 -255 152 -255 291v280h171v-279c0 -61 21 -127 84 -127z" />
    <glyph glyph-name="omega" unicode="&#x3c9;" horiz-adv-x="826" 
d="M373 550c-110 0 -187 -85 -187 -195c0 -105 56 -180 165 -224l-33 -131h-322v154h112c-60 48 -94 129 -94 201c0 210 149 355 359 355c213 0 359 -152 359 -355c0 -70 -27 -156 -91 -202h110v-153h-319l-25 132c106 49 154 116 154 223c0 109 -77 195 -188 195z" />
    <glyph glyph-name="Upsilondieresis" unicode="&#x3ab;" horiz-adv-x="723" 
d="M125 816c0 52 43 80 84 80s83 -26 83 -80c0 -53 -42 -79 -84 -79s-83 25 -83 79zM351 816c0 52 43 80 84 80s83 -26 83 -80c0 -53 -43 -79 -84 -79c-42 0 -83 25 -83 79zM658 682v18h-189l-64 -103l-83 -152l-79 143l-70 112h-188v-16l251 -402v-282h171v283z" />
    <glyph glyph-name="alphatonos" unicode="&#x3ac;" horiz-adv-x="744" 
d="M216 689v11h-163l-54 -146v-23h129zM495 0l-39 103h-239l-39 -103h-183l280 708h122l291 -708h-193zM337 426l-52 -148l-6 -16h116l-4 12z" />
    <glyph glyph-name="epsilontonos" unicode="&#x3ad;" horiz-adv-x="760" 
d="M206 700v-11l-88 -158h-129v23l54 146h163zM394 267v-102h290v-165h-462v700h461v-165h-289v-102h283v-166h-283z" />
    <glyph glyph-name="etatonos" unicode="&#x3ae;" horiz-adv-x="838" 
d="M210 700v-11l-88 -158h-129v23l54 146h163zM403 700v-264h184v264h171v-700h-171v271h-184v-271h-171v700h171z" />
    <glyph glyph-name="iotatonos" unicode="&#x3af;" horiz-adv-x="721" 
d="M226 700v-11l-88 -158h-129v23l54 146h163zM644 700v-156h-116v-391h116v-153h-403v153h116v391h-116v156h403z" />
    <glyph glyph-name="bga" unicode="&#x430;" horiz-adv-x="734" 
d="M485 0l-39 103h-239l-39 -103h-183l280 708h122l291 -708h-193zM327 426l-52 -148l-6 -16h116l-4 12z" />
    <glyph glyph-name="afii10066" unicode="&#x431;" horiz-adv-x="625" 
d="M507 700v-163h-325v-87h153c137 0 221 -104 221 -224c0 -113 -75 -226 -221 -226h-322v700h494zM182 290v-128h153c76 0 74 128 0 128h-153z" />
    <glyph glyph-name="afii10067" unicode="&#x432;" horiz-adv-x="620" 
d="M169 545v-98h129c59 0 57 98 2 98h-131zM0 700h324c170 0 252 -221 118 -316c74 -38 104 -99 104 -158c0 -113 -77 -226 -224 -226h-322v700zM169 289v-127h153c72 0 72 127 0 127h-153z" />
    <glyph glyph-name="afii10068" unicode="&#x433;" horiz-adv-x="541" 
d="M180 537v-537h-171v700h460v-163h-289z" />
    <glyph glyph-name="afii10069" unicode="&#x434;" horiz-adv-x="697" 
d="M574 160h51v-260h-161v100h-302v-100h-168v241l69 16c23 32 31 93 36 161l26 382h449v-540zM239 160h163v378h-121c-14 -260 -15 -325 -42 -378z" />
    <glyph glyph-name="afii10070" unicode="&#x435;" horiz-adv-x="538" 
d="M172 267v-102h290v-165h-462v700h461v-165h-289v-102h283v-166h-283z" />
    <glyph glyph-name="afii10072" unicode="&#x436;" horiz-adv-x="981" 
d="M7 690v10h199l161 -272v272h171v-272l161 272h199v-10l-217 -338l237 -343v-9h-205l-175 271v-271h-171v271l-175 -271h-205v9l237 343z" />
    <glyph glyph-name="afii10073" unicode="&#x437;" horiz-adv-x="594" 
d="M-2 234h158c0 -116 196 -98 196 -14c0 29 -22 67 -76 67h-106v144h106c33 0 55 31 55 58c0 85 -176 89 -176 -10h-151c0 313 497 308 497 15c0 -45 -16 -101 -70 -129c72 -36 92 -95 91 -155c-1 -108 -94 -221 -274 -221c-174 0 -250 116 -250 245z" />
    <glyph glyph-name="afii10074" unicode="&#x438;" horiz-adv-x="623" 
d="M545 0h-170v355l-259 -355h-114v700h169v-354l255 354h119v-700z" />
    <glyph glyph-name="afii10075" unicode="&#x439;" horiz-adv-x="623" 
d="M162 873h288v-140h-288v140zM545 0h-170v355l-259 -355h-114v700h169v-354l255 354h119v-700z" />
    <glyph glyph-name="afii10076" unicode="&#x43a;" horiz-adv-x="670" 
d="M587 700v-10l-248 -338l271 -343v-9h-212l-208 271v-271h-171v700h171v-272l194 272h203z" />
    <glyph glyph-name="afii10077" unicode="&#x43b;" horiz-adv-x="734" 
d="M485 0l-104 274l-54 152l-52 -148l-107 -278h-183l280 708h122l291 -708h-193z" />
    <glyph glyph-name="afii10078" unicode="&#x43c;" horiz-adv-x="718" 
d="M171 348v-348h-171v700h136l184 -271l184 271h134v-700h-170v346l-101 -149h-95z" />
    <glyph glyph-name="afii10079" unicode="&#x43d;" horiz-adv-x="606" 
d="M171 700v-264h184v264h171v-700h-171v271h-184v-271h-171v700h171z" />
    <glyph glyph-name="afii10080" unicode="&#x43e;" horiz-adv-x="792" 
d="M-5 349c0 206 162 362 362 362s363 -156 363 -362c0 -203 -163 -359 -363 -359s-362 153 -362 359zM165 349c0 -264 383 -262 383 0c0 264 -383 265 -383 0z" />
    <glyph glyph-name="afii10081" unicode="&#x43f;" horiz-adv-x="606" 
d="M0 700h526v-700h-171v535h-184v-535h-171v700z" />
    <glyph glyph-name="afii10082" unicode="&#x440;" horiz-adv-x="584" 
d="M0 700h268c328 0 327 -492 0 -492h-97v-208h-171v700zM171 369h97c106 0 106 165 0 165h-97v-165z" />
    <glyph glyph-name="afii10083" unicode="&#x441;" horiz-adv-x="785" 
d="M164 349c0 -245 328 -262 377 -55h173c-26 -183 -176 -304 -358 -304c-200 0 -362 153 -362 359s162 362 362 362c180 0 335 -122 357 -302h-173c-52 204 -376 184 -376 -60z" />
    <glyph glyph-name="afii10084" unicode="&#x442;" horiz-adv-x="624" 
d="M357 0h-171v540h-189v160h548v-160h-188v-540z" />
    <glyph glyph-name="afii10085" unicode="&#x443;" horiz-adv-x="667" 
d="M291 -1h-185l104 238l-225 463h190l71 -146l57 -136l49 134l64 148h190z" />
    <glyph glyph-name="afii10086" unicode="&#x444;" horiz-adv-x="776" 
d="M268 640v63h171v-62c176 -23 266 -154 266 -288c0 -135 -92 -266 -266 -291v-62h-171v62c-177 24 -267 154 -267 289s91 264 267 289zM437 488v-272c65 19 97 69 97 134c0 68 -24 122 -97 138zM172 352c0 -66 29 -119 98 -136v273c-68 -20 -98 -72 -98 -137z" />
    <glyph glyph-name="afii10087" unicode="&#x445;" horiz-adv-x="697" 
d="M627 700v-16l-224 -329l225 -341v-14h-184l-138 213l-136 -213h-184v14l224 341l-221 325v20h180l137 -199l139 199h182z" />
    <glyph glyph-name="afii10088" unicode="&#x446;" horiz-adv-x="653" 
d="M530 155h51v-282h-161v127h-409v700h172v-545h174v545h173v-545z" />
    <glyph glyph-name="afii10089" unicode="&#x447;" horiz-adv-x="592" 
d="M509 700v-700h-174v216c-16 -3 -30 -3 -46 -3c-143 0 -279 70 -279 247v240h175v-240c0 -81 70 -106 150 -91v331h174z" />
    <glyph glyph-name="afii10090" unicode="&#x448;" horiz-adv-x="891" 
d="M17 700h176v-543h127v543h175v-543h126v543h176v-700h-780v700z" />
    <glyph glyph-name="afii10091" unicode="&#x449;" horiz-adv-x="932" 
d="M19 700h175v-544h125v544h176v-544h127v544h176v-544h54v-283h-164v127h-669v700z" />
    <glyph glyph-name="afii10092" unicode="&#x44a;" horiz-adv-x="673" 
d="M2 537v163h256v-219h97c162 0 243 -111 243 -235c0 -123 -81 -246 -243 -246h-268v537h-85zM355 329h-97v-167h97c49 0 74 44 74 85c0 40 -25 82 -74 82z" />
    <glyph glyph-name="afii10093" unicode="&#x44b;" horiz-adv-x="806" 
d="M269 0h-269v700h172v-208h97c162 0 243 -122 243 -246c0 -123 -81 -246 -243 -246zM269 328h-97v-164h97c49 0 73 42 73 83c0 40 -24 81 -73 81zM554 0v700h172v-700h-172z" />
    <glyph glyph-name="afii10094" unicode="&#x44c;" horiz-adv-x="585" 
d="M275 0h-269v700h171v-208h98c161 0 243 -122 243 -246c0 -123 -82 -246 -243 -246zM275 328h-98v-164h98c49 0 73 42 73 83c0 40 -24 81 -73 81z" />
    <glyph glyph-name="afii10095" unicode="&#x44d;" horiz-adv-x="787" 
d="M257 279v146h275c-59 169 -317 164 -363 -16h-173c22 180 177 302 357 302c200 0 362 -156 362 -362s-162 -359 -362 -359c-182 0 -332 121 -358 304h173c44 -185 311 -191 367 -15h-278z" />
    <glyph glyph-name="afii10096" unicode="&#x44e;" horiz-adv-x="1012" 
d="M581 708c207 0 359 -169 359 -358c0 -199 -163 -358 -359 -358c-173 0 -308 122 -346 279h-65v-271h-170v700h170v-264h66c44 160 181 272 345 272zM768 350c0 105 -86 192 -187 192c-105 0 -187 -93 -187 -192c0 -105 81 -194 187 -192c107 2 187 92 187 192z" />
    <glyph glyph-name="bgq" unicode="&#x44f;" horiz-adv-x="600" 
d="M359 237h-28l-146 -237h-182v32l150 222c-215 103 -174 446 104 446h272v-700h-170v237zM359 392v144h-98c-104 0 -103 -144 0 -144h98z" />
    <glyph glyph-name="afii10100" unicode="&#x453;" horiz-adv-x="541" 
d="M394 878v-11l-115 -123h-129v23l63 111h181zM180 537v-537h-171v700h460v-163h-289z" />
    <glyph glyph-name="afii10099" unicode="&#x452;" horiz-adv-x="731" 
d="M347 0h-171v540h-189v160h548v-160h-188v-57c142 35 307 -47 307 -221v-42c1 -159 -76 -221 -279 -221v144c70 0 108 23 108 77v43c0 75 -88 92 -136 67v-330z" />
    <glyph glyph-name="afii10053" unicode="&#x404;" horiz-adv-x="790" 
d="M457 425v-146h-278c56 -176 323 -170 367 15h173c-26 -183 -176 -304 -358 -304c-200 0 -362 153 -362 359s162 362 362 362c180 0 335 -122 357 -302h-173c-46 180 -304 185 -363 16h275z" />
    <glyph glyph-name="afii10108" unicode="&#x45b;" horiz-adv-x="733" 
d="M635 0h-164v275c0 54 -49 74 -93 74c-14 0 -25 -2 -38 -9v-340h-164v519h-182v154h527v-154h-181v-26c17 4 31 5 47 5c122 0 248 -73 248 -223v-275z" />
    <glyph glyph-name="afii10106" unicode="&#x459;" horiz-adv-x="907" 
d="M573 0h-238v385l-179 -385h-181l315 673h209v-230h74c154 0 230 -110 230 -221c0 -110 -77 -222 -230 -222zM573 285h-74v-127h74c43 0 65 32 65 63c0 32 -22 64 -65 64z" />
    <glyph glyph-name="afii10107" unicode="&#x45a;" horiz-adv-x="902" 
d="M571 0h-239v285h-142v-285h-164v673h164v-230h142v230h165v-230h74c153 0 230 -110 230 -221c0 -110 -78 -222 -230 -222zM571 285h-74v-127h74c43 0 64 32 64 63c0 32 -21 64 -64 64z" />
    <glyph glyph-name="afii10109" unicode="&#x45c;" horiz-adv-x="651" 
d="M436 873v-11l-115 -123h-129v23l63 111h181zM568 700v-10l-248 -338l271 -343v-9h-212l-208 271v-271h-171v700h171v-272l194 272h203z" />
    <glyph glyph-name="afii10110" unicode="&#x45e;" horiz-adv-x="654" 
d="M287 -1h-185l104 238c-67 140 -158 326 -225 463h190l72 -147l56 -145l49 144l64 148h190zM150 867h287v-132h-287v132z" />
    <glyph glyph-name="afii10193" unicode="&#x45f;" horiz-adv-x="606" 
d="M180 -103v103h-180v700h172v-537h182v537h172v-700h-177v-103h-169z" />
    <glyph glyph-name="A" unicode="A" horiz-adv-x="700" 
d="M508 0l-39 103h-239l-39 -103h-183l280 708h122l291 -708h-193zM350 426l-52 -148l-6 -16h116l-4 12z" />
    <glyph glyph-name="B" unicode="B" horiz-adv-x="636" 
d="M220 545v-98h129c30 0 44 25 44 50c0 24 -15 48 -42 48h-131zM51 700h324c110 0 184 -93 185 -184c1 -49 -20 -99 -67 -132c74 -38 104 -99 104 -158c0 -113 -77 -226 -224 -226h-322v700zM220 289v-127h153c36 0 54 31 54 63s-18 64 -54 64h-153z" />
    <glyph glyph-name="C" unicode="C" horiz-adv-x="787" 
d="M205 349c0 -133 97 -199 194 -198c81 1 161 49 183 143h173c-26 -183 -176 -304 -358 -304c-200 0 -362 153 -362 359s162 362 362 362c180 0 335 -122 357 -302h-173c-23 92 -103 138 -182 139c-97 1 -194 -65 -194 -199z" />
    <glyph glyph-name="D" unicode="D" horiz-adv-x="704" 
d="M219 163h108c118 0 178 94 178 186s-60 189 -178 189h-108v-375zM49 700h278c231 0 347 -176 347 -351s-116 -349 -347 -349h-278v700z" />
    <glyph glyph-name="E" unicode="E" horiz-adv-x="558" 
d="M222 277v-112h290v-165h-462v706h461v-165h-289v-98h283v-166h-283z" />
    <glyph glyph-name="F" unicode="F" horiz-adv-x="547" 
d="M220 253v-253h-170v706h453v-163h-283v-131h267v-159h-267z" />
    <glyph glyph-name="G" unicode="G" horiz-adv-x="782" 
d="M390 543c-103 0 -181 -81 -181 -194c0 -119 78 -197 181 -197c47 0 101 15 138 65h-214v153h428c0 -81 -14 -132 -25 -158c-49 -134 -196 -223 -327 -223c-202 0 -354 151 -354 360c0 210 156 361 354 361c136 0 321 -75 350 -295h-180c-25 100 -106 128 -170 128z" />
    <glyph glyph-name="H" unicode="H" horiz-adv-x="656" 
d="M221 700v-264h204v264h171v-700h-171v271h-204v-271h-171v700h171z" />
    <glyph glyph-name="I" unicode="I" horiz-adv-x="484" 
d="M446 704v-156h-116v-395h116v-153h-403v153h116v395h-116v156h403z" />
    <glyph glyph-name="J" unicode="J" horiz-adv-x="480" 
d="M428 705v-397c0 -223 -112 -308 -410 -308v160c185 0 240 40 240 148v240h-169v157h339z" />
    <glyph glyph-name="K" unicode="K" horiz-adv-x="658" 
d="M620 700v-10l-248 -338l271 -343v-9h-212l-208 271v-271h-171v700h171v-272l194 272h203z" />
    <glyph glyph-name="L" unicode="L" horiz-adv-x="551" 
d="M221 700v-535h294v-165h-465v700h171z" />
    <glyph glyph-name="M" unicode="M" horiz-adv-x="742" 
d="M221 348v-348h-171v700h136l184 -271l184 271h134v-700h-170v346l-101 -149h-95z" />
    <glyph glyph-name="N" unicode="N" horiz-adv-x="646" 
d="M220 0h-170v700h132l242 -350v350h169v-700h-134l-239 341v-341z" />
    <glyph glyph-name="O" unicode="O" horiz-adv-x="827" 
d="M51 349c0 206 162 362 362 362s363 -156 363 -362c0 -203 -163 -359 -363 -359s-362 153 -362 359zM221 349c0 -131 93 -196 188 -197c97 -1 195 65 195 197c0 134 -98 200 -195 198c-95 -2 -188 -67 -188 -198z" />
    <glyph glyph-name="P" unicode="P" horiz-adv-x="610" 
d="M50 706h283c166 0 248 -130 246 -254c-2 -122 -84 -244 -246 -244h-112v-208h-171v706zM221 369h112c53 0 79 43 79 84c0 42 -26 87 -79 87h-112v-171z" />
    <glyph glyph-name="Q" unicode="Q" horiz-adv-x="832" 
d="M323 293v52h182l79 -72c9 23 13 51 13 77c0 54 -22 102 -55 136c-34 35 -81 56 -132 56c-50 0 -97 -21 -132 -57v1c-34 -34 -56 -82 -56 -136s22 -103 56 -137v1c38 -38 87 -59 135 -59c19 0 35 3 54 8zM797 76v-76h-150l-44 42c-60 -32 -130 -49 -193 -49
c-198 0 -358 150 -358 357c0 213 169 358 358 358c100 0 189 -41 254 -106c64 -65 105 -155 105 -252c0 -71 -22 -137 -58 -192z" />
    <glyph glyph-name="S" unicode="S" horiz-adv-x="626" 
d="M569 479h-172c0 47 -38 72 -91 72s-90 -23 -90 -61c0 -52 83 -53 106 -55c99 -13 224 -39 254 -165c3 -16 5 -34 5 -49c0 -146 -142 -230 -275 -230c-114 0 -269 70 -269 248h173c0 -69 58 -82 97 -82c56 0 101 16 101 56c0 50 -80 52 -106 55c-113 11 -247 36 -260 197
v-1c-8 154 118 246 267 246c125 0 260 -70 260 -231z" />
    <glyph glyph-name="T" unicode="T" horiz-adv-x="627" 
d="M393 0h-171v548h-189v160h548v-160h-188v-548z" />
    <glyph glyph-name="U" unicode="U" 
d="M319 -10c-135 0 -269 77 -269 235v475h171v-474c0 -105 198 -103 198 0v474h171v-475c0 -158 -136 -236 -271 -235z" />
    <glyph glyph-name="V" unicode="V" horiz-adv-x="683" 
d="M680 700v-25l-270 -677h-124l-269 670v32h175l116 -292l41 -135l41 135l116 292h174z" />
    <glyph glyph-name="W" unicode="W" horiz-adv-x="976" 
d="M555 540l87 -245l134 405h171v-21l-227 -683h-151l-88 243l-86 -243h-151l-227 683v21h171l134 -405l88 245h145z" />
    <glyph glyph-name="X" unicode="X" horiz-adv-x="684" 
d="M657 700v-16l-224 -329l225 -341v-14h-184l-138 213l-136 -213h-184v14l224 341l-221 325v20h180l137 -199l139 199h182z" />
    <glyph glyph-name="Y" unicode="Y" horiz-adv-x="701" 
d="M685 700v-18l-251 -399v-283h-171v282l-251 402v16h188l70 -112l79 -143l83 152l64 103h189z" />
    <glyph glyph-name="Z" unicode="Z" horiz-adv-x="596" 
d="M551 706v-125l-295 -423h299v-158h-525v120l302 429h-302v157h521z" />
    <glyph glyph-name="at" unicode="@" horiz-adv-x="782" 
d="M389 116l43 -108c-57 -18 -107 -26 -152 -26c-189 0 -275 145 -275 310c0 27 4 58 9 87c30 157 160 311 360 311c190 0 332 -127 332 -293c0 -200 -116 -288 -232 -288c-32 0 -65 12 -76 47c-29 -26 -65 -34 -97 -34c-109 0 -170 111 -144 214c29 118 101 217 230 217
c28 0 69 -16 88 -45l9 15l60 -6c-40 43 -102 65 -168 65c-136 0 -225 -119 -251 -232c-4 -17 -6 -34 -7 -50c-7 -125 72 -209 176 -208c30 0 62 8 95 24zM590 391c0 31 -6 63 -21 90l-65 -238c-3 -9 -8 -21 -16 -21c57 -1 102 84 102 169zM505 244c0 -1 -1 -1 -1 -1
c1 0 1 1 1 1zM274 320v-1c-2 -13 -4 -26 -4 -38c0 -27 7 -53 38 -53c62 0 112 94 112 157c0 36 -13 58 -37 58c-61 1 -96 -62 -109 -123z" />
    <glyph glyph-name="a" unicode="a" horiz-adv-x="643" 
d="M276 550c53 0 105 -20 140 -65v56h157v-541h-157v54c-37 -46 -90 -61 -142 -61c-172 0 -261 138 -260 287c2 148 87 270 262 270zM293 144c68 0 123 58 123 130s-55 131 -123 131c-80 0 -120 -63 -121 -129c-1 -65 40 -132 121 -132z" />
    <glyph glyph-name="b" unicode="b" horiz-adv-x="641" 
d="M326 550c175 0 260 -122 262 -270c1 -149 -88 -287 -260 -287c-52 0 -106 15 -143 61v-54h-156v712h156v-220c36 41 88 58 141 58zM309 144c81 0 122 67 121 132c-1 66 -41 129 -121 129c-68 0 -124 -59 -124 -131s56 -130 124 -130z" />
    <glyph glyph-name="c" unicode="c" horiz-adv-x="614" 
d="M402 230h156c-45 -332 -545 -309 -545 41s501 373 545 40h-156c-40 134 -235 113 -235 -40s194 -175 235 -41z" />
    <glyph glyph-name="d" unicode="d" horiz-adv-x="643" 
d="M276 550c53 0 104 -17 140 -58v213h157v-705h-157v54c-37 -46 -90 -61 -142 -61c-172 0 -261 138 -260 287c2 148 87 270 262 270zM293 144c68 0 123 58 123 130s-55 131 -123 131c-80 0 -120 -63 -121 -129c-1 -65 40 -132 121 -132z" />
    <glyph glyph-name="e" unicode="e" 
d="M572 272c0 -22 -2 -42 -6 -62h-388c19 -50 68 -75 116 -76c35 0 68 12 91 37h171c-42 -120 -156 -179 -270 -177c-137 3 -273 95 -273 278c0 186 141 278 282 277c139 -1 277 -93 277 -277zM184 333h216c-15 54 -59 79 -110 79c-47 0 -90 -26 -106 -79z" />
    <glyph glyph-name="f" unicode="f" horiz-adv-x="401" 
d="M-3 535h83c-11 168 143 201 275 173l-5 -118c-47 12 -116 12 -113 -55h112v-137h-114v-398h-157v398h-81v137z" />
    <glyph glyph-name="g" unicode="g" 
d="M273 2c-174 0 -261 115 -261 264c0 156 88 282 260 281c52 0 105 -14 141 -60v54h157v-510c0 -200 -138 -281 -275 -281c-134 0 -267 81 -267 212h165c0 -33 47 -60 97 -59c57 1 118 32 123 127v28c-35 -41 -86 -56 -140 -56zM291 397c-82 0 -122 -68 -121 -133
c1 -76 61 -113 121 -113c61 1 122 40 122 115c0 72 -55 131 -122 131z" />
    <glyph glyph-name="h" unicode="h" horiz-adv-x="607" 
d="M24 705h159v-218c39 48 101 62 159 62c154 -2 197 -116 195 -251v-298h-159v297c0 71 -39 102 -81 103c-48 1 -106 -40 -106 -106v-294h-167v705z" />
    <glyph glyph-name="i" unicode="i" horiz-adv-x="268" 
d="M197 541h-160v-541h160v541zM22 660c0 60 45 91 91 92c48 1 98 -29 98 -92c0 -58 -45 -87 -91 -88c-48 -1 -98 28 -98 88z" />
    <glyph glyph-name="j" unicode="j" horiz-adv-x="266" 
d="M196 -23v564h-157v-561c0 -65 -63 -77 -115 -65l-6 -130c149 -31 278 27 278 192zM24 658c0 63 48 94 96 93c46 -1 92 -32 92 -93s-45 -89 -91 -90c-48 -1 -97 27 -97 90z" />
    <glyph glyph-name="k" unicode="k" horiz-adv-x="559" 
d="M187 346v-18l149 213h172v-8l-183 -261l201 -265v-7h-184l-155 211v-15v-196h-157v700h157v-354z" />
    <glyph glyph-name="l" unicode="l" horiz-adv-x="249" 
d="M24 700h160v-700h-160v700z" />
    <glyph glyph-name="m" unicode="m" horiz-adv-x="914" 
d="M36 541h159v-54c38 48 102 63 160 62c62 -3 102 -31 127 -72c37 51 116 74 179 71c102 -4 184 -72 182 -243v-305h-159v304c0 65 -31 89 -67 90c-39 1 -97 -26 -98 -86v-308h-7h-152v304c0 65 -31 89 -67 90c-39 1 -90 -27 -90 -88v-306h-167v541z" />
    <glyph glyph-name="n" unicode="n" horiz-adv-x="607" 
d="M23 541h159v-54c38 48 102 62 160 62c154 -2 196 -116 195 -251v-298h-160v297c0 73 -41 106 -84 106c-47 0 -103 -40 -103 -109v-294h-167v541z" />
    <glyph glyph-name="o" unicode="o" horiz-adv-x="633" 
d="M581 270c0 -385 -577 -383 -577 0c0 386 577 385 577 0zM162 270c0 -181 261 -182 261 0c0 184 -261 183 -261 0z" />
    <glyph glyph-name="p" unicode="p" horiz-adv-x="650" 
d="M326 -9c-53 0 -104 18 -140 59v-208h-156v699h156v-54c37 46 90 61 142 61c172 0 261 -138 260 -287c-2 -148 -87 -270 -262 -270zM309 397c-68 0 -123 -58 -123 -130s55 -131 123 -131c80 0 120 64 121 129s-40 132 -121 132z" />
    <glyph glyph-name="q" unicode="q" horiz-adv-x="641" 
d="M274 -9c-175 0 -260 122 -261 270c-2 149 87 287 259 287c52 0 105 -15 142 -61v54h157v-699h-157v208c-36 -41 -87 -59 -140 -59zM291 397c-81 0 -121 -67 -121 -132c1 -65 42 -129 121 -129c68 0 123 59 123 131s-55 130 -123 130z" />
    <glyph glyph-name="r" unicode="r" horiz-adv-x="410" 
d="M187 300v-300h-157v541h142l6 -36c35 33 74 47 118 47c19 0 40 -3 61 -8l-2 -148c-16 5 -35 8 -53 8c-57 -1 -115 -31 -115 -104z" />
    <glyph glyph-name="s" unicode="s" horiz-adv-x="515" 
d="M20 367c0 131 102 187 223 187c116 0 217 -59 218 -185h-151c-1 42 -43 45 -76 45c-23 0 -55 -8 -55 -37c0 -28 42 -29 65 -30c113 -3 228 -51 228 -179c0 -136 -111 -182 -231 -182c-129 0 -227 58 -229 196h158c1 -36 39 -51 75 -51c41 -1 69 14 69 33
c0 39 -60 34 -86 36c-102 9 -208 48 -208 167z" />
    <glyph glyph-name="t" unicode="t" horiz-adv-x="415" 
d="M360 -1c-31 -5 -60 -8 -86 -8c-121 -1 -194 55 -194 196v213h-71v135h71v103l157 14v-117h113v-135h-113v-213c0 -48 35 -63 73 -63c15 0 31 2 45 5z" />
    <glyph glyph-name="u" unicode="u" horiz-adv-x="604" 
d="M534 0h-159v55c-38 -49 -95 -63 -153 -62c-154 1 -196 116 -195 250v298h159v-297c0 -156 181 -135 181 3v294h167v-541z" />
    <glyph glyph-name="v" unicode="v" horiz-adv-x="567" 
d="M263 230l38 138l68 173h163v-25l-205 -518h-129l-205 518v25h164l67 -173z" />
    <glyph glyph-name="w" unicode="w" horiz-adv-x="812" 
d="M383 214l-47 -152l-23 -62h-151l-172 517v24h161l54 -163l36 -148l85 280h113l85 -280l36 148l54 163h161v-24l-172 -517h-151l-24 64z" />
    <glyph glyph-name="x" unicode="x" horiz-adv-x="568" 
d="M264 388l48 93l40 61h175v-16l-160 -251l162 -264v-11h-175l-39 65l-51 100l-51 -100l-38 -65h-175v11l162 264l-160 251v16h175l39 -61z" />
    <glyph glyph-name="y" unicode="y" horiz-adv-x="575" 
d="M263 231l40 137l67 173h163v-25c-89 -225 -178 -449 -266 -674h-163v24l70 178l-180 472v25h164l67 -173z" />
    <glyph glyph-name="z" unicode="z" horiz-adv-x="483" 
d="M12 0v95l199 303h-197v143h414v-87l-206 -305h208v-149h-418z" />
    <glyph glyph-name="quotesinglbase" unicode="&#x201a;" horiz-adv-x="285" 
d="M215 118v-48l-101 -182h-150l91 230h160z" />
    <glyph glyph-name="perthousand" unicode="&#x2030;" horiz-adv-x="1191" 
d="M346 545c0 -95 -79 -171 -176 -171c-95 0 -175 76 -175 171c0 96 80 172 175 172c97 0 176 -76 176 -172zM498 701h189l-459 -709h-189zM170 510c45 0 46 71 0 71s-47 -71 0 -71zM747 168c0 -95 -79 -171 -176 -171c-95 0 -175 76 -175 171c0 96 80 172 175 172
c97 0 176 -76 176 -172zM571 133c45 0 46 71 0 71s-47 -71 0 -71zM1120 168c0 -95 -79 -171 -176 -171c-95 0 -175 76 -175 171c0 96 80 172 175 172c97 0 176 -76 176 -172zM944 133c45 0 46 71 0 71s-47 -71 0 -71z" />
    <glyph glyph-name="Ydieresis" unicode="&#x178;" horiz-adv-x="723" 
d="M658 682v18h-189l-64 -103l-83 -152l-79 143l-70 112h-188v-16l251 -402v-282h171v283zM178 913c53 0 88 -32 88 -80c0 -40 -35 -80 -88 -80c-46 0 -84 35 -84 80c0 51 38 80 84 80zM464 913c52 0 87 -32 87 -80c0 -40 -35 -80 -87 -80c-47 0 -85 40 -85 80
c0 48 38 80 85 80z" />
    <glyph glyph-name="twosuperior" unicode="&#xb2;" horiz-adv-x="427" 
d="M135 550h-131c-4 101 71 169 175 169c117 0 180 -74 180 -153c0 -46 -25 -92 -76 -127l-72 -47h149v-116h-358v87l194 159c18 12 25 29 25 45c0 46 -94 53 -86 -17z" />
    <glyph glyph-name="threesuperior" unicode="&#xb3;" horiz-adv-x="433" 
d="M198 443h-58v109h49c18 0 29 14 29 29c0 18 -16 29 -34 30c-24 2 -51 -12 -51 -44h-125c0 108 94 154 172 154c86 0 167 -37 176 -124c4 -39 -16 -77 -55 -90c52 -17 72 -60 71 -96c-1 -78 -64 -147 -192 -147c-116 0 -175 77 -175 166h125c0 -38 36 -50 57 -50
c25 0 46 12 47 32c1 15 -10 31 -36 31z" />
    <glyph glyph-name="onequarter" unicode="&#xbc;" horiz-adv-x="876" 
d="M262 -29h-160l400 777h167zM107 295h143v428h-117l-147 -134l70 -102l51 34v-226zM762 184v271h-151l-221 -311l55 -91h179v-53h138v53h41v131h-41zM628 188h-62l62 82v-82z" />
    <glyph glyph-name="onesuperior" unicode="&#xb9;" horiz-adv-x="320" 
d="M250 295h-143v226l-51 -34l-70 102l147 134h117v-428z" />
    <glyph glyph-name="onehalf" unicode="&#xbd;" horiz-adv-x="900" 
d="M262 -29h-160l400 777h167zM107 295h143v428h-117l-147 -134l70 -102l51 34v-226zM476 274h131c-8 70 86 63 86 17c0 -16 -7 -33 -25 -45l-194 -159v-87h358v116h-149l72 47c51 35 76 81 76 127c0 79 -63 153 -180 153c-104 0 -179 -68 -175 -169z" />
    <glyph glyph-name="threequarters" unicode="&#xbe;" horiz-adv-x="949" 
d="M322 -29h-160l455 777h167zM837 184v271h-151l-221 -311l55 -91h179v-53h138v53h41v131h-41zM703 188h-62l62 82v-82zM196 443h-58v109h49c18 0 29 14 29 29c0 41 -85 43 -85 -14h-125c0 108 94 154 172 154c86 0 167 -37 176 -124c4 -39 -16 -77 -55 -90
c52 -17 72 -60 71 -96c-1 -78 -64 -147 -192 -147c-116 0 -175 77 -175 166h125c0 -38 36 -50 57 -50c25 0 46 12 47 32c1 15 -10 31 -36 31z" />
    <glyph glyph-name="cedilla" unicode="&#xb8;" horiz-adv-x="322" 
d="M45 -78l-10 15l41 98h120l-16 -43c64 -10 104 -48 89 -118c-18 -84 -99 -107 -165 -107c-54 0 -110 20 -134 83l85 47c9 -19 34 -30 55 -29c27 0 40 11 43 24c10 47 -80 48 -108 30z" />
    <glyph glyph-name="_181" unicode="&#xb5;" horiz-adv-x="718" 
d="M171 348v-348h-171v700h136l184 -271l184 271h134v-700h-170v346l-101 -149h-95z" />
    <glyph glyph-name="R" unicode="R" horiz-adv-x="608" 
d="M248 237h-28v-237h-170v706h272c162 0 243 -120 241 -237c-2 -84 -47 -172 -137 -215l150 -222v-32h-182zM220 542v-150h98c50 0 77 37 78 72c1 37 -25 78 -78 78h-98z" />
    <glyph glyph-name="Eth" unicode="&#xd0;" horiz-adv-x="732" 
d="M4 270v154h45v283h264c231 0 347 -183 347 -358s-116 -349 -347 -349h-264v270h-45zM219 163h94c118 0 178 94 178 186s-60 196 -178 196h-94v-121h72v-154h-72v-107z" />
    <glyph glyph-name="thorn" unicode="&#xfe;" horiz-adv-x="696" 
d="M356 -9c-53 0 -104 18 -140 59v-208h-156v860h156v-215c37 46 90 61 142 61c172 0 261 -138 260 -287c-2 -148 -87 -270 -262 -270zM339 397c-68 0 -123 -58 -123 -130s55 -131 123 -131c80 0 120 64 121 129s-40 132 -121 132z" />
    <glyph glyph-name="fontfabric" horiz-adv-x="1770" 
d="M1341 699h350v-176h-14c-27 98 -74 163 -180 163h-59v-674h110v-13h-207v700zM745 12h234v-13h-234v13zM1186 699h123v-13v0v-687h-32l-428 687h-104v13h215l330 -537h6v524h-110v13zM791 491c19 -46 26 -90 26 -141c0 -47 -7 -85 -26 -131c-19 -38 -38 -77 -71 -110
c-74 -74 -139 -110 -246 -110h-6v13h6c76 0 141 22 182 84c19 26 32 66 38 104c6 46 13 91 13 150c0 75 -9 170 -45 232c-31 75 -102 104 -188 104h-6v13h6c135 0 262 -84 317 -208zM248 439c6 20 15 36 25 72h7v-305h-7c-9 73 -44 152 -129 150h-65v13h57
c59 -1 92 16 112 70zM79 699h336v-169h-6c-23 87 -67 156 -182 156h-148v13z" />
    <glyph glyph-name="zero.tnum" horiz-adv-x="636" 
d="M282 541c-73 0 -109 -75 -109 -196c0 -108 36 -194 109 -194c75 0 111 86 111 194c0 121 -36 196 -111 196zM282 -14c-188 0 -282 168 -282 359c0 197 94 363 282 363s284 -166 284 -363c0 -191 -96 -359 -284 -359z" />
    <glyph glyph-name="one.tnum" horiz-adv-x="394" 
d="M315 0h-163v404l-58 -56l-115 114l223 243h113v-705z" />
    <glyph glyph-name="two.tnum" horiz-adv-x="595" 
d="M172 442h-167c0 152 98 269 255 269c189 0 262 -118 262 -240c0 -72 -38 -145 -106 -201l-140 -110h243v-160h-513v123l294 268c30 27 50 56 50 83c0 38 -31 73 -90 73c-47 0 -88 -42 -88 -105z" />
    <glyph glyph-name="three.tnum" horiz-adv-x="573" 
d="M-4 232h155c0 -115 192 -97 192 -13c0 28 -21 66 -74 66h-104v145h104c32 0 54 29 54 56c0 84 -173 88 -173 -10h-148c0 311 487 306 487 15c0 -45 -15 -101 -68 -128c70 -36 90 -95 89 -154c-1 -108 -92 -220 -269 -220c-170 0 -245 115 -245 243z" />
    <glyph glyph-name="four.tnum" horiz-adv-x="591" 
d="M-2 255l349 449h128v-404h50v-158h-50v-142h-168v142h-309v113zM209 301h101v127z" />
    <glyph glyph-name="five.tnum" horiz-adv-x="567" 
d="M-4 207l152 25c15 -106 189 -96 187 9c0 65 -61 92 -116 92c-34 0 -75 -15 -123 -43l-90 40v371h460v-154h-300v-84c167 49 334 -37 334 -221c0 -122 -86 -251 -258 -251c-118 0 -241 61 -246 216z" />
    <glyph glyph-name="six.tnum" horiz-adv-x="590" 
d="M162 240c0 -116 191 -119 191 0c0 117 -191 118 -191 0zM54 405l209 295h204l-169 -238c146 1 223 -105 223 -222c0 -124 -88 -248 -263 -248s-264 97 -264 248c0 50 17 101 60 165z" />
    <glyph glyph-name="seven.tnum" horiz-adv-x="581" 
d="M-4 700h521v-103l-327 -597h-186l297 543h-305v157z" />
    <glyph glyph-name="eight.tnum" horiz-adv-x="585" 
d="M164 215c0 -105 192 -102 192 0s-192 98 -192 0zM336 506c0 82 -151 83 -151 -1c0 -87 151 -88 151 1zM499 502c0 -40 -26 -108 -77 -132c79 -37 104 -101 104 -155c0 -304 -531 -307 -531 0c0 53 30 124 102 153c-67 29 -77 105 -77 135c2 287 479 285 479 -1z" />
    <glyph glyph-name="nine.tnum" horiz-adv-x="586" 
d="M352 465c0 116 -191 119 -191 0c0 -117 191 -118 191 0zM460 300l-209 -300h-204l169 243c-146 -1 -223 105 -223 222c0 124 88 248 263 248s264 -97 264 -248c0 -50 -17 -101 -60 -165z" />
    <glyph glyph-name="zero.p_osf" horiz-adv-x="636" 
d="M282 541c-73 0 -109 -75 -109 -196c0 -108 36 -194 109 -194c75 0 111 86 111 194c0 121 -36 196 -111 196zM282 -14c-188 0 -282 168 -282 359c0 197 94 363 282 363s284 -166 284 -363c0 -191 -96 -359 -284 -359z" />
    <glyph glyph-name="one.p_osf" horiz-adv-x="394" 
d="M315 0h-163v404l-58 -56l-115 114l223 243h113v-705z" />
    <glyph glyph-name="two.p_osf" horiz-adv-x="595" 
d="M172 442h-167c0 152 98 269 255 269c189 0 262 -118 262 -240c0 -72 -38 -145 -106 -201l-140 -110h243v-160h-513v123l294 268c30 27 50 56 50 83c0 38 -31 73 -90 73c-47 0 -88 -42 -88 -105z" />
    <glyph glyph-name="three.p_osf" horiz-adv-x="573" 
d="M-4 232h155c0 -115 192 -97 192 -13c0 28 -21 66 -74 66h-104v145h104c32 0 54 29 54 56c0 84 -173 88 -173 -10h-148c0 311 487 306 487 15c0 -45 -15 -101 -68 -128c70 -36 90 -95 89 -154c-1 -108 -92 -220 -269 -220c-170 0 -245 115 -245 243z" />
    <glyph glyph-name="four.p_osf" horiz-adv-x="591" 
d="M-2 255l349 449h128v-404h50v-158h-50v-142h-168v142h-309v113zM209 301h101v127z" />
    <glyph glyph-name="five.p_osf" horiz-adv-x="567" 
d="M-4 207l152 25c15 -106 189 -96 187 9c0 65 -61 92 -116 92c-34 0 -75 -15 -123 -43l-90 40v371h460v-154h-300v-84c167 49 334 -37 334 -221c0 -122 -86 -251 -258 -251c-118 0 -241 61 -246 216z" />
    <glyph glyph-name="six.p_osf" horiz-adv-x="590" 
d="M162 240c0 -116 191 -119 191 0c0 117 -191 118 -191 0zM54 405l209 295h204l-169 -238c146 1 223 -105 223 -222c0 -124 -88 -248 -263 -248s-264 97 -264 248c0 50 17 101 60 165z" />
    <glyph glyph-name="seven.p_osf" horiz-adv-x="581" 
d="M-4 700h521v-103l-327 -597h-186l297 543h-305v157z" />
    <glyph glyph-name="eight.p_osf" horiz-adv-x="585" 
d="M164 215c0 -105 192 -102 192 0s-192 98 -192 0zM336 506c0 82 -151 83 -151 -1c0 -87 151 -88 151 1zM499 502c0 -40 -26 -108 -77 -132c79 -37 104 -101 104 -155c0 -304 -531 -307 -531 0c0 53 30 124 102 153c-67 29 -77 105 -77 135c2 287 479 285 479 -1z" />
    <glyph glyph-name="nine.p_osf" horiz-adv-x="586" 
d="M352 465c0 116 -191 119 -191 0c0 -117 191 -118 191 0zM460 300l-209 -300h-204l169 243c-146 -1 -223 105 -223 222c0 124 88 248 263 248s264 -97 264 -248c0 -50 -17 -101 -60 -165z" />
    <glyph glyph-name="zero.t_osf" horiz-adv-x="636" 
d="M282 541c-73 0 -109 -75 -109 -196c0 -108 36 -194 109 -194c75 0 111 86 111 194c0 121 -36 196 -111 196zM282 -14c-188 0 -282 168 -282 359c0 197 94 363 282 363s284 -166 284 -363c0 -191 -96 -359 -284 -359z" />
    <glyph glyph-name="one.t_osf" horiz-adv-x="394" 
d="M315 0h-163v404l-58 -56l-115 114l223 243h113v-705z" />
    <glyph glyph-name="two.t_osf" horiz-adv-x="595" 
d="M172 442h-167c0 152 98 269 255 269c189 0 262 -118 262 -240c0 -72 -38 -145 -106 -201l-140 -110h243v-160h-513v123l294 268c30 27 50 56 50 83c0 38 -31 73 -90 73c-47 0 -88 -42 -88 -105z" />
    <glyph glyph-name="three.t_osf" horiz-adv-x="573" 
d="M-4 232h155c0 -115 192 -97 192 -13c0 28 -21 66 -74 66h-104v145h104c32 0 54 29 54 56c0 84 -173 88 -173 -10h-148c0 311 487 306 487 15c0 -45 -15 -101 -68 -128c70 -36 90 -95 89 -154c-1 -108 -92 -220 -269 -220c-170 0 -245 115 -245 243z" />
    <glyph glyph-name="four.t_osf" horiz-adv-x="591" 
d="M-2 255l349 449h128v-404h50v-158h-50v-142h-168v142h-309v113zM209 301h101v127z" />
    <glyph glyph-name="five.t_osf" horiz-adv-x="567" 
d="M-4 207l152 25c15 -106 189 -96 187 9c0 65 -61 92 -116 92c-34 0 -75 -15 -123 -43l-90 40v371h460v-154h-300v-84c167 49 334 -37 334 -221c0 -122 -86 -251 -258 -251c-118 0 -241 61 -246 216z" />
    <glyph glyph-name="six.t_osf" horiz-adv-x="590" 
d="M162 240c0 -116 191 -119 191 0c0 117 -191 118 -191 0zM54 405l209 295h204l-169 -238c146 1 223 -105 223 -222c0 -124 -88 -248 -263 -248s-264 97 -264 248c0 50 17 101 60 165z" />
    <glyph glyph-name="seven.t_osf" horiz-adv-x="581" 
d="M-4 700h521v-103l-327 -597h-186l297 543h-305v157z" />
    <glyph glyph-name="eight.t_osf" horiz-adv-x="585" 
d="M164 215c0 -105 192 -102 192 0s-192 98 -192 0zM336 506c0 82 -151 83 -151 -1c0 -87 151 -88 151 1zM499 502c0 -40 -26 -108 -77 -132c79 -37 104 -101 104 -155c0 -304 -531 -307 -531 0c0 53 30 124 102 153c-67 29 -77 105 -77 135c2 287 479 285 479 -1z" />
    <glyph glyph-name="nine.t_osf" horiz-adv-x="586" 
d="M352 465c0 116 -191 119 -191 0c0 -117 191 -118 191 0zM460 300l-209 -300h-204l169 243c-146 -1 -223 105 -223 222c0 124 88 248 263 248s264 -97 264 -248c0 -50 -17 -101 -60 -165z" />
    <glyph glyph-name="zero.numerator" horiz-adv-x="636" 
d="M282 541c-73 0 -109 -75 -109 -196c0 -108 36 -194 109 -194c75 0 111 86 111 194c0 121 -36 196 -111 196zM282 -14c-188 0 -282 168 -282 359c0 197 94 363 282 363s284 -166 284 -363c0 -191 -96 -359 -284 -359z" />
    <glyph glyph-name="one.numerator" horiz-adv-x="394" 
d="M315 0h-163v404l-58 -56l-115 114l223 243h113v-705z" />
    <glyph glyph-name="two.numerator" horiz-adv-x="595" 
d="M172 442h-167c0 152 98 269 255 269c189 0 262 -118 262 -240c0 -72 -38 -145 -106 -201l-140 -110h243v-160h-513v123l294 268c30 27 50 56 50 83c0 38 -31 73 -90 73c-47 0 -88 -42 -88 -105z" />
    <glyph glyph-name="three.numerator" horiz-adv-x="573" 
d="M-4 232h155c0 -115 192 -97 192 -13c0 28 -21 66 -74 66h-104v145h104c32 0 54 29 54 56c0 84 -173 88 -173 -10h-148c0 311 487 306 487 15c0 -45 -15 -101 -68 -128c70 -36 90 -95 89 -154c-1 -108 -92 -220 -269 -220c-170 0 -245 115 -245 243z" />
    <glyph glyph-name="four.numerator" horiz-adv-x="591" 
d="M-2 255l349 449h128v-404h50v-158h-50v-142h-168v142h-309v113zM209 301h101v127z" />
    <glyph glyph-name="five.numerator" horiz-adv-x="567" 
d="M-4 207l152 25c15 -106 189 -96 187 9c0 65 -61 92 -116 92c-34 0 -75 -15 -123 -43l-90 40v371h460v-154h-300v-84c167 49 334 -37 334 -221c0 -122 -86 -251 -258 -251c-118 0 -241 61 -246 216z" />
    <glyph glyph-name="six.numerator" horiz-adv-x="590" 
d="M162 240c0 -116 191 -119 191 0c0 117 -191 118 -191 0zM54 405l209 295h204l-169 -238c146 1 223 -105 223 -222c0 -124 -88 -248 -263 -248s-264 97 -264 248c0 50 17 101 60 165z" />
    <glyph glyph-name="seven.numerator" horiz-adv-x="581" 
d="M-4 700h521v-103l-327 -597h-186l297 543h-305v157z" />
    <glyph glyph-name="eight.numerator" horiz-adv-x="585" 
d="M164 215c0 -105 192 -102 192 0s-192 98 -192 0zM336 506c0 82 -151 83 -151 -1c0 -87 151 -88 151 1zM499 502c0 -40 -26 -108 -77 -132c79 -37 104 -101 104 -155c0 -304 -531 -307 -531 0c0 53 30 124 102 153c-67 29 -77 105 -77 135c2 287 479 285 479 -1z" />
    <glyph glyph-name="nine.numerator" horiz-adv-x="586" 
d="M352 465c0 116 -191 119 -191 0c0 -117 191 -118 191 0zM460 300l-209 -300h-204l169 243c-146 -1 -223 105 -223 222c0 124 88 248 263 248s264 -97 264 -248c0 -50 -17 -101 -60 -165z" />
    <glyph glyph-name="zero.denominator" horiz-adv-x="636" 
d="M282 541c-73 0 -109 -75 -109 -196c0 -108 36 -194 109 -194c75 0 111 86 111 194c0 121 -36 196 -111 196zM282 -14c-188 0 -282 168 -282 359c0 197 94 363 282 363s284 -166 284 -363c0 -191 -96 -359 -284 -359z" />
    <glyph glyph-name="one.denominator" horiz-adv-x="394" 
d="M315 0h-163v404l-58 -56l-115 114l223 243h113v-705z" />
    <glyph glyph-name="two.denominator" horiz-adv-x="595" 
d="M172 442h-167c0 152 98 269 255 269c189 0 262 -118 262 -240c0 -72 -38 -145 -106 -201l-140 -110h243v-160h-513v123l294 268c30 27 50 56 50 83c0 38 -31 73 -90 73c-47 0 -88 -42 -88 -105z" />
    <glyph glyph-name="three.denominator" horiz-adv-x="573" 
d="M-4 232h155c0 -115 192 -97 192 -13c0 28 -21 66 -74 66h-104v145h104c32 0 54 29 54 56c0 84 -173 88 -173 -10h-148c0 311 487 306 487 15c0 -45 -15 -101 -68 -128c70 -36 90 -95 89 -154c-1 -108 -92 -220 -269 -220c-170 0 -245 115 -245 243z" />
    <glyph glyph-name="four.denominator" horiz-adv-x="591" 
d="M-2 255l349 449h128v-404h50v-158h-50v-142h-168v142h-309v113zM209 301h101v127z" />
    <glyph glyph-name="five.denominator" horiz-adv-x="567" 
d="M-4 207l152 25c15 -106 189 -96 187 9c0 65 -61 92 -116 92c-34 0 -75 -15 -123 -43l-90 40v371h460v-154h-300v-84c167 49 334 -37 334 -221c0 -122 -86 -251 -258 -251c-118 0 -241 61 -246 216z" />
    <glyph glyph-name="six.denominator" horiz-adv-x="590" 
d="M162 240c0 -116 191 -119 191 0c0 117 -191 118 -191 0zM54 405l209 295h204l-169 -238c146 1 223 -105 223 -222c0 -124 -88 -248 -263 -248s-264 97 -264 248c0 50 17 101 60 165z" />
    <glyph glyph-name="seven.denominator" horiz-adv-x="581" 
d="M-4 700h521v-103l-327 -597h-186l297 543h-305v157z" />
    <glyph glyph-name="eight.denominator" horiz-adv-x="585" 
d="M164 215c0 -105 192 -102 192 0s-192 98 -192 0zM336 506c0 82 -151 83 -151 -1c0 -87 151 -88 151 1zM499 502c0 -40 -26 -108 -77 -132c79 -37 104 -101 104 -155c0 -304 -531 -307 -531 0c0 53 30 124 102 153c-67 29 -77 105 -77 135c2 287 479 285 479 -1z" />
    <glyph glyph-name="nine.denominator" horiz-adv-x="586" 
d="M352 465c0 116 -191 119 -191 0c0 -117 191 -118 191 0zM460 300l-209 -300h-204l169 243c-146 -1 -223 105 -223 222c0 124 88 248 263 248s264 -97 264 -248c0 -50 -17 -101 -60 -165z" />
    <glyph glyph-name="dollar.osf" horiz-adv-x="606" 
d="M206 705v64h121v-65c104 -19 199 -90 199 -225h-172c0 24 -10 42 -27 54v-106c88 -16 180 -51 206 -157c3 -16 5 -34 5 -49c0 -123 -100 -202 -211 -223v-61h-121v60c-103 19 -212 92 -212 242h173c0 -38 17 -58 39 -70v105c-99 16 -196 54 -207 191v-1
c-7 132 86 219 207 241zM368 213c0 27 -20 42 -44 50v-104c27 10 44 28 44 54zM170 490c0 -25 16 -39 37 -47v101c-23 -11 -37 -30 -37 -54z" />
    <glyph glyph-name="cent.osf" horiz-adv-x="785" 
d="M282 -75v72c-165 32 -288 172 -288 352s123 322 288 355v66h155v-68c143 -30 257 -141 276 -293h-173c-16 61 -55 101 -103 122v-363c49 21 89 63 104 126h173c-22 -155 -133 -266 -277 -295v-74h-155zM164 349c0 -98 52 -160 118 -185v370c-66 -26 -118 -87 -118 -185z
" />
    <glyph glyph-name="sterling.osf" horiz-adv-x="584" 
d="M513 496h-153c0 96 -137 90 -137 8v-82h182v-142h-182v-132h289v-148h-511v124l58 13v143h-59v142h59v84c0 141 112 202 231 202c117 0 223 -62 223 -212z" />
    <glyph glyph-name="yen.osf" horiz-adv-x="722" 
d="M111 93v128h125v21h-125v132h67l-193 310v16h188l70 -112l79 -150l83 159l64 103h189v-18l-194 -308h66v-132h-123v-21h123v-128h-123v-93h-171v93h-125z" />
    <glyph glyph-name="florin.osf" horiz-adv-x="543" 
d="M476 702l-22 -138c-58 17 -110 -2 -117 -51h86l-21 -134h-89l-73 -382c-30 -170 -184 -208 -309 -157l28 131c69 -20 101 -17 117 56l68 352h-78l21 134h82c24 165 149 227 307 189z" />
    <glyph glyph-name="Euro.osf" horiz-adv-x="835" 
d="M444 360h-444l24 123h44c53 136 185 228 338 228c180 0 335 -122 357 -302h-173c-40 157 -241 182 -332 74h210zM13 336h439l-21 -114h-178c89 -116 299 -90 338 72h173c-26 -183 -176 -304 -358 -304c-156 0 -289 93 -340 232h-77z" />
    <glyph glyph-name="aogonek" unicode="&#x105;" horiz-adv-x="642" 
d="M275 550c53 0 105 -20 140 -65v56h157v-541h-1l1 -1c-52 -9 -54 -74 3 -81l-62 -92c-119 -21 -200 95 -98 173v55c-37 -46 -90 -61 -142 -61c-172 0 -261 138 -260 287c2 148 87 270 262 270zM292 144c68 0 123 58 123 130s-55 131 -123 131c-80 0 -120 -63 -121 -129
c-1 -65 40 -132 121 -132z" />
    <glyph glyph-name="ij" unicode="&#x133;" horiz-adv-x="553" 
d="M213 541h-160v-541h160v541zM462 35v506h-157v-503c0 -62 -40 -99 -115 -80l-6 -130c179 -40 278 46 278 207zM290 656c0 124 188 124 188 0s-188 -124 -188 0zM43 656c0 124 188 124 188 0s-188 -124 -188 0z" />
    <glyph glyph-name="Epsilon" unicode="&#x395;" horiz-adv-x="538" 
d="M172 267v-102h290v-165h-462v700h461v-165h-289v-102h283v-166h-283z" />
    <glyph glyph-name="oe" unicode="&#x153;" horiz-adv-x="1026" 
d="M958 272c0 -22 -2 -42 -6 -62h-384c26 -89 149 -98 203 -39h171c-41 -117 -146 -176 -252 -177c-76 -1 -151 28 -203 87c-52 -60 -130 -91 -207 -90c-134 1 -267 94 -267 279c0 187 135 281 270 280c76 0 152 -31 203 -90c51 59 126 88 201 89c135 1 271 -91 271 -277z
M170 270c0 -172 245 -172 245 0c0 173 -245 173 -245 0zM569 333h217c-15 54 -59 79 -110 79c-47 0 -91 -26 -107 -79z" />
    <glyph glyph-name="ordfeminine" unicode="&#xaa;" horiz-adv-x="465" 
d="M179 706c34 0 66 -13 89 -41v35h125v-344h-125v35c-24 -30 -58 -39 -90 -39c-110 0 -166 88 -165 182c1 95 55 172 166 172zM199 472c78 0 75 117 0 117c-71 0 -70 -117 0 -117zM24 198v131h370v-131h-370z" />
    <glyph glyph-name="ae" unicode="&#xe6;" horiz-adv-x="1030" 
d="M962 272c0 -22 -2 -42 -6 -62h-384c27 -92 149 -98 203 -39h171c-61 -175 -269 -228 -407 -136v-35h-123v54c-37 -46 -90 -61 -142 -61c-172 0 -261 138 -260 287c2 148 87 270 262 270c53 0 105 -20 140 -65v56h123v-39c146 105 423 26 423 -230zM293 144
c68 0 124 58 124 130s-56 131 -124 131c-80 0 -120 -63 -121 -129c-1 -65 40 -132 121 -132zM572 333h218c-15 54 -59 79 -110 79c-47 0 -92 -25 -108 -79z" />
    <glyph glyph-name="eth" unicode="&#xf0;" horiz-adv-x="633" 
d="M572 270c0 -187 -141 -280 -281 -279c-139 1 -278 94 -278 279c0 166 126 253 258 262l-25 33l-91 -17l-1 2v79l40 8l-50 69h187l26 -38l85 17l1 -2v-79l-35 -7l117 -163c26 -42 47 -96 47 -164zM170 270c0 -87 62 -130 124 -129c61 1 121 44 121 129
c0 81 -60 121 -121 122c-62 1 -124 -40 -124 -122z" />
    <glyph glyph-name="Agrave" unicode="&#xc0;" horiz-adv-x="744" 
d="M495 0l-39 103h-239l-39 -103h-183l280 708h122l291 -708h-193zM337 426l-52 -148l-6 -16h116l-4 12zM169 883v11h181l63 -111v-23h-129z" />
    <glyph glyph-name="Aring" unicode="&#xc5;" horiz-adv-x="744" 
d="M495 0l-39 103h-239l-39 -103h-183l280 708h122l291 -708h-193zM337 426l-52 -148l-6 -16h116l-4 12zM335 690c-63 0 -119 41 -119 107c0 67 56 108 119 108c62 0 120 -41 120 -108c0 -66 -58 -107 -120 -107zM335 822c-16 0 -29 -10 -29 -25s13 -23 29 -23
c18 0 30 8 30 23s-12 25 -30 25z" />
    <glyph glyph-name="Adieresis" unicode="&#xc4;" horiz-adv-x="744" 
d="M495 0l-39 103h-239l-39 -103h-183l280 708h122l291 -708h-193zM337 426l-52 -148l-6 -16h116l-4 12zM224 924c53 0 88 -34 88 -84c0 -41 -35 -83 -88 -83c-47 0 -85 36 -85 83c0 53 38 84 85 84zM444 924c53 0 88 -34 88 -84c0 -41 -35 -83 -88 -83c-47 0 -85 42 -85 83
c0 50 38 84 85 84z" />
    <glyph glyph-name="Atilde" unicode="&#xc3;" horiz-adv-x="744" 
d="M495 0l-39 103h-239l-39 -103h-183l280 708h122l291 -708h-193zM337 426l-52 -148l-6 -16h116l-4 12zM445 935l87 -76c-41 -70 -93 -101 -146 -95c-65 9 -94 80 -145 8l-90 71c64 108 150 120 228 62c27 -19 46 7 66 30z" />
    <glyph glyph-name="Acircumflex" unicode="&#xc2;" horiz-adv-x="744" 
d="M495 0l-39 103h-239l-39 -103h-183l280 708h122l291 -708h-193zM337 426l-52 -148l-6 -16h116l-4 12zM280 910h118l138 -126v-14h-156l-44 40l-42 -40h-158v11z" />
    <glyph glyph-name="Aacute" unicode="&#xc1;" horiz-adv-x="744" 
d="M495 0l-39 103h-239l-39 -103h-183l280 708h122l291 -708h-193zM337 426l-52 -148l-6 -16h116l-4 12zM520 897v-11l-115 -123h-129v23l63 111h181z" />
    <glyph glyph-name="Ccedilla" unicode="&#xc7;" horiz-adv-x="795" 
d="M277 -98l-10 15l33 79c-169 28 -297 170 -297 353c0 206 162 362 362 362c180 0 335 -122 357 -302h-173c-23 92 -103 138 -182 139c-97 1 -194 -65 -194 -199c0 -133 97 -199 194 -198c81 1 161 49 183 143h173c-24 -164 -147 -279 -303 -300l-8 -22
c64 -10 104 -48 89 -118c-18 -84 -99 -107 -165 -107c-54 0 -110 20 -134 83l85 47c9 -19 34 -30 55 -29c27 0 40 11 43 24c10 47 -80 48 -108 30z" />
    <glyph glyph-name="Edieresis" unicode="&#xcb;" horiz-adv-x="548" 
d="M182 277v-112h290v-165h-462v706h461v-165h-289v-98h283v-166h-283zM143 930c53 0 88 -34 88 -84c0 -41 -35 -83 -88 -83c-47 0 -85 36 -85 83c0 53 38 84 85 84zM363 930c53 0 88 -34 88 -84c0 -41 -35 -83 -88 -83c-47 0 -85 42 -85 83c0 50 38 84 85 84z" />
    <glyph glyph-name="Ecircumflex" unicode="&#xca;" horiz-adv-x="548" 
d="M182 277v-112h290v-165h-462v706h461v-165h-289v-98h283v-166h-283zM186 907h118l138 -126v-14h-156l-44 40l-42 -40h-158v11z" />
    <glyph glyph-name="Eacute" unicode="&#xc9;" horiz-adv-x="548" 
d="M182 277v-112h290v-165h-462v706h461v-165h-289v-98h283v-166h-283zM430 893v-11l-115 -123h-129v23l63 111h181z" />
    <glyph glyph-name="Egrave" unicode="&#xc8;" horiz-adv-x="548" 
d="M182 277v-112h290v-165h-462v706h461v-165h-289v-98h283v-166h-283zM96 879v11h181l63 -111v-23h-129z" />
    <glyph glyph-name="Igrave" unicode="&#xcc;" horiz-adv-x="493" 
d="M416 704v-156h-116v-395h116v-153h-403v153h116v395h-116v156h403zM52 873v11h181l63 -111v-23h-129z" />
    <glyph glyph-name="Idieresis" unicode="&#xcf;" horiz-adv-x="493" 
d="M416 704v-156h-116v-395h116v-153h-403v153h116v395h-116v156h403zM105 916c53 0 88 -34 88 -84c0 -41 -35 -83 -88 -83c-47 0 -85 36 -85 83c0 53 38 84 85 84zM325 916c53 0 88 -34 88 -84c0 -41 -35 -83 -88 -83c-47 0 -85 42 -85 83c0 50 38 84 85 84z" />
    <glyph glyph-name="Icircumflex" unicode="&#xce;" horiz-adv-x="493" 
d="M416 704v-156h-116v-395h116v-153h-403v153h116v395h-116v156h403zM165 903h118l138 -126v-14h-156l-44 40l-42 -40h-158v11z" />
    <glyph glyph-name="Iacute" unicode="&#xcd;" horiz-adv-x="493" 
d="M416 704v-156h-116v-395h116v-153h-403v153h116v395h-116v156h403zM388 895v-11l-115 -123h-129v23l63 111h181z" />
    <glyph glyph-name="Odieresis" unicode="&#xd6;" horiz-adv-x="802" 
d="M5 349c0 206 162 362 362 362s363 -156 363 -362c0 -203 -163 -359 -363 -359s-362 153 -362 359zM175 349c0 -131 93 -196 188 -197c97 -1 195 65 195 197c0 134 -98 200 -195 198c-95 -2 -188 -67 -188 -198zM255 920c53 0 88 -34 88 -84c0 -41 -35 -83 -88 -83
c-47 0 -85 36 -85 83c0 53 38 84 85 84zM475 920c53 0 88 -34 88 -84c0 -41 -35 -83 -88 -83c-47 0 -85 42 -85 83c0 50 38 84 85 84z" />
    <glyph glyph-name="Otilde" unicode="&#xd5;" horiz-adv-x="802" 
d="M5 349c0 206 162 362 362 362s363 -156 363 -362c0 -203 -163 -359 -363 -359s-362 153 -362 359zM175 349c0 -131 93 -196 188 -197c97 -1 195 65 195 197c0 134 -98 200 -195 198c-95 -2 -188 -67 -188 -198zM472 939l87 -76c-41 -70 -93 -101 -146 -95
c-65 9 -94 80 -145 8l-90 71c64 108 150 120 228 62c27 -19 46 7 66 30z" />
    <glyph glyph-name="Ocircumflex" unicode="&#xd4;" horiz-adv-x="802" 
d="M5 349c0 206 162 362 362 362s363 -156 363 -362c0 -203 -163 -359 -363 -359s-362 153 -362 359zM175 349c0 -131 93 -196 188 -197c97 -1 195 65 195 197c0 134 -98 200 -195 198c-95 -2 -188 -67 -188 -198zM319 910h118l138 -126v-14h-156l-44 40l-42 -40h-158v11z
" />
    <glyph glyph-name="Oacute" unicode="&#xd3;" horiz-adv-x="802" 
d="M5 349c0 206 162 362 362 362s363 -156 363 -362c0 -203 -163 -359 -363 -359s-362 153 -362 359zM175 349c0 -131 93 -196 188 -197c97 -1 195 65 195 197c0 134 -98 200 -195 198c-95 -2 -188 -67 -188 -198zM555 898v-11l-115 -123h-129v23l63 111h181z" />
    <glyph glyph-name="Ograve" unicode="&#xd2;" horiz-adv-x="802" 
d="M5 349c0 206 162 362 362 362s363 -156 363 -362c0 -203 -163 -359 -363 -359s-362 153 -362 359zM175 349c0 -131 93 -196 188 -197c97 -1 195 65 195 197c0 134 -98 200 -195 198c-95 -2 -188 -67 -188 -198zM209 892v11h181l63 -111v-23h-129z" />
    <glyph glyph-name="Ntilde" unicode="&#xd1;" horiz-adv-x="633" 
d="M180 0h-170v700h132l242 -350v350h169v-700h-134l-239 341v-341zM373 925l87 -76c-41 -70 -93 -101 -146 -95c-65 9 -94 80 -145 8l-90 71c64 108 150 120 228 62c27 -19 46 7 66 30z" />
    <glyph glyph-name="Oslash" unicode="&#xd8;" horiz-adv-x="802" 
d="M5 349c0 206 162 362 362 362c41 0 81 -7 118 -19l47 77h165l-90 -147c75 -66 123 -162 123 -273c0 -203 -163 -359 -363 -359c-46 0 -90 8 -130 23l-50 -82h-165l95 156c-69 64 -112 156 -112 262zM558 349c0 53 -15 95 -40 126l-194 -319c12 -3 26 -4 39 -4
c97 -1 195 65 195 197zM175 349c0 -47 12 -85 31 -115l189 311c-10 1 -21 2 -32 2c-95 -2 -188 -67 -188 -198z" />
    <glyph glyph-name="Yacute" unicode="&#xdd;" horiz-adv-x="733" 
d="M668 700v-18l-251 -399v-283h-171v282l-251 402v16h188l70 -112l79 -143l83 152l64 103h189zM502 894v-11l-115 -123h-129v23l63 111h181z" />
    <glyph glyph-name="Udieresis" unicode="&#xdc;" horiz-adv-x="630" 
d="M279 -10c-135 0 -269 77 -269 235v475h171v-474c0 -105 198 -103 198 0v474h171v-475c0 -158 -136 -236 -271 -235zM170 917c53 0 88 -34 88 -84c0 -41 -35 -83 -88 -83c-47 0 -85 36 -85 83c0 53 38 84 85 84zM390 917c53 0 88 -34 88 -84c0 -41 -35 -83 -88 -83
c-47 0 -85 42 -85 83c0 50 38 84 85 84z" />
    <glyph glyph-name="Ucircumflex" unicode="&#xdb;" horiz-adv-x="630" 
d="M279 -10c-135 0 -269 77 -269 235v475h171v-474c0 -105 198 -103 198 0v474h171v-475c0 -158 -136 -236 -271 -235zM226 910h118l138 -126v-14h-156l-44 40l-42 -40h-158v11z" />
    <glyph glyph-name="Uacute" unicode="&#xda;" horiz-adv-x="630" 
d="M279 -10c-135 0 -269 77 -269 235v475h171v-474c0 -105 198 -103 198 0v474h171v-475c0 -158 -136 -236 -271 -235zM456 899v-11l-115 -123h-129v23l63 111h181z" />
    <glyph glyph-name="Ugrave" unicode="&#xd9;" horiz-adv-x="630" 
d="M279 -10c-135 0 -269 77 -269 235v475h171v-474c0 -105 198 -103 198 0v474h171v-475c0 -158 -136 -236 -271 -235zM113 879v11h181l63 -111v-23h-129z" />
    <glyph glyph-name="aring" unicode="&#xe5;" horiz-adv-x="643" 
d="M314 586c-63 0 -119 41 -119 107c0 67 56 108 119 108c62 0 120 -41 120 -108c0 -66 -58 -107 -120 -107zM314 734c-27 0 -48 -17 -48 -42s21 -38 48 -38c30 0 50 13 50 38s-20 42 -50 42zM276 550c53 0 105 -20 140 -65v56h157v-541h-157v54c-37 -46 -90 -61 -142 -61
c-172 0 -261 138 -260 287c2 148 87 270 262 270zM293 144c68 0 123 58 123 130s-55 131 -123 131c-80 0 -120 -63 -121 -129c-1 -65 40 -132 121 -132z" />
    <glyph glyph-name="adieresis" unicode="&#xe4;" horiz-adv-x="643" 
d="M276 550c53 0 105 -20 140 -65v56h157v-541h-157v54c-37 -46 -90 -61 -142 -61c-172 0 -261 138 -260 287c2 148 87 270 262 270zM293 144c68 0 123 58 123 130s-55 131 -123 131c-80 0 -120 -63 -121 -129c-1 -65 40 -132 121 -132zM220 778c53 0 88 -34 88 -84
c0 -41 -35 -83 -88 -83c-47 0 -85 36 -85 83c0 53 38 84 85 84zM440 778c53 0 88 -34 88 -84c0 -41 -35 -83 -88 -83c-47 0 -85 42 -85 83c0 50 38 84 85 84z" />
    <glyph glyph-name="atilde" unicode="&#xe3;" horiz-adv-x="643" 
d="M276 550c53 0 105 -20 140 -65v56h157v-541h-157v54c-37 -46 -90 -61 -142 -61c-172 0 -261 138 -260 287c2 148 87 270 262 270zM293 144c68 0 123 58 123 130s-55 131 -123 131c-80 0 -120 -63 -121 -129c-1 -65 40 -132 121 -132zM419 778l87 -76
c-41 -70 -93 -101 -146 -95c-65 9 -94 80 -145 8l-90 71c64 108 150 120 228 62c27 -19 46 7 66 30z" />
    <glyph glyph-name="acircumflex" unicode="&#xe2;" horiz-adv-x="643" 
d="M276 550c53 0 105 -20 140 -65v56h157v-541h-157v54c-37 -46 -90 -61 -142 -61c-172 0 -261 138 -260 287c2 148 87 270 262 270zM293 144c68 0 123 58 123 130s-55 131 -123 131c-80 0 -120 -63 -121 -129c-1 -65 40 -132 121 -132zM268 754h118l138 -126v-14h-156
l-44 40l-42 -40h-158v11z" />
    <glyph glyph-name="aacute" unicode="&#xe1;" horiz-adv-x="643" 
d="M276 550c53 0 105 -20 140 -65v56h157v-541h-157v54c-37 -46 -90 -61 -142 -61c-172 0 -261 138 -260 287c2 148 87 270 262 270zM293 144c68 0 123 58 123 130s-55 131 -123 131c-80 0 -120 -63 -121 -129c-1 -65 40 -132 121 -132zM486 754v-11l-115 -123h-129v23
l63 111h181z" />
    <glyph glyph-name="agrave" unicode="&#xe0;" horiz-adv-x="643" 
d="M276 550c53 0 105 -20 140 -65v56h157v-541h-157v54c-37 -46 -90 -61 -142 -61c-172 0 -261 138 -260 287c2 148 87 270 262 270zM293 144c68 0 123 58 123 130s-55 131 -123 131c-80 0 -120 -63 -121 -129c-1 -65 40 -132 121 -132zM160 737v11h181l63 -111v-23h-129z
" />
    <glyph glyph-name="ccedilla" unicode="&#xe7;" horiz-adv-x="614" 
d="M210 -92l-10 15l32 76c-117 21 -219 113 -219 272c0 350 501 373 545 40h-156c-40 134 -235 113 -235 -40s194 -175 235 -41h156c-18 -130 -105 -205 -204 -228l-9 -24c64 -10 104 -48 89 -118c-18 -84 -99 -107 -165 -107c-54 0 -110 20 -134 83l85 47
c9 -19 34 -30 55 -29c27 0 40 11 43 24c10 47 -80 48 -108 30z" />
    <glyph glyph-name="edieresis" unicode="&#xeb;" 
d="M572 272c0 -22 -2 -42 -6 -62h-388c19 -50 68 -75 116 -76c35 0 68 12 91 37h171c-42 -120 -156 -179 -270 -177c-137 3 -273 95 -273 278c0 186 141 278 282 277c139 -1 277 -93 277 -277zM184 333h216c-15 54 -59 79 -110 79c-47 0 -90 -26 -106 -79zM182 763
c53 0 88 -34 88 -84c0 -41 -35 -83 -88 -83c-47 0 -85 36 -85 83c0 53 38 84 85 84zM402 763c53 0 88 -34 88 -84c0 -41 -35 -83 -88 -83c-47 0 -85 42 -85 83c0 50 38 84 85 84z" />
    <glyph glyph-name="ecircumflex" unicode="&#xea;" 
d="M572 272c0 -22 -2 -42 -6 -62h-388c19 -50 68 -75 116 -76c35 0 68 12 91 37h171c-42 -120 -156 -179 -270 -177c-137 3 -273 95 -273 278c0 186 141 278 282 277c139 -1 277 -93 277 -277zM184 333h216c-15 54 -59 79 -110 79c-47 0 -90 -26 -106 -79zM236 749h118
l138 -126v-14h-156l-44 40l-42 -40h-158v11z" />
    <glyph glyph-name="eacute" unicode="&#xe9;" 
d="M572 272c0 -22 -2 -42 -6 -62h-388c19 -50 68 -75 116 -76c35 0 68 12 91 37h171c-42 -120 -156 -179 -270 -177c-137 3 -273 95 -273 278c0 186 141 278 282 277c139 -1 277 -93 277 -277zM184 333h216c-15 54 -59 79 -110 79c-47 0 -90 -26 -106 -79zM464 747v-11
l-115 -123h-129v23l63 111h181z" />
    <glyph glyph-name="egrave" unicode="&#xe8;" 
d="M572 272c0 -22 -2 -42 -6 -62h-388c19 -50 68 -75 116 -76c35 0 68 12 91 37h171c-42 -120 -156 -179 -270 -177c-137 3 -273 95 -273 278c0 186 141 278 282 277c139 -1 277 -93 277 -277zM184 333h216c-15 54 -59 79 -110 79c-47 0 -90 -26 -106 -79zM143 740v11h181
l63 -111v-23h-129z" />
    <glyph glyph-name="idieresis" unicode="&#xef;" horiz-adv-x="268" 
d="M36 541h160l1 -541h-160zM7 762c53 0 88 -34 88 -84c0 -41 -35 -83 -88 -83c-47 0 -85 36 -85 83c0 53 38 84 85 84zM227 762c53 0 88 -34 88 -84c0 -41 -35 -83 -88 -83c-47 0 -85 42 -85 83c0 50 38 84 85 84z" />
    <glyph glyph-name="icircumflex" unicode="&#xee;" horiz-adv-x="268" 
d="M36 541h160l1 -541h-160zM69 761h118l138 -126v-14h-156l-44 40l-42 -40h-158v11z" />
    <glyph glyph-name="iacute" unicode="&#xed;" horiz-adv-x="268" 
d="M36 541h160l1 -541h-160zM282 754v-11l-115 -123h-129v23l63 111h181z" />
    <glyph glyph-name="igrave" unicode="&#xec;" horiz-adv-x="268" 
d="M36 541h160l1 -541h-160zM-46 740v11h181l63 -111v-23h-129z" />
    <glyph glyph-name="odieresis" unicode="&#xf6;" horiz-adv-x="633" 
d="M581 270c0 -385 -577 -383 -577 0c0 386 577 385 577 0zM162 270c0 -181 261 -182 261 0c0 184 -261 183 -261 0zM186 774c53 0 88 -34 88 -84c0 -41 -35 -83 -88 -83c-47 0 -85 36 -85 83c0 53 38 84 85 84zM406 774c53 0 88 -34 88 -84c0 -41 -35 -83 -88 -83
c-47 0 -85 42 -85 83c0 50 38 84 85 84z" />
    <glyph glyph-name="otilde" unicode="&#xf5;" horiz-adv-x="633" 
d="M581 270c0 -385 -577 -383 -577 0c0 386 577 385 577 0zM162 270c0 -181 261 -182 261 0c0 184 -261 183 -261 0zM405 785l87 -76c-41 -70 -93 -101 -146 -95c-65 9 -94 80 -145 8l-90 71c64 108 150 120 228 62c27 -19 46 7 66 30z" />
    <glyph glyph-name="ocircumflex" unicode="&#xf4;" horiz-adv-x="633" 
d="M581 270c0 -385 -577 -383 -577 0c0 386 577 385 577 0zM162 270c0 -181 261 -182 261 0c0 184 -261 183 -261 0zM245 758h118l138 -126v-14h-156l-44 40l-42 -40h-158v11z" />
    <glyph glyph-name="ograve" unicode="&#xf2;" horiz-adv-x="633" 
d="M581 270c0 -385 -577 -383 -577 0c0 386 577 385 577 0zM162 270c0 -181 261 -182 261 0c0 184 -261 183 -261 0zM144 745v11h181l63 -111v-23h-129z" />
    <glyph glyph-name="ntilde" unicode="&#xf1;" horiz-adv-x="607" 
d="M23 541h159v-54c38 48 102 62 160 62c154 -2 196 -116 195 -251v-298h-160v297c0 73 -41 106 -84 106c-47 0 -103 -40 -103 -109v-294h-167v541zM384 779l87 -76c-41 -70 -93 -101 -146 -95c-65 9 -94 80 -145 8l-90 71c64 108 150 120 228 62c27 -19 46 7 66 30z" />
    <glyph glyph-name="oacute" unicode="&#xf3;" horiz-adv-x="633" 
d="M581 270c0 -385 -577 -383 -577 0c0 386 577 385 577 0zM162 270c0 -181 261 -182 261 0c0 184 -261 183 -261 0zM468 756v-11l-115 -123h-129v23l63 111h181z" />
    <glyph glyph-name="oslash" unicode="&#xf8;" horiz-adv-x="633" 
d="M581 270c0 -229 -204 -321 -370 -277l-36 -66h-150l70 126c-55 48 -91 120 -91 217c0 230 204 322 370 278l36 65h150l-71 -126c55 -48 92 -120 92 -217zM162 270c0 -28 6 -51 16 -70l116 207c-66 1 -132 -45 -132 -137zM423 270c0 27 -6 51 -16 70l-116 -206
c65 -1 132 44 132 136z" />
    <glyph glyph-name="ydieresis" unicode="&#xff;" horiz-adv-x="575" 
d="M131 773c53 0 88 -34 88 -84c0 -41 -35 -83 -88 -83c-47 0 -85 36 -85 83c0 53 38 84 85 84zM404 773c53 0 88 -34 88 -84c0 -41 -35 -83 -88 -83c-47 0 -85 42 -85 83c0 50 38 84 85 84zM263 231l40 137l67 173h163v-25c-89 -225 -178 -449 -266 -674h-163v24l70 178
l-180 472v25h164l67 -173z" />
    <glyph glyph-name="yacute" unicode="&#xfd;" horiz-adv-x="575" 
d="M263 231l40 137l67 173h163v-25c-89 -225 -178 -449 -266 -674h-163v24l70 178l-180 472v25h164l67 -173zM423 761v-11l-115 -123h-129v23l63 111h181z" />
    <glyph glyph-name="udieresis" unicode="&#xfc;" horiz-adv-x="604" 
d="M161 770c53 0 88 -34 88 -84c0 -41 -35 -83 -88 -83c-47 0 -85 36 -85 83c0 53 38 84 85 84zM413 770c53 0 88 -34 88 -84c0 -41 -35 -83 -88 -83c-47 0 -85 42 -85 83c0 50 38 84 85 84zM534 0h-159v55c-38 -49 -95 -63 -153 -62c-154 1 -196 116 -195 250v298h159v-297
c0 -156 181 -135 181 3v294h167v-541z" />
    <glyph glyph-name="ucircumflex" unicode="&#xfb;" horiz-adv-x="604" 
d="M534 0h-159v55c-38 -49 -95 -63 -153 -62c-154 1 -196 116 -195 250v298h159v-297c0 -156 181 -135 181 3v294h167v-541zM215 756h118l138 -126v-14h-156l-44 40l-42 -40h-158v11z" />
    <glyph glyph-name="uacute" unicode="&#xfa;" horiz-adv-x="604" 
d="M534 0h-159v55c-38 -49 -95 -63 -153 -62c-154 1 -196 116 -195 250v298h159v-297c0 -156 181 -135 181 3v294h167v-541zM435 751v-11l-115 -123h-129v23l63 111h181z" />
    <glyph glyph-name="ugrave" unicode="&#xf9;" horiz-adv-x="604" 
d="M534 0h-159v55c-38 -49 -95 -63 -153 -62c-154 1 -196 116 -195 250v298h159v-297c0 -156 181 -135 181 3v294h167v-541zM113 738v11h181l63 -111v-23h-129z" />
    <glyph glyph-name="Cacute" unicode="&#x106;" horiz-adv-x="795" 
d="M174 349c0 -133 97 -199 194 -198c81 1 161 49 183 143h173c-26 -183 -176 -304 -358 -304c-200 0 -362 153 -362 359s162 362 362 362c180 0 335 -122 357 -302h-173c-23 92 -103 138 -182 139c-97 1 -194 -65 -194 -199zM539 892v-11l-115 -123h-129v23l63 111h181z
" />
    <glyph glyph-name="Amacron" unicode="&#x100;" horiz-adv-x="744" 
d="M495 0l-39 103h-239l-39 -103h-183l280 708h122l291 -708h-193zM337 426l-52 -148l-6 -16h116l-4 12zM181 768v125h305v-125h-305z" />
    <glyph glyph-name="amacron" unicode="&#x101;" horiz-adv-x="643" 
d="M276 550c53 0 105 -20 140 -65v56h157v-541h-157v54c-37 -46 -90 -61 -142 -61c-172 0 -261 138 -260 287c2 148 87 270 262 270zM293 144c68 0 123 58 123 130s-55 131 -123 131c-80 0 -120 -63 -121 -129c-1 -65 40 -132 121 -132zM167 617v134h305v-134h-305z" />
    <glyph glyph-name="Abreve" unicode="&#x102;" horiz-adv-x="744" 
d="M495 0l-39 103h-239l-39 -103h-183l280 708h122l291 -708h-193zM337 426l-52 -148l-6 -16h116l-4 12zM374 899h128c0 -192 -322 -199 -322 0h123c1 -43 72 -40 71 0z" />
    <glyph glyph-name="abreve" unicode="&#x103;" horiz-adv-x="643" 
d="M276 550c53 0 105 -20 140 -65v56h157v-541h-157v54c-37 -46 -90 -61 -142 -61c-172 0 -261 138 -260 287c2 148 87 270 262 270zM293 144c68 0 123 58 123 130s-55 131 -123 131c-80 0 -120 -63 -121 -129c-1 -65 40 -132 121 -132zM344 761h128
c0 -192 -322 -199 -322 0h123c1 -43 72 -40 71 0z" />
    <glyph glyph-name="cacute" unicode="&#x107;" horiz-adv-x="614" 
d="M402 230h156c-45 -332 -545 -309 -545 41s501 373 545 40h-156c-40 134 -235 113 -235 -40s194 -175 235 -41zM454 751v-11l-115 -123h-129v23l63 111h181z" />
    <glyph glyph-name="ccircumflex" unicode="&#x109;" horiz-adv-x="614" 
d="M402 230h156c-45 -332 -545 -309 -545 41s501 373 545 40h-156c-40 134 -235 113 -235 -40s194 -175 235 -41zM236 758h118l138 -126v-14h-156l-44 40l-42 -40h-158v11z" />
    <glyph glyph-name="Ccircumflex" unicode="&#x108;" horiz-adv-x="795" 
d="M174 349c0 -133 97 -199 194 -198c81 1 161 49 183 143h173c-26 -183 -176 -304 -358 -304c-200 0 -362 153 -362 359s162 362 362 362c180 0 335 -122 357 -302h-173c-23 92 -103 138 -182 139c-97 1 -194 -65 -194 -199zM307 910h118l138 -126v-14h-156l-44 40l-42 -40
h-158v11z" />
    <glyph glyph-name="cdotaccent" unicode="&#x10b;" horiz-adv-x="614" 
d="M402 230h156c-45 -332 -545 -309 -545 41s501 373 545 40h-156c-40 134 -235 113 -235 -40s194 -175 235 -41zM198 696c0 58 46 87 92 87c45 0 91 -27 91 -87c0 -58 -46 -87 -92 -87c-44 0 -91 28 -91 87z" />
    <glyph glyph-name="Cdotaccent" unicode="&#x10a;" horiz-adv-x="795" 
d="M174 349c0 -133 97 -199 194 -198c81 1 161 49 183 143h173c-26 -183 -176 -304 -358 -304c-200 0 -362 153 -362 359s162 362 362 362c180 0 335 -122 357 -302h-173c-23 92 -103 138 -182 139c-97 1 -194 -65 -194 -199zM272 856c0 58 46 87 92 87c45 0 91 -27 91 -87
c0 -58 -46 -87 -92 -87c-44 0 -91 28 -91 87z" />
    <glyph glyph-name="ccaron" unicode="&#x10d;" horiz-adv-x="614" 
d="M402 230h156c-45 -332 -545 -309 -545 41s501 373 545 40h-156c-40 134 -235 113 -235 -40s194 -175 235 -41zM346 615h-118l-138 126v14h156l44 -40l42 40h158v-11z" />
    <glyph glyph-name="Ccaron" unicode="&#x10c;" horiz-adv-x="795" 
d="M174 349c0 -133 97 -199 194 -198c81 1 161 49 183 143h173c-26 -183 -176 -304 -358 -304c-200 0 -362 153 -362 359s162 362 362 362c180 0 335 -122 357 -302h-173c-23 92 -103 138 -182 139c-97 1 -194 -65 -194 -199zM430 779h-118l-138 126v14h156l44 -40l42 40
h158v-11z" />
    <glyph glyph-name="Dcaron" unicode="&#x10e;" horiz-adv-x="692" 
d="M180 163h108c118 0 178 94 178 186s-60 189 -178 189h-108v-375zM10 700h278c231 0 347 -176 347 -351s-116 -349 -347 -349h-278v700zM327 769h-118l-138 126v14h156l44 -40l42 40h158v-11z" />
    <glyph glyph-name="dcaron" unicode="&#x10f;" horiz-adv-x="890" 
d="M276 550c53 0 104 -17 140 -58v213h157v-705h-157v54c-37 -46 -90 -61 -142 -61c-172 0 -261 138 -260 287c2 148 87 270 262 270zM293 144c68 0 123 58 123 130s-55 131 -123 131c-80 0 -120 -63 -121 -129c-1 -65 40 -132 121 -132zM845 707v-46l-91 -174h-136l82 220
h145z" />
    <glyph glyph-name="dcroat" unicode="&#x111;" horiz-adv-x="643" 
d="M352 574v84h64v47h157v-47h64v-84h-64v-574h-157v54c-37 -46 -90 -61 -142 -61c-172 0 -261 138 -260 287c2 148 87 270 262 270c53 0 104 -17 140 -58v82h-64zM293 144c68 0 123 58 123 130s-55 131 -123 131c-80 0 -120 -63 -121 -129c-1 -65 40 -132 121 -132z" />
    <glyph glyph-name="Emacron" unicode="&#x112;" horiz-adv-x="548" 
d="M182 277v-112h290v-165h-462v706h461v-165h-289v-98h283v-166h-283zM93 761v126h314v-126h-314z" />
    <glyph glyph-name="emacron" unicode="&#x113;" 
d="M572 272c0 -22 -2 -42 -6 -62h-388c19 -50 68 -75 116 -76c35 0 68 12 91 37h171c-42 -120 -156 -179 -270 -177c-137 3 -273 95 -273 278c0 186 141 278 282 277c139 -1 277 -93 277 -277zM184 333h216c-15 54 -59 79 -110 79c-47 0 -90 -26 -106 -79zM138 626v127h306
v-127h-306z" />
    <glyph glyph-name="Ebreve" unicode="&#x114;" horiz-adv-x="548" 
d="M182 277v-112h290v-165h-462v706h461v-165h-289v-98h283v-166h-283zM285 907h128c0 -192 -322 -199 -322 0h123c1 -43 72 -40 71 0z" />
    <glyph glyph-name="ebreve" unicode="&#x115;" 
d="M572 272c0 -22 -2 -42 -6 -62h-388c19 -50 68 -75 116 -76c35 0 68 12 91 37h171c-42 -120 -156 -179 -270 -177c-137 3 -273 95 -273 278c0 186 141 278 282 277c139 -1 277 -93 277 -277zM184 333h216c-15 54 -59 79 -110 79c-47 0 -90 -26 -106 -79zM331 757h128
c0 -192 -322 -199 -322 0h123c1 -43 72 -40 71 0z" />
    <glyph glyph-name="Edotaccent" unicode="&#x116;" horiz-adv-x="548" 
d="M182 277v-112h290v-165h-462v706h461v-165h-289v-98h283v-166h-283zM166 848c0 58 46 87 92 87c45 0 91 -27 91 -87c0 -58 -46 -87 -92 -87c-44 0 -91 28 -91 87z" />
    <glyph glyph-name="edotaccent" unicode="&#x117;" 
d="M572 272c0 -22 -2 -42 -6 -62h-388c19 -50 68 -75 116 -76c35 0 68 12 91 37h171c-42 -120 -156 -179 -270 -177c-137 3 -273 95 -273 278c0 186 141 278 282 277c139 -1 277 -93 277 -277zM184 333h216c-15 54 -59 79 -110 79c-47 0 -90 -26 -106 -79zM209 684
c0 58 46 87 92 87c45 0 91 -27 91 -87c0 -58 -46 -87 -92 -87c-44 0 -91 28 -91 87z" />
    <glyph glyph-name="ecaron" unicode="&#x11b;" 
d="M572 272c0 -22 -2 -42 -6 -62h-388c19 -50 68 -75 116 -76c35 0 68 12 91 37h171c-42 -120 -156 -179 -270 -177c-137 3 -273 95 -273 278c0 186 141 278 282 277c139 -1 277 -93 277 -277zM184 333h216c-15 54 -59 79 -110 79c-47 0 -90 -26 -106 -79zM356 614h-118
l-138 126v14h156l44 -40l42 40h158v-11z" />
    <glyph glyph-name="Ecaron" unicode="&#x11a;" horiz-adv-x="548" 
d="M182 277v-112h290v-165h-462v706h461v-165h-289v-98h283v-166h-283zM311 762h-118l-138 126v14h156l44 -40l42 40h158v-11z" />
    <glyph glyph-name="Gcircumflex" unicode="&#x11c;" horiz-adv-x="789" 
d="M361 543c-103 0 -181 -81 -181 -194c0 -119 78 -197 181 -197c47 0 101 15 138 65h-214v153h428c0 -81 -14 -132 -25 -158c-49 -134 -196 -223 -327 -223c-202 0 -354 151 -354 360c0 210 156 361 354 361c136 0 321 -75 350 -295h-180c-25 100 -106 128 -170 128z
M308 903h118l138 -126v-14h-156l-44 40l-42 -40h-158v11z" />
    <glyph glyph-name="gcircumflex" unicode="&#x11d;" 
d="M273 2c-174 0 -261 115 -261 264c0 156 88 282 260 281c52 0 105 -14 141 -60v54h157v-510c0 -200 -138 -281 -275 -281c-134 0 -267 81 -267 212h165c0 -33 47 -60 97 -59c57 1 118 32 123 127v28c-35 -41 -86 -56 -140 -56zM291 397c-82 0 -122 -68 -121 -133
c1 -76 61 -113 121 -113c61 1 122 40 122 115c0 72 -55 131 -122 131zM261 756h118l138 -126v-14h-156l-44 40l-42 -40h-158v11z" />
    <glyph glyph-name="Gbreve" unicode="&#x11e;" horiz-adv-x="789" 
d="M361 543c-103 0 -181 -81 -181 -194c0 -119 78 -197 181 -197c47 0 101 15 138 65h-214v153h428c0 -81 -14 -132 -25 -158c-49 -134 -196 -223 -327 -223c-202 0 -354 151 -354 360c0 210 156 361 354 361c136 0 321 -75 350 -295h-180c-25 100 -106 128 -170 128z
M398 908h128c0 -192 -322 -199 -322 0h123c1 -43 72 -40 71 0z" />
    <glyph glyph-name="gbreve" unicode="&#x11f;" 
d="M273 2c-174 0 -261 115 -261 264c0 156 88 282 260 281c52 0 105 -14 141 -60v54h157v-510c0 -200 -138 -281 -275 -281c-134 0 -267 81 -267 212h165c0 -33 47 -60 97 -59c57 1 118 32 123 127v28c-35 -41 -86 -56 -140 -56zM291 397c-82 0 -122 -68 -121 -133
c1 -76 61 -113 121 -113c61 1 122 40 122 115c0 72 -55 131 -122 131zM340 757h128c0 -192 -322 -199 -322 0h123c1 -43 72 -40 71 0z" />
    <glyph glyph-name="Gdotaccent" unicode="&#x120;" horiz-adv-x="789" 
d="M361 543c-103 0 -181 -81 -181 -194c0 -119 78 -197 181 -197c47 0 101 15 138 65h-214v153h428c0 -81 -14 -132 -25 -158c-49 -134 -196 -223 -327 -223c-202 0 -354 151 -354 360c0 210 156 361 354 361c136 0 321 -75 350 -295h-180c-25 100 -106 128 -170 128z
M265 856c0 58 46 87 92 87c45 0 91 -27 91 -87c0 -58 -46 -87 -92 -87c-44 0 -91 28 -91 87z" />
    <glyph glyph-name="gdotaccent" unicode="&#x121;" 
d="M273 2c-174 0 -261 115 -261 264c0 156 88 282 260 281c52 0 105 -14 141 -60v54h157v-510c0 -200 -138 -281 -275 -281c-134 0 -267 81 -267 212h165c0 -33 47 -60 97 -59c57 1 118 32 123 127v28c-35 -41 -86 -56 -140 -56zM291 397c-82 0 -122 -68 -121 -133
c1 -76 61 -113 121 -113c61 1 122 40 122 115c0 72 -55 131 -122 131zM208 696c0 58 46 87 92 87c45 0 91 -27 91 -87c0 -58 -46 -87 -92 -87c-44 0 -91 28 -91 87z" />
    <glyph glyph-name="Gcommaaccent" unicode="&#x122;" horiz-adv-x="789" 
d="M285 -89h160c16 -54 12 -110 -27 -156h-141c20 58 30 98 8 156zM361 543c-103 0 -181 -81 -181 -194c0 -119 78 -197 181 -197c47 0 101 15 138 65h-214v153h428c0 -81 -14 -132 -25 -158c-49 -134 -196 -223 -327 -223c-202 0 -354 151 -354 360c0 210 156 361 354 361
c136 0 321 -75 350 -295h-180c-25 100 -106 128 -170 128z" />
    <glyph glyph-name="gcommaaccent" unicode="&#x123;" 
d="M389 613h-160c-16 54 -12 110 27 156h141c-20 -58 -30 -98 -8 -156zM273 2c-174 0 -261 115 -261 264c0 156 88 282 260 281c52 0 105 -14 141 -60v54h157v-510c0 -200 -138 -281 -275 -281c-134 0 -267 81 -267 212h165c0 -33 47 -60 97 -59c57 1 118 32 123 127v28
c-35 -41 -86 -56 -140 -56zM291 397c-82 0 -122 -68 -121 -133c1 -76 61 -113 121 -113c61 1 122 40 122 115c0 72 -55 131 -122 131z" />
    <glyph glyph-name="hcircumflex" unicode="&#x125;" horiz-adv-x="607" 
d="M24 705h159v-218c39 48 101 62 159 62c154 -2 197 -116 195 -251v-298h-159v297c0 71 -39 102 -81 103c-48 1 -106 -40 -106 -106v-294h-167v705zM149 904h118l138 -126v-14h-156l-44 40l-42 -40h-158v11z" />
    <glyph glyph-name="Hcircumflex" unicode="&#x124;" horiz-adv-x="616" 
d="M181 700v-264h204v264h171v-700h-171v271h-204v-271h-171v700h171zM223 902h118l138 -126v-14h-156l-44 40l-42 -40h-158v11z" />
    <glyph glyph-name="Hbar" unicode="&#x126;" horiz-adv-x="669" 
d="M-5 507v111h41v82h171v-82h204v82h171v-82h54v-111h-54v-507h-171v271h-204v-271h-171v507h-41zM207 436h204v71h-204v-71z" />
    <glyph glyph-name="hbar" unicode="&#x127;" horiz-adv-x="607" 
d="M-30 571v80h54v54h159v-54h59v-80h-59v-84c39 48 101 62 159 62c154 -2 197 -116 195 -251v-298h-159v297c0 71 -39 102 -81 103c-48 1 -106 -40 -106 -106v-294h-167v571h-54z" />
    <glyph glyph-name="itilde" unicode="&#x129;" horiz-adv-x="268" 
d="M36 541h160l1 -541h-160zM205 764l80 -74c-38 -69 -85 -99 -134 -94c-59 9 -86 79 -132 8l-82 70c58 106 137 118 208 61c24 -19 42 7 60 29z" />
    <glyph glyph-name="Itilde" unicode="&#x128;" horiz-adv-x="493" 
d="M416 704v-156h-116v-395h116v-153h-403v153h116v395h-116v156h403zM314 923l87 -76c-41 -70 -93 -101 -146 -95c-65 9 -94 80 -145 8l-90 71c64 108 150 120 228 62c27 -19 46 7 66 30z" />
    <glyph glyph-name="Imacron" unicode="&#x12a;" horiz-adv-x="493" 
d="M416 704v-156h-116v-395h116v-153h-403v153h116v395h-116v156h403zM62 755v127h302v-127h-302z" />
    <glyph glyph-name="imacron" unicode="&#x12b;" horiz-adv-x="268" 
d="M36 541h160l1 -541h-160zM-29 604v123h287v-123h-287z" />
    <glyph glyph-name="Ibreve" unicode="&#x12c;" horiz-adv-x="493" 
d="M416 704v-156h-116v-395h116v-153h-403v153h116v395h-116v156h403zM250 901h128c0 -192 -322 -199 -322 0h123c1 -43 72 -40 71 0z" />
    <glyph glyph-name="ibreve" unicode="&#x12d;" horiz-adv-x="268" 
d="M36 541h160l1 -541h-160zM152 753h128c0 -192 -322 -199 -322 0h123c1 -43 72 -40 71 0z" />
    <glyph glyph-name="Iogonek" unicode="&#x12e;" horiz-adv-x="493" 
d="M358 -101l2 -3l-94 -100s-145 -15 -161 89h1c-8 54 23 92 51 115h-144v153h116v395h-116v156h403v-156h-116v-395h116v-153h-107c-58 -36 -29 -111 49 -101z" />
    <glyph glyph-name="iogonek" unicode="&#x12f;" horiz-adv-x="268" 
d="M239 -93l2 -3l-88 -94s-135 -14 -150 83h1c-7 50 21 85 47 107h-14v541h160v-541h-6c-52 -34 -25 -103 48 -93z" />
    <glyph glyph-name="Idotaccent" unicode="&#x130;" horiz-adv-x="493" 
d="M416 704v-156h-116v-395h116v-153h-403v153h116v395h-116v156h403zM125 840c0 58 46 87 92 87c45 0 91 -27 91 -87c0 -58 -46 -87 -92 -87c-44 0 -91 28 -91 87z" />
    <glyph glyph-name="Jcircumflex" unicode="&#x134;" horiz-adv-x="498" 
d="M418 705v-397c0 -223 -112 -308 -410 -308v160c185 0 240 40 240 148v240h-169v157h339zM173 906h118l138 -126v-14h-156l-44 40l-42 -40h-158v11z" />
    <glyph glyph-name="jcircumflex" unicode="&#x135;" horiz-adv-x="266" 
d="M196 -23v564h-157v-561c0 -65 -63 -77 -115 -65l-6 -130c149 -31 278 27 278 192zM54 764h118l138 -126v-14h-156l-44 40l-42 -40h-158v11z" />
    <glyph glyph-name="Kcommaaccent" unicode="&#x136;" horiz-adv-x="655" 
d="M209 -75h160c16 -54 12 -110 -27 -156h-141c20 58 30 98 8 156zM578 700v-10l-248 -338l271 -343v-9h-212l-208 271v-271h-171v700h171v-272l194 272h203z" />
    <glyph glyph-name="kgreenlandic" unicode="&#x138;" horiz-adv-x="559" 
d="M187 346v-18l149 213h172v-8l-183 -261l201 -265v-7h-184l-155 211v-15v-196h-157v541h157v-195z" />
    <glyph glyph-name="kcommaaccent" unicode="&#x137;" horiz-adv-x="559" 
d="M209 -75h160c16 -54 12 -110 -27 -156h-141c20 58 30 98 8 156zM187 346v-18l149 213h172v-8l-183 -261l201 -265v-7h-184l-155 211v-15v-196h-157v700h157v-354z" />
    <glyph glyph-name="Lacute" unicode="&#x139;" horiz-adv-x="545" 
d="M181 700v-535h294v-165h-465v700h171zM277 884v-11l-115 -123h-129v23l63 111h181z" />
    <glyph glyph-name="lacute" unicode="&#x13a;" horiz-adv-x="249" 
d="M24 700h160v-700h-160v700zM269 889v-11l-115 -123h-129v23l63 111h181z" />
    <glyph glyph-name="lcommaaccent" unicode="&#x13c;" horiz-adv-x="249" 
d="M23 -54h160c16 -54 12 -110 -27 -156h-141c20 58 30 98 8 156zM24 700h160v-700h-160v700z" />
    <glyph glyph-name="Lcommaaccent" unicode="&#x13b;" horiz-adv-x="545" 
d="M156 -53h160c16 -54 12 -110 -27 -156h-141c20 58 30 98 8 156zM181 700v-535h294v-165h-465v700h171z" />
    <glyph glyph-name="Lcaron" unicode="&#x13d;" horiz-adv-x="545" 
d="M307 702h160c16 -54 12 -110 -27 -156h-141c20 58 30 98 8 156zM181 700v-535h294v-165h-465v700h171z" />
    <glyph glyph-name="lcaron" unicode="&#x13e;" horiz-adv-x="481" 
d="M269 699h138c14 -62 11 -126 -23 -178h-122c17 66 26 112 7 178zM24 700h160v-700h-160v700z" />
    <glyph glyph-name="ldot" unicode="&#x140;" horiz-adv-x="490" 
d="M24 700h160v-700h-160v700zM337 435c54 0 93 -36 93 -89c0 -44 -39 -89 -93 -89c-50 0 -90 45 -90 89c0 53 40 89 90 89z" />
    <glyph glyph-name="Ldot" unicode="&#x13f;" horiz-adv-x="545" 
d="M181 700v-535h294v-165h-465v700h171zM355 508c54 0 93 -36 93 -89c0 -44 -39 -89 -93 -89c-50 0 -90 45 -90 89c0 53 40 89 90 89z" />
    <glyph glyph-name="ncommaaccent" unicode="&#x146;" horiz-adv-x="607" 
d="M209 -65h160c16 -54 12 -110 -27 -156h-141c20 58 30 98 8 156zM23 541h159v-54c38 48 102 62 160 62c154 -2 196 -116 195 -251v-298h-160v297c0 73 -41 106 -84 106c-47 0 -103 -40 -103 -109v-294h-167v541z" />
    <glyph glyph-name="Ncommaaccent" unicode="&#x145;" horiz-adv-x="633" 
d="M219 -73h160c16 -54 12 -110 -27 -156h-141c20 58 30 98 8 156zM180 0h-170v700h132l242 -350v350h169v-700h-134l-239 341v-341z" />
    <glyph glyph-name="Nacute" unicode="&#x143;" horiz-adv-x="633" 
d="M180 0h-170v700h132l242 -350v350h169v-700h-134l-239 341v-341zM455 887v-11l-115 -123h-129v23l63 111h181z" />
    <glyph glyph-name="nacute" unicode="&#x144;" horiz-adv-x="607" 
d="M23 541h159v-54c38 48 102 62 160 62c154 -2 196 -116 195 -251v-298h-160v297c0 73 -41 106 -84 106c-47 0 -103 -40 -103 -109v-294h-167v541zM447 757v-11l-115 -123h-129v23l63 111h181z" />
    <glyph glyph-name="ncaron" unicode="&#x148;" horiz-adv-x="607" 
d="M23 541h159v-54c38 48 102 62 160 62c154 -2 196 -116 195 -251v-298h-160v297c0 73 -41 106 -84 106c-47 0 -103 -40 -103 -109v-294h-167v541zM347 622h-118l-138 126v14h156l44 -40l42 40h158v-11z" />
    <glyph glyph-name="Ncaron" unicode="&#x147;" horiz-adv-x="633" 
d="M180 0h-170v700h132l242 -350v350h169v-700h-134l-239 341v-341zM328 760h-118l-138 126v14h156l44 -40l42 40h158v-11z" />
    <glyph glyph-name="ohungarumlaut" unicode="&#x151;" horiz-adv-x="633" 
d="M581 270c0 -385 -577 -383 -577 0c0 386 577 385 577 0zM162 270c0 -181 261 -182 261 0c0 184 -261 183 -261 0zM295 614l93 143h170l-118 -143h-145zM109 614l86 143h159l-102 -143h-143z" />
    <glyph glyph-name="Ohungarumlaut" unicode="&#x150;" horiz-adv-x="802" 
d="M5 349c0 206 162 362 362 362s363 -156 363 -362c0 -203 -163 -359 -363 -359s-362 153 -362 359zM175 349c0 -131 93 -196 188 -197c97 -1 195 65 195 197c0 134 -98 200 -195 198c-95 -2 -188 -67 -188 -198zM380 762l93 143h170l-118 -143h-145zM194 762l86 143h159
l-102 -143h-143z" />
    <glyph glyph-name="obreve" unicode="&#x14f;" horiz-adv-x="633" 
d="M581 270c0 -385 -577 -383 -577 0c0 386 577 385 577 0zM162 270c0 -181 261 -182 261 0c0 184 -261 183 -261 0zM334 760h128c0 -192 -322 -199 -322 0h123c1 -43 72 -40 71 0z" />
    <glyph glyph-name="Obreve" unicode="&#x14e;" horiz-adv-x="802" 
d="M5 349c0 206 162 362 362 362s363 -156 363 -362c0 -203 -163 -359 -363 -359s-362 153 -362 359zM175 349c0 -131 93 -196 188 -197c97 -1 195 65 195 197c0 134 -98 200 -195 198c-95 -2 -188 -67 -188 -198zM407 911h128c0 -192 -322 -199 -322 0h123
c1 -43 72 -40 71 0z" />
    <glyph glyph-name="omacron" unicode="&#x14d;" horiz-adv-x="633" 
d="M581 270c0 -385 -577 -383 -577 0c0 386 577 385 577 0zM162 270c0 -181 261 -182 261 0c0 184 -261 183 -261 0zM141 614v127h308v-127h-308z" />
    <glyph glyph-name="Omacron" unicode="&#x14c;" horiz-adv-x="802" 
d="M5 349c0 206 162 362 362 362s363 -156 363 -362c0 -203 -163 -359 -363 -359s-362 153 -362 359zM175 349c0 -131 93 -196 188 -197c97 -1 195 65 195 197c0 134 -98 200 -195 198c-95 -2 -188 -67 -188 -198zM214 769v124h306v-124h-306z" />
    <glyph glyph-name="rcommaaccent" unicode="&#x157;" horiz-adv-x="410" 
d="M32 -64h160c16 -54 12 -110 -27 -156h-141c20 58 30 98 8 156zM187 300v-300h-157v541h142l6 -36c35 33 74 47 118 47c19 0 40 -3 61 -8l-2 -148c-16 5 -35 8 -53 8c-57 -1 -115 -31 -115 -104z" />
    <glyph glyph-name="Rcommaaccent" unicode="&#x156;" horiz-adv-x="609" 
d="M186 -63h160c16 -54 12 -110 -27 -156h-141c20 58 30 98 8 156zM208 237h-28v-237h-170v706h272c162 0 243 -120 241 -237c-2 -84 -47 -172 -137 -215l150 -222v-32h-182zM180 542v-150h98c50 0 77 37 78 72c1 37 -25 78 -78 78h-98z" />
    <glyph glyph-name="Racute" unicode="&#x154;" horiz-adv-x="609" 
d="M208 237h-28v-237h-170v706h272c162 0 243 -120 241 -237c-2 -84 -47 -172 -137 -215l150 -222v-32h-182zM180 542v-150h98c50 0 77 37 78 72c1 37 -25 78 -78 78h-98zM389 891v-11l-115 -123h-129v23l63 111h181z" />
    <glyph glyph-name="racute" unicode="&#x155;" horiz-adv-x="410" 
d="M187 300v-300h-157v541h142l6 -36c35 33 74 47 118 47c19 0 40 -3 61 -8l-2 -148c-16 5 -35 8 -53 8c-57 -1 -115 -31 -115 -104zM330 744v-11l-115 -123h-129v23l63 111h181z" />
    <glyph glyph-name="rcaron" unicode="&#x159;" horiz-adv-x="410" 
d="M187 300v-300h-157v541h142l6 -36c35 33 74 47 118 47c19 0 40 -3 61 -8l-2 -148c-16 5 -35 8 -53 8c-57 -1 -115 -31 -115 -104zM261 610h-118l-138 126v14h156l44 -40l42 40h158v-11z" />
    <glyph glyph-name="Rcaron" unicode="&#x158;" horiz-adv-x="609" 
d="M208 237h-28v-237h-170v706h272c162 0 243 -120 241 -237c-2 -84 -47 -172 -137 -215l150 -222v-32h-182zM180 542v-150h98c50 0 77 37 78 72c1 37 -25 78 -78 78h-98zM289 757h-118l-138 126v14h156l44 -40l42 40h158v-11z" />
    <glyph glyph-name="scircumflex" unicode="&#x15d;" horiz-adv-x="515" 
d="M20 367c0 131 102 187 223 187c116 0 217 -59 218 -185h-151c-1 42 -43 45 -76 45c-23 0 -55 -8 -55 -37c0 -28 42 -29 65 -30c113 -3 228 -51 228 -179c0 -136 -111 -182 -231 -182c-129 0 -227 58 -229 196h158c1 -36 39 -51 75 -51c41 -1 69 14 69 33
c0 39 -60 34 -86 36c-102 9 -208 48 -208 167zM197 761h118l138 -126v-14h-156l-44 40l-42 -40h-158v11z" />
    <glyph glyph-name="Scircumflex" unicode="&#x15c;" horiz-adv-x="616" 
d="M536 479h-172c0 47 -38 72 -91 72s-90 -23 -90 -61c0 -52 83 -53 106 -55c99 -13 224 -39 254 -165c3 -16 5 -34 5 -49c0 -146 -142 -230 -275 -230c-114 0 -269 70 -269 248h173c0 -69 58 -82 97 -82c56 0 101 16 101 56c0 50 -80 52 -106 55c-113 11 -247 36 -260 197
v-1c-8 154 118 246 267 246c125 0 260 -70 260 -231zM220 897h118l138 -126v-14h-156l-44 40l-42 -40h-158v11z" />
    <glyph glyph-name="sacute" unicode="&#x15b;" horiz-adv-x="515" 
d="M20 367c0 131 102 187 223 187c116 0 217 -59 218 -185h-151c-1 42 -43 45 -76 45c-23 0 -55 -8 -55 -37c0 -28 42 -29 65 -30c113 -3 228 -51 228 -179c0 -136 -111 -182 -231 -182c-129 0 -227 58 -229 196h158c1 -36 39 -51 75 -51c41 -1 69 14 69 33
c0 39 -60 34 -86 36c-102 9 -208 48 -208 167zM415 748v-11l-115 -123h-129v23l63 111h181z" />
    <glyph glyph-name="Sacute" unicode="&#x15a;" horiz-adv-x="616" 
d="M536 479h-172c0 47 -38 72 -91 72s-90 -23 -90 -61c0 -52 83 -53 106 -55c99 -13 224 -39 254 -165c3 -16 5 -34 5 -49c0 -146 -142 -230 -275 -230c-114 0 -269 70 -269 248h173c0 -69 58 -82 97 -82c56 0 101 16 101 56c0 50 -80 52 -106 55c-113 11 -247 36 -260 197
v-1c-8 154 118 246 267 246c125 0 260 -70 260 -231zM437 893v-11l-115 -123h-129v23l63 111h181z" />
    <glyph glyph-name="scedilla" unicode="&#x15f;" horiz-adv-x="515" 
d="M170 -93l-10 15l28 68c-102 14 -175 73 -176 192h158c1 -36 39 -51 75 -51c41 -1 69 14 69 33c0 39 -60 34 -86 36c-102 9 -208 48 -208 167c0 131 102 187 223 187c116 0 217 -59 218 -185h-151c-1 42 -43 45 -76 45c-23 0 -55 -8 -55 -37c0 -28 42 -29 65 -30
c113 -3 228 -51 228 -179c0 -109 -72 -160 -162 -176l-5 -15c64 -10 104 -48 89 -118c-18 -84 -99 -107 -165 -107c-54 0 -110 20 -134 83l85 47c9 -19 34 -30 55 -29c27 0 40 11 43 24c10 47 -80 48 -108 30z" />
    <glyph glyph-name="Scedilla" unicode="&#x15e;" horiz-adv-x="616" 
d="M207 -95l-10 15l31 75c-106 15 -224 88 -224 244h173c0 -69 58 -82 97 -82c56 0 101 16 101 56c0 50 -80 52 -106 55c-113 11 -247 36 -260 197v-1c-8 154 118 246 267 246c125 0 260 -70 260 -231h-172c0 47 -38 72 -91 72s-90 -23 -90 -61c0 -52 83 -53 106 -55
c99 -13 224 -39 254 -165c3 -16 5 -34 5 -49c0 -118 -92 -195 -197 -221l-9 -25c64 -10 104 -48 89 -118c-18 -84 -99 -107 -165 -107c-54 0 -110 20 -134 83l85 47c9 -19 34 -30 55 -29c27 0 40 11 43 24c10 47 -80 48 -108 30z" />
    <glyph glyph-name="scaron" unicode="&#x161;" horiz-adv-x="515" 
d="M20 367c0 131 102 187 223 187c116 0 217 -59 218 -185h-151c-1 42 -43 45 -76 45c-23 0 -55 -8 -55 -37c0 -28 42 -29 65 -30c113 -3 228 -51 228 -179c0 -136 -111 -182 -231 -182c-129 0 -227 58 -229 196h158c1 -36 39 -51 75 -51c41 -1 69 14 69 33
c0 39 -60 34 -86 36c-102 9 -208 48 -208 167zM312 616h-118l-138 126v14h156l44 -40l42 40h158v-11z" />
    <glyph glyph-name="Scaron" unicode="&#x160;" horiz-adv-x="616" 
d="M536 479h-172c0 47 -38 72 -91 72s-90 -23 -90 -61c0 -52 83 -53 106 -55c99 -13 224 -39 254 -165c3 -16 5 -34 5 -49c0 -146 -142 -230 -275 -230c-114 0 -269 70 -269 248h173c0 -69 58 -82 97 -82c56 0 101 16 101 56c0 50 -80 52 -106 55c-113 11 -247 36 -260 197
v-1c-8 154 118 246 267 246c125 0 260 -70 260 -231zM347 765h-118l-138 126v14h156l44 -40l42 40h158v-11z" />
    <glyph glyph-name="Tcommaaccent" unicode="&#x162;" horiz-adv-x="634" 
d="M367 0h-30l-8 -23c64 -10 104 -48 89 -118c-18 -84 -99 -107 -165 -107c-54 0 -110 20 -134 83l85 47c9 -19 34 -30 55 -29c27 0 40 11 43 24c10 47 -80 48 -108 30l-10 15l32 78h-20v548h-189v160h548v-160h-188v-548z" />
    <glyph glyph-name="tcommaaccent" unicode="&#x163;" horiz-adv-x="415" 
d="M138 -106l-10 14l40 103c-57 27 -88 83 -88 176v213h-71v135h71v103l157 14v-117h113v-135h-113v-213c0 -48 35 -63 73 -63c15 0 31 2 45 5l5 -130c-28 -4 -54 -7 -77 -8l-12 -32c63 -9 102 -44 87 -109c-17 -78 -97 -99 -162 -99c-53 0 -108 19 -132 77l84 43
c9 -17 33 -27 54 -27c26 0 39 11 42 23c10 43 -79 44 -106 27z" />
    <glyph glyph-name="Tcaron" unicode="&#x164;" horiz-adv-x="634" 
d="M367 0h-171v548h-189v160h548v-160h-188v-548zM337 756h-118l-138 126v14h156l44 -40l42 40h158v-11z" />
    <glyph glyph-name="tcaron" unicode="&#x165;" horiz-adv-x="474" 
d="M270 722h133c10 -53 6 -98 -25 -141h-106c13 46 18 88 -2 141zM360 -1c-31 -5 -60 -8 -86 -8c-121 -1 -194 55 -194 196v213h-71v135h71v103l157 14v-117h113v-135h-113v-213c0 -48 35 -63 73 -63c15 0 31 2 45 5z" />
    <glyph glyph-name="Tbar" unicode="&#x166;" horiz-adv-x="634" 
d="M92 257v136h104v155h-189v160h548v-160h-188v-155h117v-136h-117v-257h-171v257h-104z" />
    <glyph glyph-name="tbar" unicode="&#x167;" horiz-adv-x="415" 
d="M11 203v111h69v86h-71v135h71v103l157 14v-117h113v-135h-113v-86h91v-111h-91v-16c0 -48 35 -63 73 -63c15 0 31 2 45 5l5 -130c-31 -5 -60 -8 -86 -8c-121 -1 -194 55 -194 196v16h-69z" />
    <glyph glyph-name="umacron" unicode="&#x16b;" horiz-adv-x="604" 
d="M534 0h-159v55c-38 -49 -95 -63 -153 -62c-154 1 -196 116 -195 250v298h159v-297c0 -156 181 -135 181 3v294h167v-541zM138 613v133h307v-133h-307z" />
    <glyph glyph-name="utilde" unicode="&#x169;" horiz-adv-x="604" 
d="M534 0h-159v55c-38 -49 -95 -63 -153 -62c-154 1 -196 116 -195 250v298h159v-297c0 -156 181 -135 181 3v294h167v-541zM382 763l87 -76c-41 -70 -93 -101 -146 -95c-65 9 -94 80 -145 8l-90 71c64 108 150 120 228 62c27 -19 46 7 66 30z" />
    <glyph glyph-name="Utilde" unicode="&#x168;" horiz-adv-x="630" 
d="M279 -10c-135 0 -269 77 -269 235v475h171v-474c0 -105 198 -103 198 0v474h171v-475c0 -158 -136 -236 -271 -235zM387 927l87 -76c-41 -70 -93 -101 -146 -95c-65 9 -94 80 -145 8l-90 71c64 108 150 120 228 62c27 -19 46 7 66 30z" />
    <glyph glyph-name="Umacron" unicode="&#x16a;" horiz-adv-x="630" 
d="M279 -10c-135 0 -269 77 -269 235v475h171v-474c0 -105 198 -103 198 0v474h171v-475c0 -158 -136 -236 -271 -235zM121 761v126h313v-126h-313z" />
    <glyph glyph-name="ubreve" unicode="&#x16d;" horiz-adv-x="604" 
d="M534 0h-159v55c-38 -49 -95 -63 -153 -62c-154 1 -196 116 -195 250v298h159v-297c0 -156 181 -135 181 3v294h167v-541zM312 755h128c0 -192 -322 -199 -322 0h123c1 -43 72 -40 71 0z" />
    <glyph glyph-name="Ubreve" unicode="&#x16c;" horiz-adv-x="630" 
d="M279 -10c-135 0 -269 77 -269 235v475h171v-474c0 -105 198 -103 198 0v474h171v-475c0 -158 -136 -236 -271 -235zM308 897h128c0 -192 -322 -199 -322 0h123c1 -43 72 -40 71 0z" />
    <glyph glyph-name="Uring" unicode="&#x16e;" horiz-adv-x="630" 
d="M283 752c-63 0 -119 41 -119 107c0 67 56 108 119 108c62 0 120 -41 120 -108c0 -66 -58 -107 -120 -107zM283 899c-26 0 -48 -16 -48 -40c0 -25 22 -38 48 -38c29 0 49 13 49 38c0 24 -20 40 -49 40zM279 -10c-135 0 -269 77 -269 235v475h171v-474
c0 -105 198 -103 198 0v474h171v-475c0 -158 -136 -236 -271 -235z" />
    <glyph glyph-name="uring" unicode="&#x16f;" horiz-adv-x="604" 
d="M284 570c-63 0 -119 41 -119 107c0 67 56 108 119 108c62 0 120 -41 120 -108c0 -66 -58 -107 -120 -107zM284 718c-27 0 -48 -17 -48 -42s21 -38 48 -38c30 0 50 13 50 38s-20 42 -50 42zM534 0h-159v55c-38 -49 -95 -63 -153 -62c-154 1 -196 116 -195 250v298h159
v-297c0 -156 181 -135 181 3v294h167v-541z" />
    <glyph glyph-name="Uhungarumlaut" unicode="&#x170;" horiz-adv-x="630" 
d="M279 -10c-135 0 -269 77 -269 235v475h171v-474c0 -105 198 -103 198 0v474h171v-475c0 -158 -136 -236 -271 -235zM287 763l93 143h170l-118 -143h-145zM101 763l86 143h159l-102 -143h-143z" />
    <glyph glyph-name="uhungarumlaut" unicode="&#x171;" horiz-adv-x="604" 
d="M534 0h-159v55c-38 -49 -95 -63 -153 -62c-154 1 -196 116 -195 250v298h159v-297c0 -156 181 -135 181 3v294h167v-541zM277 617l93 143h170l-118 -143h-145zM91 617l86 143h159l-102 -143h-143z" />
    <glyph glyph-name="Uogonek" unicode="&#x172;" horiz-adv-x="649" 
d="M470 -82l1 -3l-78 -98s-121 -15 -135 87h1c-5 36 5 65 20 87c-128 7 -250 83 -250 234v475h171v-474c0 -105 198 -103 198 0v474h171v-475c0 -107 -62 -177 -144 -211c-44 -36 -18 -105 45 -96z" />
    <glyph glyph-name="uogonek" unicode="&#x173;" horiz-adv-x="604" 
d="M554 -91l2 -3l-80 -95s-123 -15 -137 84h1c-7 48 15 83 38 105h-3v55c-38 -49 -95 -63 -153 -62c-154 1 -196 116 -195 250v298h159v-297c0 -156 181 -135 181 3v294h167v-541h-28c-41 -36 -15 -100 48 -91z" />
    <glyph glyph-name="ycircumflex" unicode="&#x177;" horiz-adv-x="575" 
d="M263 231l40 137l67 173h163v-25c-89 -225 -178 -449 -266 -674h-163v24l70 178l-180 472v25h164l67 -173zM206 757h118l138 -126v-14h-156l-44 40l-42 -40h-158v11z" />
    <glyph glyph-name="Ycircumflex" unicode="&#x176;" horiz-adv-x="733" 
d="M668 700v-18l-251 -399v-283h-171v282l-251 402v16h188l70 -112l79 -143l83 152l64 103h189zM265 903h118l138 -126v-14h-156l-44 40l-42 -40h-158v11z" />
    <glyph glyph-name="wcircumflex" unicode="&#x175;" horiz-adv-x="812" 
d="M383 214l-47 -152l-23 -62h-151l-172 517v24h161l54 -163l36 -148l85 280h113l85 -280l36 148l54 163h161v-24l-172 -517h-151l-24 64zM328 754h118l138 -126v-14h-156l-44 40l-42 -40h-158v11z" />
    <glyph glyph-name="Wcircumflex" unicode="&#x174;" horiz-adv-x="1002" 
d="M542 540l87 -245l134 405h171v-21l-227 -683h-151l-88 243l-86 -243h-151l-227 683v21h171l134 -405l88 245h145zM412 899h118l138 -126v-14h-156l-44 40l-42 -40h-158v11z" />
    <glyph glyph-name="zcaron" unicode="&#x17e;" horiz-adv-x="483" 
d="M12 0v95l199 303h-197v143h414v-87l-206 -305h208v-149h-418zM299 598h-118l-138 126v14h156l44 -40l42 40h158v-11z" />
    <glyph glyph-name="Zcaron" unicode="&#x17d;" horiz-adv-x="651" 
d="M551 706v-125l-295 -423h299v-158h-525v120l302 429h-302v157h521zM366 763h-118l-138 126v14h156l44 -40l42 40h158v-11z" />
    <glyph glyph-name="zdotaccent" unicode="&#x17c;" horiz-adv-x="483" 
d="M12 0v95l199 303h-197v143h414v-87l-206 -305h208v-149h-418zM142 672c0 58 46 87 92 87c45 0 91 -27 91 -87c0 -58 -46 -87 -92 -87c-44 0 -91 28 -91 87z" />
    <glyph glyph-name="Zdotaccent" unicode="&#x17b;" horiz-adv-x="651" 
d="M551 706v-125l-295 -423h299v-158h-525v120l302 429h-302v157h521zM205 850c0 58 46 87 92 87c45 0 91 -27 91 -87c0 -58 -46 -87 -92 -87c-44 0 -91 28 -91 87z" />
    <glyph glyph-name="zacute" unicode="&#x17a;" horiz-adv-x="483" 
d="M12 0v95l199 303h-197v143h414v-87l-206 -305h208v-149h-418zM407 723v-11l-115 -123h-129v23l63 111h181z" />
    <glyph glyph-name="Zacute" unicode="&#x179;" horiz-adv-x="651" 
d="M551 706v-125l-295 -423h299v-158h-525v120l302 429h-302v157h521zM471 891v-11l-115 -123h-129v23l63 111h181z" />
    </font>
</defs>
</svg>
